Playwrite-Rg00ShortFast.ufo
<glyph name="exclam" format="2">
  <advance width="340"/>
  <unicode hex="0021"/>
  <outline>
    <contour>
      <point x="170" y="216" type="curve" smooth="yes"/>
      <point x="199" y="216"/>
      <point x="214" y="225"/>
      <point x="214" y="244" type="curve" smooth="yes"/>
      <point x="214" y="863" type="line" smooth="yes"/>
      <point x="214" y="881"/>
      <point x="199" y="890"/>
      <point x="170" y="890" type="curve" smooth="yes"/>
      <point x="141" y="890"/>
      <point x="126" y="881"/>
      <point x="126" y="863" type="curve" smooth="yes"/>
      <point x="126" y="244" type="line" smooth="yes"/>
      <point x="126" y="225"/>
      <point x="141" y="216"/>
    </contour>
    <contour>
      <point x="170" y="-14" type="curve" smooth="yes"/>
      <point x="206" y="-14"/>
      <point x="226" y="6"/>
      <point x="225" y="49" type="curve" smooth="yes"/>
      <point x="225" y="91"/>
      <point x="206" y="113"/>
      <point x="170" y="113" type="curve" smooth="yes"/>
      <point x="133" y="113"/>
      <point x="114" y="91"/>
      <point x="114" y="49" type="curve" smooth="yes"/>
      <point x="114" y="6"/>
      <point x="133" y="-14"/>
    </contour>
  </outline>
</glyph>
<glyph name="numbersign" format="2">
  <advance width="925"/>
  <unicode hex="0023"/>
  <outline>
    <contour>
      <point x="166" y="-20" type="curve" smooth="yes"/>
      <point x="195" y="-26"/>
      <point x="211" y="-22"/>
      <point x="216" y="-4" type="curve" smooth="yes"/>
      <point x="277" y="228" type="line"/>
      <point x="536" y="228" type="line"/>
      <point x="481" y="19" type="line" smooth="yes"/>
      <point x="476" y="0"/>
      <point x="489" y="-14"/>
      <point x="516" y="-20" type="curve" smooth="yes"/>
      <point x="545" y="-26"/>
      <point x="561" y="-22"/>
      <point x="566" y="-4" type="curve" smooth="yes"/>
      <point x="627" y="228" type="line"/>
      <point x="810" y="228" type="line" smooth="yes"/>
      <point x="830" y="228"/>
      <point x="838" y="238"/>
      <point x="838" y="268" type="curve" smooth="yes"/>
      <point x="838" y="298"/>
      <point x="830" y="308"/>
      <point x="810" y="308" type="curve" smooth="yes"/>
      <point x="648" y="308" type="line"/>
      <point x="715" y="566" type="line"/>
      <point x="898" y="566" type="line" smooth="yes"/>
      <point x="918" y="566"/>
      <point x="925" y="576"/>
      <point x="925" y="606" type="curve" smooth="yes"/>
      <point x="925" y="636"/>
      <point x="918" y="646"/>
      <point x="898" y="646" type="curve" smooth="yes"/>
      <point x="736" y="646" type="line"/>
      <point x="791" y="855" type="line" smooth="yes"/>
      <point x="796" y="874"/>
      <point x="784" y="886"/>
      <point x="756" y="894" type="curve" smooth="yes"/>
      <point x="728" y="901"/>
      <point x="711" y="896"/>
      <point x="706" y="878" type="curve" smooth="yes"/>
      <point x="645" y="646" type="line"/>
      <point x="386" y="646" type="line"/>
      <point x="441" y="855" type="line" smooth="yes"/>
      <point x="446" y="874"/>
      <point x="434" y="886"/>
      <point x="406" y="894" type="curve" smooth="yes"/>
      <point x="378" y="901"/>
      <point x="361" y="896"/>
      <point x="356" y="878" type="curve" smooth="yes"/>
      <point x="295" y="646" type="line"/>
      <point x="115" y="646" type="line" smooth="yes"/>
      <point x="95" y="646"/>
      <point x="88" y="636"/>
      <point x="88" y="606" type="curve" smooth="yes"/>
      <point x="88" y="576"/>
      <point x="95" y="566"/>
      <point x="115" y="566" type="curve" smooth="yes"/>
      <point x="274" y="566" type="line"/>
      <point x="207" y="308" type="line"/>
      <point x="28" y="308" type="line" smooth="yes"/>
      <point x="8" y="308"/>
      <point x="0" y="298"/>
      <point x="0" y="268" type="curve" smooth="yes"/>
      <point x="0" y="238"/>
      <point x="8" y="228"/>
      <point x="28" y="228" type="curve" smooth="yes"/>
      <point x="186" y="228" type="line"/>
      <point x="131" y="19" type="line" smooth="yes"/>
      <point x="126" y="0"/>
      <point x="139" y="-14"/>
    </contour>
    <contour>
      <point x="298" y="308" type="line"/>
      <point x="365" y="566" type="line"/>
      <point x="624" y="566" type="line"/>
      <point x="557" y="308" type="line"/>
    </contour>
  </outline>
</glyph>
<glyph name="dollar" format="2">
  <advance width="668"/>
  <unicode hex="0024"/>
  <outline>
    <contour>
      <point x="325" y="-19" type="curve" smooth="yes"/>
      <point x="491" y="-19"/>
      <point x="601" y="66"/>
      <point x="601" y="226" type="curve" smooth="yes"/>
      <point x="601" y="386"/>
      <point x="465" y="445"/>
      <point x="353" y="488" type="curve" smooth="yes"/>
      <point x="244" y="529"/>
      <point x="170" y="569"/>
      <point x="170" y="678" type="curve" smooth="yes"/>
      <point x="170" y="761"/>
      <point x="231" y="805"/>
      <point x="338" y="805" type="curve" smooth="yes"/>
      <point x="421" y="805"/>
      <point x="464" y="778"/>
      <point x="514" y="731" type="curve" smooth="yes"/>
      <point x="528" y="719"/>
      <point x="544" y="729"/>
      <point x="560" y="746" type="curve" smooth="yes"/>
      <point x="574" y="761"/>
      <point x="578" y="774"/>
      <point x="564" y="788" type="curve" smooth="yes"/>
      <point x="500" y="851"/>
      <point x="438" y="890"/>
      <point x="338" y="890" type="curve" smooth="yes"/>
      <point x="186" y="890"/>
      <point x="78" y="810"/>
      <point x="78" y="678" type="curve" smooth="yes"/>
      <point x="78" y="510"/>
      <point x="214" y="443"/>
      <point x="331" y="396" type="curve" smooth="yes"/>
      <point x="439" y="354"/>
      <point x="509" y="318"/>
      <point x="509" y="226" type="curve" smooth="yes"/>
      <point x="509" y="116"/>
      <point x="444" y="66"/>
      <point x="325" y="66" type="curve" smooth="yes"/>
      <point x="221" y="66"/>
      <point x="156" y="118"/>
      <point x="115" y="155" type="curve" smooth="yes"/>
      <point x="90" y="178"/>
      <point x="85" y="174"/>
      <point x="63" y="154" type="curve" smooth="yes"/>
      <point x="43" y="136"/>
      <point x="45" y="125"/>
      <point x="55" y="111" type="curve" smooth="yes"/>
      <point x="114" y="34"/>
      <point x="219" y="-19"/>
    </contour>
    <contour>
      <point x="336" y="-150" type="curve" smooth="yes"/>
      <point x="363" y="-150"/>
      <point x="376" y="-141"/>
      <point x="376" y="-122" type="curve" smooth="yes"/>
      <point x="376" y="1009" type="line" smooth="yes"/>
      <point x="376" y="1028"/>
      <point x="363" y="1036"/>
      <point x="336" y="1036" type="curve" smooth="yes"/>
      <point x="310" y="1036"/>
      <point x="296" y="1028"/>
      <point x="296" y="1009" type="curve" smooth="yes"/>
      <point x="296" y="-122" type="line" smooth="yes"/>
      <point x="296" y="-141"/>
      <point x="310" y="-150"/>
    </contour>
  </outline>
</glyph>
<glyph name="two" format="2">
  <advance width="663"/>
  <unicode hex="0032"/>
  <outline>
    <contour>
      <point x="71" y="0" type="curve" smooth="yes"/>
      <point x="576" y="0" type="line" smooth="yes"/>
      <point x="599" y="0"/>
      <point x="604" y="15"/>
      <point x="604" y="43" type="curve" smooth="yes"/>
      <point x="604" y="71"/>
      <point x="595" y="80"/>
      <point x="576" y="80" type="curve" smooth="yes"/>
      <point x="178" y="80" type="line"/>
      <point x="310" y="211" type="line" smooth="yes"/>
      <point x="513" y="411"/>
      <point x="590" y="535"/>
      <point x="590" y="665" type="curve" smooth="yes"/>
      <point x="590" y="816"/>
      <point x="471" y="890"/>
      <point x="323" y="890" type="curve" smooth="yes"/>
      <point x="206" y="890"/>
      <point x="106" y="834"/>
      <point x="65" y="784" type="curve" smooth="yes"/>
      <point x="53" y="769"/>
      <point x="44" y="753"/>
      <point x="68" y="731" type="curve" smooth="yes"/>
      <point x="88" y="714"/>
      <point x="101" y="713"/>
      <point x="124" y="731" type="curve" smooth="yes"/>
      <point x="179" y="778"/>
      <point x="233" y="809"/>
      <point x="311" y="809" type="curve" smooth="yes"/>
      <point x="431" y="809"/>
      <point x="503" y="770"/>
      <point x="503" y="659" type="curve" smooth="yes"/>
      <point x="503" y="554"/>
      <point x="434" y="446"/>
      <point x="251" y="266" type="curve" smooth="yes"/>
      <point x="49" y="66" type="line" smooth="yes"/>
      <point x="20" y="38"/>
      <point x="45" y="0"/>
    </contour>
  </outline>
</glyph>
<glyph name="three" format="2">
  <advance width="663"/>
  <unicode hex="0033"/>
  <outline>
    <contour>
      <point x="313" y="-19" type="curve" smooth="yes"/>
      <point x="499" y="-19"/>
      <point x="605" y="83"/>
      <point x="605" y="245" type="curve" smooth="yes"/>
      <point x="605" y="348"/>
      <point x="545" y="443"/>
      <point x="418" y="473" type="curve"/>
      <point x="524" y="506"/>
      <point x="568" y="586"/>
      <point x="568" y="669" type="curve" smooth="yes"/>
      <point x="568" y="814"/>
      <point x="456" y="890"/>
      <point x="316" y="890" type="curve" smooth="yes"/>
      <point x="196" y="890"/>
      <point x="101" y="821"/>
      <point x="64" y="771" type="curve" smooth="yes"/>
      <point x="53" y="756"/>
      <point x="41" y="739"/>
      <point x="66" y="719" type="curve" smooth="yes"/>
      <point x="86" y="703"/>
      <point x="104" y="699"/>
      <point x="123" y="719" type="curve" smooth="yes"/>
      <point x="165" y="765"/>
      <point x="220" y="810"/>
      <point x="315" y="810" type="curve" smooth="yes"/>
      <point x="390" y="810"/>
      <point x="478" y="766"/>
      <point x="478" y="666" type="curve" smooth="yes"/>
      <point x="478" y="588"/>
      <point x="423" y="511"/>
      <point x="299" y="511" type="curve" smooth="yes"/>
      <point x="241" y="511" type="line" smooth="yes"/>
      <point x="223" y="511"/>
      <point x="214" y="503"/>
      <point x="214" y="474" type="curve" smooth="yes"/>
      <point x="214" y="446"/>
      <point x="219" y="431"/>
      <point x="241" y="431" type="curve" smooth="yes"/>
      <point x="296" y="431" type="line" smooth="yes"/>
      <point x="429" y="431"/>
      <point x="514" y="351"/>
      <point x="514" y="248" type="curve" smooth="yes"/>
      <point x="514" y="125"/>
      <point x="431" y="61"/>
      <point x="311" y="61" type="curve" smooth="yes"/>
      <point x="220" y="61"/>
      <point x="145" y="109"/>
      <point x="94" y="213" type="curve" smooth="yes"/>
      <point x="84" y="233"/>
      <point x="69" y="233"/>
      <point x="45" y="220" type="curve" smooth="yes"/>
      <point x="16" y="205"/>
      <point x="19" y="189"/>
      <point x="33" y="160" type="curve" smooth="yes"/>
      <point x="93" y="35"/>
      <point x="200" y="-19"/>
    </contour>
  </outline>
</glyph>
<glyph name="six" format="2">
  <advance width="713"/>
  <unicode hex="0036"/>
  <outline>
    <contour>
      <point x="380" y="-19" type="curve" smooth="yes"/>
      <point x="558" y="-19"/>
      <point x="663" y="98"/>
      <point x="663" y="275" type="curve" smooth="yes"/>
      <point x="663" y="446"/>
      <point x="553" y="553"/>
      <point x="394" y="553" type="curve" smooth="yes"/>
      <point x="283" y="553"/>
      <point x="156" y="483"/>
      <point x="118" y="248" type="curve"/>
      <point x="166" y="180" type="line"/>
      <point x="190" y="394"/>
      <point x="298" y="473"/>
      <point x="393" y="473" type="curve" smooth="yes"/>
      <point x="498" y="473"/>
      <point x="571" y="395"/>
      <point x="571" y="274" type="curve" smooth="yes"/>
      <point x="571" y="145"/>
      <point x="501" y="61"/>
      <point x="379" y="61" type="curve" smooth="yes"/>
      <point x="261" y="61"/>
      <point x="168" y="163"/>
      <point x="168" y="333" type="curve" smooth="yes"/>
      <point x="168" y="573"/>
      <point x="259" y="744"/>
      <point x="538" y="806" type="curve" smooth="yes"/>
      <point x="569" y="814"/>
      <point x="569" y="823"/>
      <point x="566" y="850" type="curve" smooth="yes"/>
      <point x="563" y="888"/>
      <point x="548" y="889"/>
      <point x="505" y="880" type="curve" smooth="yes"/>
      <point x="220" y="818"/>
      <point x="75" y="623"/>
      <point x="75" y="350" type="curve" smooth="yes"/>
      <point x="75" y="130"/>
      <point x="186" y="-19"/>
    </contour>
  </outline>
</glyph>
<glyph name="eight" format="2">
  <advance width="663"/>
  <unicode hex="0038"/>
  <outline>
    <contour>
      <point x="333" y="-19" type="curve" smooth="yes"/>
      <point x="516" y="-19"/>
      <point x="623" y="75"/>
      <point x="623" y="234" type="curve" smooth="yes"/>
      <point x="623" y="350"/>
      <point x="550" y="434"/>
      <point x="443" y="481" type="curve"/>
      <point x="548" y="530"/>
      <point x="585" y="610"/>
      <point x="585" y="684" type="curve" smooth="yes"/>
      <point x="585" y="830"/>
      <point x="468" y="893"/>
      <point x="333" y="893" type="curve" smooth="yes"/>
      <point x="196" y="893"/>
      <point x="79" y="829"/>
      <point x="79" y="684" type="curve" smooth="yes"/>
      <point x="79" y="581"/>
      <point x="138" y="513"/>
      <point x="223" y="469" type="curve"/>
      <point x="96" y="419"/>
      <point x="41" y="321"/>
      <point x="41" y="235" type="curve" smooth="yes"/>
      <point x="41" y="66"/>
      <point x="149" y="-19"/>
    </contour>
    <contour>
      <point x="333" y="61" type="curve" smooth="yes"/>
      <point x="205" y="61"/>
      <point x="133" y="114"/>
      <point x="133" y="234" type="curve" smooth="yes"/>
      <point x="133" y="321"/>
      <point x="203" y="396"/>
      <point x="319" y="434" type="curve"/>
      <point x="451" y="394"/>
      <point x="531" y="330"/>
      <point x="531" y="234" type="curve" smooth="yes"/>
      <point x="531" y="116"/>
      <point x="460" y="61"/>
    </contour>
    <contour>
      <point x="346" y="513" type="curve"/>
      <point x="228" y="546"/>
      <point x="169" y="609"/>
      <point x="169" y="684" type="curve" smooth="yes"/>
      <point x="169" y="775"/>
      <point x="246" y="813"/>
      <point x="333" y="813" type="curve" smooth="yes"/>
      <point x="419" y="813"/>
      <point x="495" y="774"/>
      <point x="495" y="684" type="curve" smooth="yes"/>
      <point x="495" y="601"/>
      <point x="439" y="541"/>
    </contour>
  </outline>
</glyph>
<glyph name="question" format="2">
  <advance width="498"/>
  <unicode hex="003F"/>
  <guideline x="140"/>
  <guideline x="172"/>
  <guideline x="15"/>
  <outline>
    <contour>
      <point x="195" y="215" type="curve" smooth="yes"/>
      <point x="224" y="215"/>
      <point x="239" y="224"/>
      <point x="239" y="243" type="curve" smooth="yes"/>
      <point x="239" y="393" type="line"/>
      <point x="360" y="431"/>
      <point x="485" y="516"/>
      <point x="485" y="668" type="curve" smooth="yes"/>
      <point x="485" y="826"/>
      <point x="375" y="890"/>
      <point x="243" y="890" type="curve" smooth="yes"/>
      <point x="168" y="890"/>
      <point x="84" y="851"/>
      <point x="29" y="791" type="curve" smooth="yes"/>
      <point x="13" y="774"/>
      <point x="13" y="756"/>
      <point x="29" y="743" type="curve" smooth="yes"/>
      <point x="48" y="726"/>
      <point x="61" y="723"/>
      <point x="81" y="740" type="curve" smooth="yes"/>
      <point x="113" y="768"/>
      <point x="168" y="810"/>
      <point x="243" y="810" type="curve" smooth="yes"/>
      <point x="344" y="810"/>
      <point x="395" y="760"/>
      <point x="395" y="670" type="curve" smooth="yes"/>
      <point x="395" y="550"/>
      <point x="304" y="485"/>
      <point x="185" y="460" type="curve" smooth="yes"/>
      <point x="163" y="455"/>
      <point x="151" y="449"/>
      <point x="151" y="433" type="curve" smooth="yes"/>
      <point x="151" y="243" type="line" smooth="yes"/>
      <point x="151" y="224"/>
      <point x="166" y="215"/>
    </contour>
    <contour>
      <point x="195" y="-14" type="curve" smooth="yes"/>
      <point x="231" y="-14"/>
      <point x="250" y="6"/>
      <point x="250" y="49" type="curve" smooth="yes"/>
      <point x="250" y="91"/>
      <point x="231" y="113"/>
      <point x="195" y="113" type="curve" smooth="yes"/>
      <point x="158" y="113"/>
      <point x="139" y="91"/>
      <point x="139" y="49" type="curve" smooth="yes"/>
      <point x="139" y="6"/>
      <point x="158" y="-14"/>
    </contour>
  </outline>
</glyph>
<glyph name="B" format="2">
  <advance width="725"/>
  <unicode hex="0042"/>
  <anchor x="363" y="0" name="bottom"/>
  <anchor x="170" y="258" name="center"/>
  <anchor x="363" y="838" name="top"/>
  <outline>
    <contour>
      <point x="169" y="0" type="curve" smooth="yes"/>
      <point x="346" y="0" type="line" smooth="yes"/>
      <point x="545" y="0"/>
      <point x="675" y="110"/>
      <point x="675" y="271" type="curve" smooth="yes"/>
      <point x="675" y="410"/>
      <point x="560" y="460"/>
      <point x="435" y="463" type="curve"/>
      <point x="435" y="466" type="line"/>
      <point x="520" y="495"/>
      <point x="638" y="564"/>
      <point x="638" y="686" type="curve" smooth="yes"/>
      <point x="638" y="836"/>
      <point x="535" y="875"/>
      <point x="371" y="875" type="curve" smooth="yes"/>
      <point x="170" y="875" type="line" smooth="yes"/>
      <point x="140" y="875"/>
      <point x="125" y="866"/>
      <point x="125" y="848" type="curve" smooth="yes"/>
      <point x="125" y="28" type="line" smooth="yes"/>
      <point x="125" y="9"/>
      <point x="140" y="0"/>
    </contour>
    <contour>
      <point x="213" y="80" type="line"/>
      <point x="213" y="423" type="line"/>
      <point x="359" y="423" type="line" smooth="yes"/>
      <point x="508" y="423"/>
      <point x="585" y="379"/>
      <point x="585" y="270" type="curve" smooth="yes"/>
      <point x="585" y="175"/>
      <point x="518" y="80"/>
      <point x="346" y="80" type="curve" smooth="yes"/>
    </contour>
    <contour>
      <point x="213" y="503" type="line"/>
      <point x="213" y="795" type="line"/>
      <point x="371" y="795" type="line" smooth="yes"/>
      <point x="474" y="795"/>
      <point x="548" y="779"/>
      <point x="548" y="686" type="curve" smooth="yes"/>
      <point x="548" y="579"/>
      <point x="460" y="503"/>
      <point x="346" y="503" type="curve" smooth="yes"/>
    </contour>
  </outline>
</glyph>
<glyph name="D" format="2">
  <advance width="869"/>
  <unicode hex="0044"/>
  <anchor x="396" y="0" name="bottom"/>
  <anchor x="233" y="444" name="center"/>
  <anchor x="408" y="838" name="top"/>
  <outline>
    <contour>
      <point x="169" y="0" type="curve" smooth="yes"/>
      <point x="294" y="0" type="line" smooth="yes"/>
      <point x="640" y="0"/>
      <point x="788" y="191"/>
      <point x="788" y="483" type="curve" smooth="yes"/>
      <point x="788" y="685"/>
      <point x="653" y="875"/>
      <point x="350" y="875" type="curve" smooth="yes"/>
      <point x="169" y="875" type="line" smooth="yes"/>
      <point x="140" y="875"/>
      <point x="125" y="866"/>
      <point x="125" y="848" type="curve" smooth="yes"/>
      <point x="125" y="28" type="line" smooth="yes"/>
      <point x="125" y="9"/>
      <point x="140" y="0"/>
    </contour>
    <contour>
      <point x="213" y="85" type="line"/>
      <point x="213" y="790" type="line"/>
      <point x="350" y="790" type="line" smooth="yes"/>
      <point x="574" y="790"/>
      <point x="694" y="655"/>
      <point x="694" y="483" type="curve" smooth="yes"/>
      <point x="694" y="220"/>
      <point x="574" y="85"/>
      <point x="294" y="85" type="curve" smooth="yes"/>
    </contour>
  </outline>
</glyph>
<glyph name="F" format="2">
  <advance width="625"/>
  <unicode hex="0046"/>
  <outline>
    <contour>
      <point x="169" y="-14" type="curve"/>
      <point x="198" y="-14"/>
      <point x="213" y="-5"/>
      <point x="213" y="14" type="curve" smooth="yes"/>
      <point x="213" y="398" type="line"/>
      <point x="523" y="398" type="line" smooth="yes"/>
      <point x="543" y="398"/>
      <point x="550" y="408"/>
      <point x="550" y="438" type="curve" smooth="yes"/>
      <point x="550" y="468"/>
      <point x="543" y="478"/>
      <point x="523" y="478" type="curve" smooth="yes"/>
      <point x="213" y="478" type="line"/>
      <point x="213" y="795" type="line"/>
      <point x="585" y="795" type="line" smooth="yes"/>
      <point x="605" y="795"/>
      <point x="613" y="805"/>
      <point x="613" y="835" type="curve" smooth="yes"/>
      <point x="613" y="865"/>
      <point x="605" y="875"/>
      <point x="585" y="875" type="curve" smooth="yes"/>
      <point x="169" y="875" type="line" smooth="yes"/>
      <point x="140" y="875"/>
      <point x="125" y="866"/>
      <point x="125" y="848" type="curve" smooth="yes"/>
      <point x="125" y="14" type="line" smooth="yes"/>
      <point x="125" y="-5"/>
      <point x="140" y="-14"/>
    </contour>
  </outline>
</glyph>
<glyph name="R" format="2">
  <advance width="694"/>
  <unicode hex="0052"/>
  <anchor x="385" y="0" name="bottom"/>
  <anchor x="348" y="838" name="top"/>
  <outline>
    <contour>
      <point x="169" y="-14" type="curve" smooth="yes"/>
      <point x="198" y="-14"/>
      <point x="213" y="-5"/>
      <point x="213" y="14" type="curve" smooth="yes"/>
      <point x="213" y="379" type="line"/>
      <point x="324" y="249"/>
      <point x="458" y="113"/>
      <point x="603" y="-5" type="curve" smooth="yes"/>
      <point x="623" y="-21"/>
      <point x="641" y="-20"/>
      <point x="659" y="-4" type="curve" smooth="yes"/>
      <point x="684" y="21"/>
      <point x="676" y="43"/>
      <point x="661" y="54" type="curve" smooth="yes"/>
      <point x="529" y="159"/>
      <point x="411" y="275"/>
      <point x="309" y="393" type="curve"/>
      <point x="516" y="408"/>
      <point x="638" y="514"/>
      <point x="638" y="663" type="curve" smooth="yes"/>
      <point x="638" y="819"/>
      <point x="543" y="875"/>
      <point x="334" y="875" type="curve" smooth="yes"/>
      <point x="170" y="875" type="line" smooth="yes"/>
      <point x="140" y="875"/>
      <point x="125" y="866"/>
      <point x="125" y="848" type="curve" smooth="yes"/>
      <point x="125" y="14" type="line" smooth="yes"/>
      <point x="125" y="-5"/>
      <point x="140" y="-14"/>
    </contour>
    <contour>
      <point x="213" y="463" type="curve"/>
      <point x="213" y="795" type="line"/>
      <point x="348" y="795" type="line" smooth="yes"/>
      <point x="484" y="795"/>
      <point x="548" y="761"/>
      <point x="548" y="663" type="curve" smooth="yes"/>
      <point x="548" y="530"/>
      <point x="435" y="463"/>
    </contour>
  </outline>
</glyph>
<glyph name="W" format="2">
  <advance width="1200"/>
  <unicode hex="0057"/>
  <anchor x="600" y="0" name="bottom"/>
  <anchor x="600" y="838" name="top"/>
  <outline>
    <contour>
      <point x="309" y="-14" type="curve" smooth="yes"/>
      <point x="341" y="-14"/>
      <point x="355" y="-4"/>
      <point x="365" y="26" type="curve" smooth="yes"/>
      <point x="599" y="750" type="line"/>
      <point x="833" y="26" type="line" smooth="yes"/>
      <point x="843" y="-4"/>
      <point x="856" y="-14"/>
      <point x="888" y="-14" type="curve" smooth="yes"/>
      <point x="920" y="-14"/>
      <point x="935" y="-4"/>
      <point x="944" y="26" type="curve" smooth="yes"/>
      <point x="1186" y="845" type="line" smooth="yes"/>
      <point x="1191" y="863"/>
      <point x="1184" y="876"/>
      <point x="1155" y="886" type="curve" smooth="yes"/>
      <point x="1129" y="895"/>
      <point x="1110" y="893"/>
      <point x="1104" y="871" type="curve" smooth="yes"/>
      <point x="888" y="126" type="line"/>
      <point x="651" y="854" type="line" smooth="yes"/>
      <point x="643" y="880"/>
      <point x="629" y="890"/>
      <point x="599" y="890" type="curve" smooth="yes"/>
      <point x="570" y="890"/>
      <point x="556" y="880"/>
      <point x="548" y="854" type="curve" smooth="yes"/>
      <point x="311" y="125" type="line"/>
      <point x="96" y="871" type="line" smooth="yes"/>
      <point x="90" y="893"/>
      <point x="71" y="895"/>
      <point x="45" y="886" type="curve" smooth="yes"/>
      <point x="16" y="876"/>
      <point x="9" y="863"/>
      <point x="14" y="845" type="curve" smooth="yes"/>
      <point x="254" y="26" type="line" smooth="yes"/>
      <point x="263" y="-4"/>
      <point x="278" y="-14"/>
    </contour>
  </outline>
</glyph>
<glyph name="a" format="2">
  <advance width="624"/>
  <unicode hex="0061"/>
  <anchor x="281" y="0" name="bottom"/>
  <anchor x="571" y="13" name="ogonek"/>
  <anchor x="298" y="500" name="top"/>
  <outline>
    <contour>
      <point x="226" y="-17" type="curve" smooth="yes"/>
      <point x="305" y="-17"/>
      <point x="374" y="49"/>
      <point x="411" y="165" type="curve"/>
      <point x="411" y="141"/>
      <point x="411" y="116"/>
      <point x="411" y="93" type="curve" smooth="yes"/>
      <point x="411" y="25"/>
      <point x="444" y="-17"/>
      <point x="508" y="-17" type="curve" smooth="yes"/>
      <point x="564" y="-17"/>
      <point x="599" y="31"/>
      <point x="618" y="85" type="curve" smooth="yes"/>
      <point x="624" y="101"/>
      <point x="615" y="113"/>
      <point x="596" y="120" type="curve" smooth="yes"/>
      <point x="578" y="128"/>
      <point x="566" y="123"/>
      <point x="561" y="111" type="curve" smooth="yes"/>
      <point x="544" y="75"/>
      <point x="534" y="61"/>
      <point x="519" y="61" type="curve" smooth="yes"/>
      <point x="503" y="61"/>
      <point x="498" y="71"/>
      <point x="498" y="106" type="curve" smooth="yes"/>
      <point x="498" y="489" type="line" smooth="yes"/>
      <point x="498" y="506"/>
      <point x="483" y="515"/>
      <point x="454" y="515" type="curve" smooth="yes"/>
      <point x="426" y="515"/>
      <point x="411" y="506"/>
      <point x="411" y="491" type="curve"/>
      <point x="411" y="489" type="line"/>
      <point x="371" y="510"/>
      <point x="334" y="519"/>
      <point x="289" y="519" type="curve" smooth="yes"/>
      <point x="143" y="519"/>
      <point x="63" y="398"/>
      <point x="63" y="223" type="curve" smooth="yes"/>
      <point x="63" y="71"/>
      <point x="125" y="-17"/>
    </contour>
    <contour>
      <point x="151" y="224" type="curve" smooth="yes"/>
      <point x="151" y="364"/>
      <point x="205" y="441"/>
      <point x="303" y="441" type="curve" smooth="yes"/>
      <point x="333" y="441"/>
      <point x="370" y="434"/>
      <point x="411" y="411" type="curve"/>
      <point x="411" y="369" type="line"/>
      <point x="383" y="183"/>
      <point x="315" y="63"/>
      <point x="241" y="63" type="curve" smooth="yes"/>
      <point x="174" y="63"/>
      <point x="151" y="131"/>
    </contour>
  </outline>
</glyph>
<glyph name="b" format="2">
  <advance width="598"/>
  <unicode hex="0062"/>
  <anchor x="335" y="0" name="bottom"/>
  <anchor x="335" y="250" name="center"/>
  <anchor x="335" y="500" name="top"/>
  <outline>
    <contour>
      <point x="143" y="-15" type="curve" smooth="yes"/>
      <point x="171" y="-15"/>
      <point x="186" y="-6"/>
      <point x="186" y="11" type="curve" smooth="yes"/>
      <point x="186" y="13" type="line"/>
      <point x="223" y="-7"/>
      <point x="265" y="-17"/>
      <point x="304" y="-17" type="curve" smooth="yes"/>
      <point x="455" y="-17"/>
      <point x="535" y="104"/>
      <point x="535" y="279" type="curve" smooth="yes"/>
      <point x="535" y="430"/>
      <point x="473" y="519"/>
      <point x="369" y="519" type="curve" smooth="yes"/>
      <point x="294" y="519"/>
      <point x="228" y="471"/>
      <point x="186" y="356" type="curve"/>
      <point x="186" y="864" type="line" smooth="yes"/>
      <point x="186" y="881"/>
      <point x="171" y="890"/>
      <point x="143" y="890" type="curve" smooth="yes"/>
      <point x="114" y="890"/>
      <point x="100" y="881"/>
      <point x="100" y="864" type="curve" smooth="yes"/>
      <point x="100" y="11" type="line" smooth="yes"/>
      <point x="100" y="-6"/>
      <point x="114" y="-15"/>
    </contour>
    <contour>
      <point x="186" y="90" type="curve"/>
      <point x="186" y="150" type="line"/>
      <point x="214" y="365"/>
      <point x="284" y="439"/>
      <point x="355" y="439" type="curve" smooth="yes"/>
      <point x="424" y="439"/>
      <point x="446" y="363"/>
      <point x="446" y="278" type="curve" smooth="yes"/>
      <point x="446" y="138"/>
      <point x="391" y="58"/>
      <point x="296" y="58" type="curve" smooth="yes"/>
      <point x="265" y="58"/>
      <point x="228" y="66"/>
    </contour>
  </outline>
</glyph>
<glyph name="c" format="2">
  <advance width="523"/>
  <unicode hex="0063"/>
  <anchor x="286" y="0" name="bottom"/>
  <anchor x="295" y="500" name="top"/>
  <outline>
    <contour>
      <point x="278" y="-19" type="curve" smooth="yes"/>
      <point x="368" y="-19"/>
      <point x="435" y="25"/>
      <point x="493" y="111" type="curve" smooth="yes"/>
      <point x="504" y="129"/>
      <point x="499" y="141"/>
      <point x="480" y="156" type="curve" smooth="yes"/>
      <point x="461" y="171"/>
      <point x="444" y="175"/>
      <point x="429" y="155" type="curve" smooth="yes"/>
      <point x="395" y="110"/>
      <point x="361" y="60"/>
      <point x="285" y="61" type="curve" smooth="yes"/>
      <point x="199" y="63"/>
      <point x="151" y="121"/>
      <point x="151" y="238" type="curve" smooth="yes"/>
      <point x="151" y="354"/>
      <point x="206" y="439"/>
      <point x="299" y="439" type="curve" smooth="yes"/>
      <point x="354" y="439"/>
      <point x="384" y="411"/>
      <point x="420" y="381" type="curve" smooth="yes"/>
      <point x="436" y="368"/>
      <point x="451" y="371"/>
      <point x="469" y="389" type="curve" smooth="yes"/>
      <point x="484" y="405"/>
      <point x="489" y="418"/>
      <point x="474" y="436" type="curve" smooth="yes"/>
      <point x="425" y="495"/>
      <point x="356" y="519"/>
      <point x="301" y="519" type="curve" smooth="yes"/>
      <point x="160" y="519"/>
      <point x="63" y="396"/>
      <point x="63" y="234" type="curve" smooth="yes"/>
      <point x="63" y="78"/>
      <point x="148" y="-19"/>
    </contour>
  </outline>
</glyph>
<glyph name="d" format="2">
  <advance width="633"/>
  <unicode hex="0064"/>
  <anchor x="278" y="0" name="bottom"/>
  <anchor x="438" y="698" name="center"/>
  <anchor x="256" y="500" name="top"/>
  <anchor x="474" y="908" name="topright"/>
  <outline>
    <contour>
      <point x="229" y="-17" type="curve" smooth="yes"/>
      <point x="309" y="-17"/>
      <point x="374" y="40"/>
      <point x="418" y="170" type="curve"/>
      <point x="418" y="148"/>
      <point x="418" y="126"/>
      <point x="418" y="104" type="curve" smooth="yes"/>
      <point x="418" y="23"/>
      <point x="453" y="-17"/>
      <point x="513" y="-17" type="curve" smooth="yes"/>
      <point x="568" y="-17"/>
      <point x="603" y="25"/>
      <point x="625" y="88" type="curve" smooth="yes"/>
      <point x="630" y="100"/>
      <point x="621" y="113"/>
      <point x="603" y="120" type="curve" smooth="yes"/>
      <point x="584" y="128"/>
      <point x="573" y="123"/>
      <point x="569" y="114" type="curve" smooth="yes"/>
      <point x="550" y="75"/>
      <point x="540" y="61"/>
      <point x="526" y="61" type="curve" smooth="yes"/>
      <point x="509" y="61"/>
      <point x="504" y="71"/>
      <point x="504" y="106" type="curve" smooth="yes"/>
      <point x="504" y="864" type="line" smooth="yes"/>
      <point x="504" y="881"/>
      <point x="489" y="890"/>
      <point x="460" y="890" type="curve" smooth="yes"/>
      <point x="431" y="890"/>
      <point x="418" y="881"/>
      <point x="418" y="864" type="curve" smooth="yes"/>
      <point x="418" y="486" type="line"/>
      <point x="378" y="508"/>
      <point x="335" y="519"/>
      <point x="289" y="519" type="curve" smooth="yes"/>
      <point x="143" y="519"/>
      <point x="63" y="398"/>
      <point x="63" y="223" type="curve" smooth="yes"/>
      <point x="63" y="71"/>
      <point x="125" y="-17"/>
    </contour>
    <contour>
      <point x="151" y="224" type="curve" smooth="yes"/>
      <point x="151" y="364"/>
      <point x="205" y="441"/>
      <point x="303" y="441" type="curve" smooth="yes"/>
      <point x="334" y="441"/>
      <point x="374" y="434"/>
      <point x="418" y="409" type="curve"/>
      <point x="418" y="384" type="line"/>
      <point x="383" y="156"/>
      <point x="318" y="63"/>
      <point x="243" y="63" type="curve" smooth="yes"/>
      <point x="174" y="63"/>
      <point x="151" y="139"/>
    </contour>
  </outline>
</glyph>
<glyph name="l" format="2">
  <advance width="307"/>
  <unicode hex="006C"/>
  <anchor x="145" y="438" name="CAT"/>
  <anchor x="199" y="0" name="bottom"/>
  <anchor x="139" y="438" name="center"/>
  <anchor x="131" y="838" name="top"/>
  <anchor x="150" y="875" name="topright"/>
  <outline>
    <contour>
      <point x="189" y="-17" type="curve" smooth="yes"/>
      <point x="240" y="-17"/>
      <point x="276" y="23"/>
      <point x="299" y="89" type="curve" smooth="yes"/>
      <point x="304" y="101"/>
      <point x="296" y="114"/>
      <point x="277" y="120" type="curve" smooth="yes"/>
      <point x="259" y="126"/>
      <point x="247" y="123"/>
      <point x="242" y="111" type="curve" smooth="yes"/>
      <point x="226" y="75"/>
      <point x="217" y="61"/>
      <point x="204" y="61" type="curve" smooth="yes"/>
      <point x="186" y="61"/>
      <point x="181" y="71"/>
      <point x="181" y="106" type="curve" smooth="yes"/>
      <point x="181" y="864" type="line" smooth="yes"/>
      <point x="181" y="881"/>
      <point x="166" y="890"/>
      <point x="137" y="890" type="curve" smooth="yes"/>
      <point x="109" y="890"/>
      <point x="95" y="881"/>
      <point x="95" y="864" type="curve" smooth="yes"/>
      <point x="95" y="93" type="line" smooth="yes"/>
      <point x="95" y="20"/>
      <point x="127" y="-17"/>
    </contour>
  </outline>
</glyph>
<glyph name="q" format="2">
  <advance width="598"/>
  <unicode hex="0071"/>
  <outline>
    <contour>
      <point x="229" y="-17" type="curve" smooth="yes"/>
      <point x="308" y="-17"/>
      <point x="374" y="38"/>
      <point x="418" y="164" type="curve"/>
      <point x="418" y="-364" type="line" smooth="yes"/>
      <point x="418" y="-381"/>
      <point x="431" y="-390"/>
      <point x="460" y="-390" type="curve" smooth="yes"/>
      <point x="489" y="-390"/>
      <point x="504" y="-381"/>
      <point x="504" y="-364" type="curve" smooth="yes"/>
      <point x="504" y="489" type="line" smooth="yes"/>
      <point x="504" y="506"/>
      <point x="489" y="515"/>
      <point x="460" y="515" type="curve" smooth="yes"/>
      <point x="431" y="515"/>
      <point x="418" y="506"/>
      <point x="418" y="491" type="curve" smooth="yes"/>
      <point x="418" y="486" type="line"/>
      <point x="378" y="508"/>
      <point x="335" y="519"/>
      <point x="289" y="519" type="curve" smooth="yes"/>
      <point x="143" y="519"/>
      <point x="63" y="398"/>
      <point x="63" y="223" type="curve" smooth="yes"/>
      <point x="63" y="71"/>
      <point x="125" y="-17"/>
    </contour>
    <contour>
      <point x="151" y="224" type="curve" smooth="yes"/>
      <point x="151" y="364"/>
      <point x="205" y="441"/>
      <point x="303" y="441" type="curve" smooth="yes"/>
      <point x="334" y="441"/>
      <point x="374" y="435"/>
      <point x="418" y="410" type="curve"/>
      <point x="418" y="374" type="line"/>
      <point x="383" y="154"/>
      <point x="316" y="63"/>
      <point x="243" y="63" type="curve" smooth="yes"/>
      <point x="174" y="63"/>
      <point x="151" y="139"/>
    </contour>
  </outline>
</glyph>
<glyph name="v" format="2">
  <advance width="509"/>
  <unicode hex="0076"/>
  <outline>
    <contour>
      <point x="254" y="-15" type="curve" smooth="yes"/>
      <point x="283" y="-15"/>
      <point x="294" y="-5"/>
      <point x="300" y="11" type="curve" smooth="yes"/>
      <point x="483" y="465" type="line" smooth="yes"/>
      <point x="494" y="494"/>
      <point x="479" y="515"/>
      <point x="441" y="515" type="curve" smooth="yes"/>
      <point x="421" y="515"/>
      <point x="410" y="508"/>
      <point x="403" y="489" type="curve" smooth="yes"/>
      <point x="256" y="109" type="line"/>
      <point x="108" y="489" type="line" smooth="yes"/>
      <point x="100" y="508"/>
      <point x="90" y="515"/>
      <point x="70" y="515" type="curve" smooth="yes"/>
      <point x="33" y="515"/>
      <point x="14" y="491"/>
      <point x="25" y="465" type="curve" smooth="yes"/>
      <point x="208" y="11" type="line" smooth="yes"/>
      <point x="214" y="-5"/>
      <point x="225" y="-15"/>
    </contour>
  </outline>
</glyph>
<glyph name="ordmasculine" format="2">
  <advance width="454"/>
  <unicode hex="00BA"/>
  <outline>
    <contour>
      <point x="228" y="485" type="curve" smooth="yes"/>
      <point x="330" y="485"/>
      <point x="409" y="574"/>
      <point x="409" y="698" type="curve" smooth="yes"/>
      <point x="409" y="811"/>
      <point x="331" y="900"/>
      <point x="228" y="900" type="curve" smooth="yes"/>
      <point x="121" y="900"/>
      <point x="45" y="811"/>
      <point x="45" y="693" type="curve" smooth="yes"/>
      <point x="45" y="556"/>
      <point x="125" y="485"/>
    </contour>
    <contour>
      <point x="228" y="559" type="curve" smooth="yes"/>
      <point x="170" y="559"/>
      <point x="126" y="615"/>
      <point x="126" y="693" type="curve" smooth="yes"/>
      <point x="126" y="770"/>
      <point x="170" y="826"/>
      <point x="228" y="826" type="curve" smooth="yes"/>
      <point x="284" y="826"/>
      <point x="328" y="770"/>
      <point x="328" y="698" type="curve" smooth="yes"/>
      <point x="328" y="615"/>
      <point x="284" y="559"/>
    </contour>
  </outline>
</glyph>
<glyph name="thorn" format="2">
  <advance width="598"/>
  <unicode hex="00FE"/>
  <outline>
    <contour>
      <point x="143" y="-390" type="curve" smooth="yes"/>
      <point x="171" y="-390"/>
      <point x="186" y="-381"/>
      <point x="186" y="-364" type="curve" smooth="yes"/>
      <point x="186" y="13" type="line"/>
      <point x="224" y="-7"/>
      <point x="261" y="-17"/>
      <point x="298" y="-17" type="curve" smooth="yes"/>
      <point x="456" y="-17"/>
      <point x="535" y="104"/>
      <point x="535" y="279" type="curve" smooth="yes"/>
      <point x="535" y="430"/>
      <point x="473" y="519"/>
      <point x="369" y="519" type="curve" smooth="yes"/>
      <point x="294" y="519"/>
      <point x="230" y="473"/>
      <point x="186" y="354" type="curve"/>
      <point x="186" y="864" type="line" smooth="yes"/>
      <point x="186" y="881"/>
      <point x="171" y="890"/>
      <point x="143" y="890" type="curve" smooth="yes"/>
      <point x="114" y="890"/>
      <point x="100" y="881"/>
      <point x="100" y="864" type="curve" smooth="yes"/>
      <point x="100" y="-364" type="line" smooth="yes"/>
      <point x="100" y="-381"/>
      <point x="114" y="-390"/>
    </contour>
    <contour>
      <point x="186" y="90" type="curve"/>
      <point x="186" y="166" type="line"/>
      <point x="221" y="369"/>
      <point x="284" y="439"/>
      <point x="354" y="439" type="curve" smooth="yes"/>
      <point x="424" y="439"/>
      <point x="446" y="363"/>
      <point x="446" y="278" type="curve" smooth="yes"/>
      <point x="446" y="138"/>
      <point x="391" y="58"/>
      <point x="294" y="58" type="curve" smooth="yes"/>
      <point x="266" y="58"/>
      <point x="226" y="66"/>
    </contour>
  </outline>
</glyph>
<glyph name="Eng" format="2">
  <advance width="888"/>
  <unicode hex="014A"/>
  <outline>
    <contour>
      <point x="763" y="-109" type="curve" smooth="yes"/>
      <point x="763" y="863" type="line" smooth="yes"/>
      <point x="763" y="881"/>
      <point x="748" y="890"/>
      <point x="719" y="890" type="curve" smooth="yes"/>
      <point x="690" y="890"/>
      <point x="675" y="881"/>
      <point x="675" y="863" type="curve" smooth="yes"/>
      <point x="675" y="171" type="line"/>
      <point x="219" y="863" type="line" smooth="yes"/>
      <point x="206" y="881"/>
      <point x="193" y="890"/>
      <point x="169" y="890" type="curve" smooth="yes"/>
      <point x="140" y="890"/>
      <point x="125" y="881"/>
      <point x="125" y="863" type="curve" smooth="yes"/>
      <point x="125" y="14" type="line" smooth="yes"/>
      <point x="125" y="-5"/>
      <point x="140" y="-14"/>
      <point x="169" y="-14" type="curve" smooth="yes"/>
      <point x="198" y="-14"/>
      <point x="213" y="-5"/>
      <point x="213" y="14" type="curve" smooth="yes"/>
      <point x="213" y="716" type="line"/>
      <point x="676" y="11" type="line"/>
      <point x="676" y="-112" type="line" smooth="yes"/>
      <point x="676" y="-155"/>
      <point x="669" y="-180"/>
      <point x="640" y="-180" type="curve" smooth="yes"/>
      <point x="614" y="-180"/>
      <point x="593" y="-160"/>
      <point x="574" y="-137" type="curve" smooth="yes"/>
      <point x="560" y="-121"/>
      <point x="545" y="-120"/>
      <point x="523" y="-136" type="curve" smooth="yes"/>
      <point x="506" y="-147"/>
      <point x="495" y="-166"/>
      <point x="509" y="-185" type="curve" smooth="yes"/>
      <point x="536" y="-225"/>
      <point x="586" y="-255"/>
      <point x="644" y="-255" type="curve" smooth="yes"/>
      <point x="704" y="-255"/>
      <point x="763" y="-220"/>
    </contour>
  </outline>
</glyph>
<glyph name="eng" format="2">
  <advance width="613"/>
  <unicode hex="014B"/>
  <outline>
    <contour>
      <point x="521" y="-109" type="curve" smooth="yes"/>
      <point x="521" y="369" type="line" smooth="yes"/>
      <point x="521" y="484"/>
      <point x="459" y="519"/>
      <point x="381" y="519" type="curve" smooth="yes"/>
      <point x="315" y="519"/>
      <point x="231" y="474"/>
      <point x="180" y="318" type="curve"/>
      <point x="180" y="489" type="line" smooth="yes"/>
      <point x="180" y="506"/>
      <point x="165" y="515"/>
      <point x="136" y="515" type="curve" smooth="yes"/>
      <point x="108" y="515"/>
      <point x="94" y="506"/>
      <point x="94" y="489" type="curve" smooth="yes"/>
      <point x="94" y="11" type="line" smooth="yes"/>
      <point x="94" y="-6"/>
      <point x="108" y="-15"/>
      <point x="136" y="-15" type="curve" smooth="yes"/>
      <point x="165" y="-15"/>
      <point x="180" y="-6"/>
      <point x="180" y="11" type="curve" smooth="yes"/>
      <point x="180" y="85" type="line"/>
      <point x="209" y="305"/>
      <point x="276" y="440"/>
      <point x="370" y="440" type="curve" smooth="yes"/>
      <point x="419" y="440"/>
      <point x="435" y="414"/>
      <point x="435" y="359" type="curve" smooth="yes"/>
      <point x="435" y="-112" type="line" smooth="yes"/>
      <point x="435" y="-155"/>
      <point x="428" y="-180"/>
      <point x="399" y="-180" type="curve" smooth="yes"/>
      <point x="373" y="-180"/>
      <point x="351" y="-160"/>
      <point x="333" y="-137" type="curve" smooth="yes"/>
      <point x="319" y="-121"/>
      <point x="304" y="-120"/>
      <point x="281" y="-136" type="curve" smooth="yes"/>
      <point x="265" y="-147"/>
      <point x="254" y="-166"/>
      <point x="268" y="-185" type="curve" smooth="yes"/>
      <point x="295" y="-225"/>
      <point x="345" y="-255"/>
      <point x="403" y="-255" type="curve" smooth="yes"/>
      <point x="463" y="-255"/>
      <point x="521" y="-220"/>
    </contour>
  </outline>
</glyph>
<glyph name="oe" format="2">
  <advance width="901"/>
  <unicode hex="0153"/>
  <anchor x="483" y="500" name="top"/>
  <outline>
    <contour>
      <point x="295" y="-19" type="curve" smooth="yes"/>
      <point x="421" y="-19"/>
      <point x="514" y="94"/>
      <point x="514" y="255" type="curve" smooth="yes"/>
      <point x="514" y="406"/>
      <point x="421" y="519"/>
      <point x="295" y="519" type="curve" smooth="yes"/>
      <point x="160" y="519"/>
      <point x="63" y="406"/>
      <point x="63" y="250" type="curve" smooth="yes"/>
      <point x="63" y="78"/>
      <point x="160" y="-19"/>
    </contour>
    <contour>
      <point x="295" y="61" type="curve" smooth="yes"/>
      <point x="211" y="61"/>
      <point x="151" y="140"/>
      <point x="151" y="250" type="curve" smooth="yes"/>
      <point x="151" y="360"/>
      <point x="211" y="439"/>
      <point x="295" y="439" type="curve" smooth="yes"/>
      <point x="378" y="439"/>
      <point x="438" y="360"/>
      <point x="438" y="255" type="curve" smooth="yes"/>
      <point x="438" y="140"/>
      <point x="378" y="61"/>
    </contour>
    <contour>
      <point x="646" y="-19" type="curve" smooth="yes"/>
      <point x="734" y="-19"/>
      <point x="801" y="21"/>
      <point x="859" y="108" type="curve" smooth="yes"/>
      <point x="870" y="125"/>
      <point x="865" y="138"/>
      <point x="846" y="153" type="curve" smooth="yes"/>
      <point x="828" y="168"/>
      <point x="810" y="171"/>
      <point x="795" y="151" type="curve" smooth="yes"/>
      <point x="761" y="106"/>
      <point x="730" y="61"/>
      <point x="656" y="61" type="curve" smooth="yes"/>
      <point x="574" y="61"/>
      <point x="526" y="121"/>
      <point x="526" y="238" type="curve" smooth="yes"/>
      <point x="526" y="354"/>
      <point x="594" y="440"/>
      <point x="683" y="440" type="curve" smooth="yes"/>
      <point x="724" y="440"/>
      <point x="758" y="424"/>
      <point x="758" y="381" type="curve" smooth="yes"/>
      <point x="758" y="300"/>
      <point x="624" y="251"/>
      <point x="506" y="225" type="curve"/>
      <point x="511" y="156" type="line"/>
      <point x="683" y="188"/>
      <point x="848" y="265"/>
      <point x="848" y="391" type="curve" smooth="yes"/>
      <point x="848" y="478"/>
      <point x="780" y="519"/>
      <point x="698" y="519" type="curve" smooth="yes"/>
      <point x="540" y="519"/>
      <point x="450" y="381"/>
      <point x="450" y="223" type="curve" smooth="yes"/>
      <point x="450" y="75"/>
      <point x="528" y="-19"/>
    </contour>
  </outline>
</glyph>
<glyph name="Ohorn" format="2">
  <advance width="925"/>
  <unicode hex="01A0"/>
  <anchor x="463" y="0" name="bottom"/>
  <anchor x="463" y="438" name="center"/>
  <anchor x="591" y="6" name="ogonek"/>
  <anchor x="463" y="838" name="top"/>
  <outline>
    <contour>
      <point x="464" y="-19" type="curve" smooth="yes"/>
      <point x="696" y="-19"/>
      <point x="844" y="173"/>
      <point x="844" y="436" type="curve" smooth="yes"/>
      <point x="844" y="608"/>
      <point x="781" y="749"/>
      <point x="673" y="826" type="curve"/>
      <point x="814" y="862"/>
      <point x="828" y="960"/>
      <point x="810" y="1056" type="curve" smooth="yes"/>
      <point x="801" y="1101"/>
      <point x="716" y="1094"/>
      <point x="722" y="1049" type="curve" smooth="yes"/>
      <point x="737" y="948"/>
      <point x="738" y="882"/>
      <point x="571" y="875" type="curve"/>
      <point x="538" y="885"/>
      <point x="501.994" y="890"/>
      <point x="464" y="890" type="curve" smooth="yes"/>
      <point x="230" y="890"/>
      <point x="81" y="700"/>
      <point x="81" y="436" type="curve" smooth="yes"/>
      <point x="81" y="173"/>
      <point x="230" y="-19"/>
    </contour>
    <contour>
      <point x="464" y="66" type="curve" smooth="yes"/>
      <point x="296" y="66"/>
      <point x="175" y="201"/>
      <point x="175" y="436" type="curve" smooth="yes"/>
      <point x="175" y="670"/>
      <point x="296" y="805"/>
      <point x="464" y="805" type="curve" smooth="yes"/>
      <point x="630" y="805"/>
      <point x="750" y="670"/>
      <point x="750" y="436" type="curve" smooth="yes"/>
      <point x="750" y="201"/>
      <point x="630" y="66"/>
    </contour>
  </outline>
</glyph>
<glyph name="ohorn" format="2">
  <advance width="589"/>
  <unicode hex="01A1"/>
  <guideline x="545" y="713" angle="0"/>
  <anchor x="295" y="0" name="bottom"/>
  <anchor x="295" y="250" name="center"/>
  <anchor x="385" y="0" name="ogonek"/>
  <anchor x="295" y="500" name="top"/>
  <outline>
    <contour>
      <point x="295" y="-19" type="curve" smooth="yes"/>
      <point x="429" y="-19"/>
      <point x="526" y="94"/>
      <point x="526" y="255" type="curve" smooth="yes"/>
      <point x="526" y="336"/>
      <point x="498" y="405"/>
      <point x="452" y="453" type="curve"/>
      <point x="570" y="483"/>
      <point x="591" y="579"/>
      <point x="574" y="674" type="curve" smooth="yes"/>
      <point x="564" y="729"/>
      <point x="478" y="722"/>
      <point x="486" y="667" type="curve" smooth="yes"/>
      <point x="500" y="573"/>
      <point x="501" y="517"/>
      <point x="370" y="506" type="curve"/>
      <point x="346" y="515"/>
      <point x="321" y="519"/>
      <point x="295" y="519" type="curve" smooth="yes"/>
      <point x="160" y="519"/>
      <point x="63" y="406"/>
      <point x="63" y="250" type="curve" smooth="yes"/>
      <point x="63" y="78"/>
      <point x="160" y="-19"/>
    </contour>
    <contour>
      <point x="295" y="61" type="curve" smooth="yes"/>
      <point x="211" y="61"/>
      <point x="151" y="140"/>
      <point x="151" y="250" type="curve" smooth="yes"/>
      <point x="151" y="360"/>
      <point x="211" y="439"/>
      <point x="295" y="439" type="curve" smooth="yes"/>
      <point x="378" y="439"/>
      <point x="438" y="360"/>
      <point x="438" y="255" type="curve" smooth="yes"/>
      <point x="438" y="140"/>
      <point x="378" y="61"/>
    </contour>
  </outline>
</glyph>
<glyph name="caroncomb" format="2">
  <unicode hex="030C"/>
  <anchor x="0" y="500" name="_top"/>
  <anchor x="0" y="818" name="top"/>
  <outline>
    <contour>
      <point x="143" y="845" type="curve" smooth="yes"/>
      <point x="134" y="845"/>
      <point x="126" y="840"/>
      <point x="118" y="833" type="curve" smooth="yes"/>
      <point x="0" y="716" type="line"/>
      <point x="-117" y="833" type="line" smooth="yes"/>
      <point x="-126" y="840"/>
      <point x="-134" y="845"/>
      <point x="-142" y="845" type="curve" smooth="yes"/>
      <point x="-155" y="845"/>
      <point x="-177" y="825"/>
      <point x="-177" y="811" type="curve" smooth="yes"/>
      <point x="-177" y="808"/>
      <point x="-177" y="804"/>
      <point x="-171" y="795" type="curve" smooth="yes"/>
      <point x="-42" y="636" type="line" smooth="yes"/>
      <point x="-35" y="628"/>
      <point x="-25" y="616"/>
      <point x="0" y="616" type="curve" smooth="yes"/>
      <point x="26" y="616"/>
      <point x="36" y="628"/>
      <point x="44" y="636" type="curve" smooth="yes"/>
      <point x="171" y="795" type="line" smooth="yes"/>
      <point x="178" y="804"/>
      <point x="178" y="808"/>
      <point x="178" y="811" type="curve" smooth="yes"/>
      <point x="178" y="825"/>
      <point x="155" y="845"/>
    </contour>
  </outline>
</glyph>
<glyph name="horncomb" format="2">
  <unicode hex="031B"/>
  <anchor x="0" y="514" name="_topright"/>
  <outline>
    <contour>
      <point x="214" y="681" type="curve" smooth="yes"/>
      <point x="205" y="726"/>
      <point x="120" y="719"/>
      <point x="126" y="674" type="curve" smooth="yes"/>
      <point x="140" y="580"/>
      <point x="142" y="524"/>
      <point x="0" y="514" type="curve"/>
      <point x="0" y="451" type="line"/>
      <point x="200" y="451"/>
      <point x="235" y="569"/>
    </contour>
  </outline>
</glyph>
<glyph name="quoteleft" format="2">
  <advance width="181"/>
  <unicode hex="2018"/>
  <outline>
    <contour>
      <point x="93" y="648" type="curve" smooth="yes"/>
      <point x="121" y="648"/>
      <point x="140" y="660"/>
      <point x="140" y="685" type="curve" smooth="yes"/>
      <point x="140" y="778"/>
      <point x="145" y="805"/>
      <point x="174" y="864" type="curve" smooth="yes"/>
      <point x="180" y="875"/>
      <point x="184" y="884"/>
      <point x="184" y="889" type="curve" smooth="yes"/>
      <point x="184" y="906"/>
      <point x="164" y="920"/>
      <point x="145" y="920" type="curve" smooth="yes"/>
      <point x="131" y="920"/>
      <point x="123" y="911"/>
      <point x="116" y="904" type="curve" smooth="yes"/>
      <point x="64" y="840"/>
      <point x="44" y="758"/>
      <point x="44" y="688" type="curve" smooth="yes"/>
      <point x="44" y="663"/>
      <point x="63" y="648"/>
    </contour>
  </outline>
</glyph>
<glyph name="guilsinglleft" format="2">
  <advance width="475"/>
  <unicode hex="2039"/>
  <outline>
    <contour>
      <point x="330" y="-14" type="curve" smooth="yes"/>
      <point x="366" y="-14"/>
      <point x="385" y="15"/>
      <point x="365" y="40" type="curve" smooth="yes"/>
      <point x="198" y="251" type="line"/>
      <point x="365" y="461" type="line" smooth="yes"/>
      <point x="385" y="486"/>
      <point x="366" y="515"/>
      <point x="330" y="515" type="curve" smooth="yes"/>
      <point x="310" y="515"/>
      <point x="293" y="509"/>
      <point x="276" y="488" type="curve" smooth="yes"/>
      <point x="118" y="289" type="line" smooth="yes"/>
      <point x="99" y="266"/>
      <point x="94" y="259"/>
      <point x="94" y="251" type="curve" smooth="yes"/>
      <point x="94" y="244"/>
      <point x="99" y="236"/>
      <point x="118" y="214" type="curve" smooth="yes"/>
      <point x="276" y="14" type="line" smooth="yes"/>
      <point x="293" y="-7"/>
      <point x="310" y="-14"/>
    </contour>
  </outline>
</glyph>
<glyph name="A.cur" format="2">
  <advance width="979"/>
  <anchor x="354" y="0" name="bottom"/>
  <anchor x="881" y="13" name="ogonek"/>
  <anchor x="459" y="838" name="top"/>
  <outline>
    <contour>
      <point x="358" y="-17" type="curve" smooth="yes"/>
      <point x="490" y="-17"/>
      <point x="615" y="105"/>
      <point x="688" y="290" type="curve"/>
      <point x="688" y="140" type="line" smooth="yes"/>
      <point x="688" y="34"/>
      <point x="708" y="-17"/>
      <point x="803" y="-17" type="curve" smooth="yes"/>
      <point x="851" y="-17"/>
      <point x="920" y="34"/>
      <point x="958" y="126" type="curve" smooth="yes"/>
      <point x="965" y="149"/>
      <point x="958" y="163"/>
      <point x="940" y="169" type="curve" smooth="yes"/>
      <point x="915" y="179"/>
      <point x="898" y="175"/>
      <point x="888" y="154" type="curve" smooth="yes"/>
      <point x="864" y="103"/>
      <point x="839" y="68"/>
      <point x="810" y="68" type="curve" smooth="yes"/>
      <point x="785" y="68"/>
      <point x="775" y="86"/>
      <point x="775" y="151" type="curve" smooth="yes"/>
      <point x="776" y="540" type="line" smooth="yes"/>
      <point x="776" y="559"/>
      <point x="761" y="568"/>
      <point x="733" y="568" type="curve" smooth="yes"/>
      <point x="703" y="568"/>
      <point x="688" y="559"/>
      <point x="688" y="540" type="curve"/>
      <point x="648" y="266"/>
      <point x="508" y="68"/>
      <point x="359" y="68" type="curve" smooth="yes"/>
      <point x="221" y="68"/>
      <point x="148" y="179"/>
      <point x="148" y="391" type="curve" smooth="yes"/>
      <point x="148" y="644"/>
      <point x="265" y="805"/>
      <point x="459" y="805" type="curve" smooth="yes"/>
      <point x="560" y="805"/>
      <point x="626" y="776"/>
      <point x="689" y="719" type="curve" smooth="yes"/>
      <point x="711" y="698"/>
      <point x="721" y="691"/>
      <point x="743" y="705" type="curve" smooth="yes"/>
      <point x="771" y="724"/>
      <point x="770" y="745"/>
      <point x="753" y="765" type="curve" smooth="yes"/>
      <point x="685" y="844"/>
      <point x="595" y="890"/>
      <point x="459" y="890" type="curve" smooth="yes"/>
      <point x="214" y="890"/>
      <point x="56" y="694"/>
      <point x="56" y="391" type="curve" smooth="yes"/>
      <point x="56" y="130"/>
      <point x="168" y="-17"/>
    </contour>
  </outline>
</glyph>
<glyph name="AE.cur.ini" format="2">
  <advance width="1276"/>
  <anchor x="1276" y="0" name="cnct"/>
  <anchor x="746" y="838" name="top"/>
  <outline>
    <contour>
      <point x="145" y="-17" type="curve" smooth="yes"/>
      <point x="284" y="-17"/>
      <point x="330" y="91"/>
      <point x="623" y="848" type="curve"/>
      <point x="589" y="841" type="line"/>
      <point x="601" y="610"/>
      <point x="624" y="414"/>
      <point x="674" y="158" type="curve" smooth="yes"/>
      <point x="679" y="134"/>
      <point x="696" y="124"/>
      <point x="723" y="130" type="curve" smooth="yes"/>
      <point x="753" y="138"/>
      <point x="763" y="151"/>
      <point x="758" y="175" type="curve" smooth="yes"/>
      <point x="709" y="431"/>
      <point x="683" y="624"/>
      <point x="673" y="834" type="curve" smooth="yes"/>
      <point x="670" y="875"/>
      <point x="650" y="890"/>
      <point x="611" y="890" type="curve" smooth="yes"/>
      <point x="575" y="890"/>
      <point x="550" y="881"/>
      <point x="535" y="843" type="curve" smooth="yes"/>
      <point x="269" y="163"/>
      <point x="218" y="64"/>
      <point x="145" y="64" type="curve" smooth="yes"/>
      <point x="126" y="64"/>
      <point x="111" y="71"/>
      <point x="93" y="84" type="curve" smooth="yes"/>
      <point x="74" y="96"/>
      <point x="61" y="96"/>
      <point x="46" y="79" type="curve" smooth="yes"/>
      <point x="29" y="60"/>
      <point x="29" y="41"/>
      <point x="44" y="26" type="curve" smooth="yes"/>
      <point x="70" y="-1"/>
      <point x="104" y="-17"/>
    </contour>
    <contour>
      <point x="335" y="263" type="line"/>
      <point x="701" y="263" type="line"/>
      <point x="689" y="343" type="line"/>
      <point x="366" y="343" type="line"/>
    </contour>
    <contour>
      <point x="940" y="-17" type="curve" smooth="yes"/>
      <point x="980" y="-17"/>
      <point x="980" y="58"/>
      <point x="940" y="58" type="curve" smooth="yes"/>
      <point x="819" y="58"/>
      <point x="755" y="124"/>
      <point x="755" y="228" type="curve" smooth="yes"/>
      <point x="755" y="358"/>
      <point x="860" y="419"/>
      <point x="983" y="419" type="curve" smooth="yes"/>
      <point x="1090" y="419" type="line" smooth="yes"/>
      <point x="1110" y="419"/>
      <point x="1118" y="429"/>
      <point x="1118" y="459" type="curve" smooth="yes"/>
      <point x="1118" y="489"/>
      <point x="1110" y="499"/>
      <point x="1090" y="499" type="curve" smooth="yes"/>
      <point x="979" y="499" type="line" smooth="yes"/>
      <point x="875" y="499"/>
      <point x="814" y="568"/>
      <point x="814" y="659" type="curve" smooth="yes"/>
      <point x="814" y="753"/>
      <point x="880" y="803"/>
      <point x="979" y="803" type="curve" smooth="yes"/>
      <point x="1050" y="803"/>
      <point x="1111" y="774"/>
      <point x="1148" y="739" type="curve" smooth="yes"/>
      <point x="1168" y="720"/>
      <point x="1183" y="716"/>
      <point x="1201" y="731" type="curve" smooth="yes"/>
      <point x="1225" y="750"/>
      <point x="1226" y="768"/>
      <point x="1201" y="795" type="curve" smooth="yes"/>
      <point x="1149" y="855"/>
      <point x="1068" y="890"/>
      <point x="981" y="890" type="curve" smooth="yes"/>
      <point x="840" y="890"/>
      <point x="724" y="800"/>
      <point x="724" y="658" type="curve" smooth="yes"/>
      <point x="724" y="568"/>
      <point x="773" y="493"/>
      <point x="871" y="463" type="curve"/>
      <point x="754" y="438"/>
      <point x="664" y="361"/>
      <point x="664" y="234" type="curve" smooth="yes"/>
      <point x="664" y="79"/>
      <point x="765" y="-17"/>
    </contour>
  </outline>
</glyph>
<glyph name="C.cur.ini" format="2">
  <advance width="775"/>
  <anchor x="440" y="0" name="bottom"/>
  <anchor x="775" y="0" name="cnct"/>
  <anchor x="456" y="838" name="top"/>
  <outline>
    <contour>
      <point x="439" y="-17" type="curve" smooth="yes"/>
      <point x="479" y="-17"/>
      <point x="479" y="58"/>
      <point x="439" y="58" type="curve" smooth="yes"/>
      <point x="273" y="58"/>
      <point x="175" y="183"/>
      <point x="175" y="414" type="curve" smooth="yes"/>
      <point x="175" y="658"/>
      <point x="296" y="805"/>
      <point x="464" y="805" type="curve" smooth="yes"/>
      <point x="544" y="805"/>
      <point x="605" y="776"/>
      <point x="656" y="725" type="curve" smooth="yes"/>
      <point x="669" y="713"/>
      <point x="684" y="718"/>
      <point x="703" y="734" type="curve" smooth="yes"/>
      <point x="716" y="746"/>
      <point x="725" y="756"/>
      <point x="714" y="773" type="curve" smooth="yes"/>
      <point x="648" y="868"/>
      <point x="555" y="890"/>
      <point x="464" y="890" type="curve" smooth="yes"/>
      <point x="230" y="890"/>
      <point x="81" y="688"/>
      <point x="81" y="414" type="curve" smooth="yes"/>
      <point x="81" y="146"/>
      <point x="214" y="-17"/>
    </contour>
  </outline>
</glyph>
<glyph name="F.cur" format="2">
  <advance width="741"/>
  <outline>
    <contour>
      <point x="210" y="-17" type="curve" smooth="yes"/>
      <point x="306" y="-17"/>
      <point x="351" y="49"/>
      <point x="351" y="160" type="curve" smooth="yes"/>
      <point x="351" y="398" type="line"/>
      <point x="641" y="398" type="line" smooth="yes"/>
      <point x="659" y="398"/>
      <point x="666" y="411"/>
      <point x="666" y="438" type="curve" smooth="yes"/>
      <point x="666" y="464"/>
      <point x="659" y="478"/>
      <point x="641" y="478" type="curve" smooth="yes"/>
      <point x="351" y="478" type="line"/>
      <point x="351" y="795" type="line"/>
      <point x="704" y="795" type="line" smooth="yes"/>
      <point x="721" y="795"/>
      <point x="729" y="809"/>
      <point x="729" y="835" type="curve" smooth="yes"/>
      <point x="729" y="861"/>
      <point x="721" y="875"/>
      <point x="704" y="875" type="curve" smooth="yes"/>
      <point x="213" y="875" type="line" smooth="yes"/>
      <point x="81" y="875"/>
      <point x="23" y="763"/>
      <point x="6" y="694" type="curve" smooth="yes"/>
      <point x="0" y="668"/>
      <point x="6" y="655"/>
      <point x="34" y="650" type="curve" smooth="yes"/>
      <point x="59" y="645"/>
      <point x="70" y="655"/>
      <point x="80" y="679" type="curve" smooth="yes"/>
      <point x="101" y="730"/>
      <point x="138" y="795"/>
      <point x="213" y="795" type="curve" smooth="yes"/>
      <point x="264" y="795" type="line"/>
      <point x="264" y="165" type="line" smooth="yes"/>
      <point x="264" y="91"/>
      <point x="249" y="68"/>
      <point x="209" y="68" type="curve" smooth="yes"/>
      <point x="171" y="68"/>
      <point x="140" y="86"/>
      <point x="105" y="149" type="curve" smooth="yes"/>
      <point x="94" y="170"/>
      <point x="78" y="179"/>
      <point x="55" y="169" type="curve" smooth="yes"/>
      <point x="24" y="155"/>
      <point x="29" y="135"/>
      <point x="40" y="110" type="curve" smooth="yes"/>
      <point x="64" y="56"/>
      <point x="126" y="-17"/>
    </contour>
  </outline>
</glyph>
<glyph name="F.dec" format="2">
  <advance width="939"/>
  <outline>
    <contour>
      <point x="396" y="-17" type="curve" smooth="yes"/>
      <point x="568" y="-17"/>
      <point x="671" y="118"/>
      <point x="671" y="404" type="curve" smooth="yes"/>
      <point x="671" y="410" type="line"/>
      <point x="794" y="410" type="line" smooth="yes"/>
      <point x="811" y="410"/>
      <point x="819" y="424"/>
      <point x="819" y="450" type="curve" smooth="yes"/>
      <point x="819" y="476"/>
      <point x="811" y="490"/>
      <point x="794" y="490" type="curve" smooth="yes"/>
      <point x="674" y="490" type="line"/>
      <point x="674" y="755" type="line"/>
      <point x="685" y="754"/>
      <point x="698" y="754"/>
      <point x="711" y="754" type="curve" smooth="yes"/>
      <point x="779" y="754"/>
      <point x="835" y="765"/>
      <point x="916" y="808" type="curve" smooth="yes"/>
      <point x="939" y="820"/>
      <point x="933" y="846"/>
      <point x="925" y="860" type="curve" smooth="yes"/>
      <point x="911" y="885"/>
      <point x="891" y="885"/>
      <point x="880" y="879" type="curve" smooth="yes"/>
      <point x="826" y="849"/>
      <point x="768" y="835"/>
      <point x="714" y="835" type="curve" smooth="yes"/>
      <point x="608" y="835"/>
      <point x="571" y="890"/>
      <point x="434" y="890" type="curve" smooth="yes"/>
      <point x="310" y="890"/>
      <point x="194" y="821"/>
      <point x="121" y="735" type="curve" smooth="yes"/>
      <point x="108" y="719"/>
      <point x="113" y="698"/>
      <point x="140" y="681" type="curve" smooth="yes"/>
      <point x="164" y="668"/>
      <point x="181" y="671"/>
      <point x="196" y="689" type="curve" smooth="yes"/>
      <point x="254" y="759"/>
      <point x="351" y="809"/>
      <point x="435" y="809" type="curve" smooth="yes"/>
      <point x="501" y="809"/>
      <point x="541" y="791"/>
      <point x="586" y="775" type="curve"/>
      <point x="586" y="490" type="line"/>
      <point x="438" y="490" type="line" smooth="yes"/>
      <point x="420" y="490"/>
      <point x="413" y="476"/>
      <point x="413" y="450" type="curve" smooth="yes"/>
      <point x="413" y="424"/>
      <point x="420" y="410"/>
      <point x="438" y="410" type="curve" smooth="yes"/>
      <point x="584" y="410" type="line"/>
      <point x="584" y="404" type="line" smooth="yes"/>
      <point x="584" y="169"/>
      <point x="514" y="65"/>
      <point x="399" y="65" type="curve" smooth="yes"/>
      <point x="293" y="65"/>
      <point x="201" y="124"/>
      <point x="146" y="225" type="curve"/>
      <point x="215" y="214"/>
      <point x="289" y="206"/>
      <point x="370" y="206" type="curve" smooth="yes"/>
      <point x="386" y="206"/>
      <point x="394" y="224"/>
      <point x="394" y="245" type="curve" smooth="yes"/>
      <point x="394" y="271"/>
      <point x="386" y="281"/>
      <point x="370" y="281" type="curve" smooth="yes"/>
      <point x="259" y="281"/>
      <point x="153" y="298"/>
      <point x="88" y="311" type="curve" smooth="yes"/>
      <point x="71" y="315"/>
      <point x="58" y="311"/>
      <point x="48" y="301" type="curve" smooth="yes"/>
      <point x="34" y="288"/>
      <point x="30" y="273"/>
      <point x="36" y="253" type="curve" smooth="yes"/>
      <point x="94" y="85"/>
      <point x="234" y="-17"/>
    </contour>
  </outline>
</glyph>
<glyph name="G.cur" format="2">
  <advance width="863"/>
  <anchor x="606" y="-406" name="bottom"/>
  <anchor x="450" y="838" name="top"/>
  <outline>
    <contour>
      <point x="596" y="-394" type="curve" smooth="yes"/>
      <point x="700" y="-394"/>
      <point x="766" y="-294"/>
      <point x="766" y="-142" type="curve" smooth="yes"/>
      <point x="766" y="478" type="line" smooth="yes"/>
      <point x="766" y="496"/>
      <point x="751" y="505"/>
      <point x="723" y="505" type="curve" smooth="yes"/>
      <point x="694" y="505"/>
      <point x="679" y="496"/>
      <point x="679" y="478" type="curve"/>
      <point x="635" y="266"/>
      <point x="503" y="98"/>
      <point x="359" y="98" type="curve" smooth="yes"/>
      <point x="219" y="98"/>
      <point x="148" y="201"/>
      <point x="148" y="411" type="curve" smooth="yes"/>
      <point x="148" y="669"/>
      <point x="295" y="805"/>
      <point x="459" y="805" type="curve" smooth="yes"/>
      <point x="531" y="805"/>
      <point x="608" y="781"/>
      <point x="685" y="736" type="curve" smooth="yes"/>
      <point x="701" y="726"/>
      <point x="718" y="725"/>
      <point x="734" y="749" type="curve" smooth="yes"/>
      <point x="750" y="773"/>
      <point x="745" y="785"/>
      <point x="731" y="795" type="curve" smooth="yes"/>
      <point x="648" y="856"/>
      <point x="566" y="890"/>
      <point x="459" y="890" type="curve" smooth="yes"/>
      <point x="239" y="890"/>
      <point x="56" y="719"/>
      <point x="56" y="411" type="curve" smooth="yes"/>
      <point x="56" y="153"/>
      <point x="165" y="13"/>
      <point x="358" y="13" type="curve" smooth="yes"/>
      <point x="488" y="13"/>
      <point x="606" y="119"/>
      <point x="679" y="271" type="curve"/>
      <point x="679" y="-154" type="line" smooth="yes"/>
      <point x="679" y="-246"/>
      <point x="648" y="-316"/>
      <point x="604" y="-316" type="curve" smooth="yes"/>
      <point x="570" y="-316"/>
      <point x="555" y="-294"/>
      <point x="555" y="-257" type="curve" smooth="yes"/>
      <point x="555" y="-179"/>
      <point x="608" y="-94"/>
      <point x="724" y="14" type="curve" smooth="yes"/>
      <point x="774" y="60"/>
      <point x="836" y="110"/>
      <point x="918" y="170" type="curve" smooth="yes"/>
      <point x="938" y="185"/>
      <point x="940" y="199"/>
      <point x="928" y="219" type="curve" smooth="yes"/>
      <point x="914" y="239"/>
      <point x="900" y="241"/>
      <point x="879" y="226" type="curve" smooth="yes"/>
      <point x="806" y="175"/>
      <point x="745" y="126"/>
      <point x="694" y="83" type="curve" smooth="yes"/>
      <point x="536" y="-54"/>
      <point x="468" y="-162"/>
      <point x="468" y="-266" type="curve" smooth="yes"/>
      <point x="468" y="-344"/>
      <point x="516" y="-394"/>
    </contour>
  </outline>
</glyph>
<glyph name="G.cur_ro" format="2">
  <advance width="745"/>
  <anchor x="378" y="0" name="bottom"/>
  <anchor x="373" y="875" name="top"/>
  <outline>
    <contour>
      <point x="365" y="-20" type="curve" smooth="yes"/>
      <point x="545" y="-20"/>
      <point x="647" y="189"/>
      <point x="647" y="532" type="curve" smooth="yes"/>
      <point x="647" y="551"/>
      <point x="634" y="557"/>
      <point x="615" y="557" type="curve" smooth="yes"/>
      <point x="594" y="557"/>
      <point x="589" y="557"/>
      <point x="569" y="537" type="curve" smooth="yes"/>
      <point x="502" y="470"/>
      <point x="399" y="412"/>
      <point x="316" y="412" type="curve" smooth="yes"/>
      <point x="232" y="412"/>
      <point x="191" y="463"/>
      <point x="191" y="545" type="curve" smooth="yes"/>
      <point x="191" y="656"/>
      <point x="295" y="810"/>
      <point x="413" y="810" type="curve" smooth="yes"/>
      <point x="443" y="810"/>
      <point x="461" y="793"/>
      <point x="461" y="765" type="curve" smooth="yes"/>
      <point x="461" y="672"/>
      <point x="327" y="564"/>
      <point x="226" y="564" type="curve" smooth="yes"/>
      <point x="140" y="564"/>
      <point x="93" y="668"/>
      <point x="93" y="840" type="curve" smooth="yes"/>
      <point x="93" y="861"/>
      <point x="80" y="871"/>
      <point x="54" y="871" type="curve" smooth="yes"/>
      <point x="26" y="871"/>
      <point x="12" y="861"/>
      <point x="12" y="840" type="curve" smooth="yes"/>
      <point x="12" y="621"/>
      <point x="89" y="488"/>
      <point x="226" y="488" type="curve" smooth="yes"/>
      <point x="381" y="488"/>
      <point x="552" y="636"/>
      <point x="552" y="771" type="curve" smooth="yes"/>
      <point x="552" y="847"/>
      <point x="499" y="894"/>
      <point x="413" y="894" type="curve" smooth="yes"/>
      <point x="251" y="894"/>
      <point x="113" y="697"/>
      <point x="113" y="545" type="curve" smooth="yes"/>
      <point x="113" y="402"/>
      <point x="201" y="335"/>
      <point x="312" y="335" type="curve" smooth="yes"/>
      <point x="387" y="335"/>
      <point x="480" y="374"/>
      <point x="560" y="440" type="curve"/>
      <point x="551" y="204"/>
      <point x="479" y="60"/>
      <point x="369" y="60" type="curve" smooth="yes"/>
      <point x="317" y="60"/>
      <point x="250" y="88"/>
      <point x="198" y="197" type="curve" smooth="yes"/>
      <point x="189" y="215"/>
      <point x="172" y="218"/>
      <point x="150" y="206" type="curve" smooth="yes"/>
      <point x="130" y="195"/>
      <point x="125" y="179"/>
      <point x="135" y="158" type="curve" smooth="yes"/>
      <point x="198" y="19"/>
      <point x="289" y="-20"/>
    </contour>
  </outline>
</glyph>
<glyph name="G.dec" format="2">
  <advance width="1049"/>
  <anchor x="613" y="0" name="bottom"/>
  <anchor x="638" y="838" name="top"/>
  <outline>
    <contour>
      <point x="44" y="-12" type="curve" smooth="yes"/>
      <point x="378" y="-12"/>
      <point x="529" y="388"/>
      <point x="529" y="686" type="curve" smooth="yes"/>
      <point x="529" y="821"/>
      <point x="484" y="890"/>
      <point x="395" y="890" type="curve" smooth="yes"/>
      <point x="306" y="890"/>
      <point x="241" y="801"/>
      <point x="241" y="678" type="curve" smooth="yes"/>
      <point x="241" y="559"/>
      <point x="316" y="499"/>
      <point x="421" y="499" type="curve" smooth="yes"/>
      <point x="574" y="499"/>
      <point x="741" y="578"/>
      <point x="888" y="714" type="curve"/>
      <point x="820" y="754" type="line"/>
      <point x="820" y="711"/>
      <point x="820" y="665"/>
      <point x="820" y="623" type="curve" smooth="yes"/>
      <point x="820" y="239"/>
      <point x="760" y="75"/>
      <point x="601" y="75" type="curve" smooth="yes"/>
      <point x="441" y="75"/>
      <point x="288" y="203"/>
      <point x="178" y="415" type="curve"/>
      <point x="143" y="395" type="line"/>
      <point x="388" y="285"/>
      <point x="715" y="216"/>
      <point x="1011" y="216" type="curve" smooth="yes"/>
      <point x="1028" y="216"/>
      <point x="1039" y="234"/>
      <point x="1039" y="258" type="curve" smooth="yes"/>
      <point x="1039" y="285"/>
      <point x="1028" y="296"/>
      <point x="1011" y="296" type="curve" smooth="yes"/>
      <point x="721" y="296"/>
      <point x="441" y="349"/>
      <point x="184" y="460" type="curve" smooth="yes"/>
      <point x="160" y="471"/>
      <point x="135" y="470"/>
      <point x="119" y="453" type="curve" smooth="yes"/>
      <point x="99" y="433"/>
      <point x="90" y="410"/>
      <point x="103" y="384" type="curve" smooth="yes"/>
      <point x="221" y="146"/>
      <point x="398" y="-12"/>
      <point x="601" y="-12" type="curve" smooth="yes"/>
      <point x="831" y="-12"/>
      <point x="911" y="185"/>
      <point x="911" y="623" type="curve" smooth="yes"/>
      <point x="911" y="664"/>
      <point x="911" y="710"/>
      <point x="911" y="741" type="curve" smooth="yes"/>
      <point x="911" y="765"/>
      <point x="903" y="779"/>
      <point x="884" y="788" type="curve" smooth="yes"/>
      <point x="864" y="796"/>
      <point x="848" y="793"/>
      <point x="829" y="774" type="curve" smooth="yes"/>
      <point x="708" y="649"/>
      <point x="548" y="579"/>
      <point x="428" y="579" type="curve" smooth="yes"/>
      <point x="366" y="579"/>
      <point x="329" y="609"/>
      <point x="329" y="679" type="curve" smooth="yes"/>
      <point x="329" y="755"/>
      <point x="356" y="810"/>
      <point x="394" y="810" type="curve" smooth="yes"/>
      <point x="428" y="810"/>
      <point x="444" y="768"/>
      <point x="444" y="684" type="curve" smooth="yes"/>
      <point x="444" y="414"/>
      <point x="320" y="68"/>
      <point x="44" y="68" type="curve" smooth="yes"/>
      <point x="23" y="68"/>
      <point x="8" y="55"/>
      <point x="8" y="26" type="curve" smooth="yes"/>
      <point x="8" y="-1"/>
      <point x="20" y="-12"/>
    </contour>
  </outline>
</glyph>
<glyph name="G_locl.au" format="2">
  <advance width="875"/>
  <anchor x="400" y="0" name="bottom"/>
  <anchor x="475" y="838" name="top"/>
  <outline>
    <contour>
      <point x="376" y="-17" type="curve" smooth="yes"/>
      <point x="515" y="-17"/>
      <point x="630" y="90"/>
      <point x="701" y="251" type="curve"/>
      <point x="701" y="21" type="line" smooth="yes"/>
      <point x="701" y="3"/>
      <point x="716" y="-6"/>
      <point x="745" y="-6" type="curve" smooth="yes"/>
      <point x="774" y="-6"/>
      <point x="789" y="3"/>
      <point x="789" y="21" type="curve" smooth="yes"/>
      <point x="789" y="445" type="line" smooth="yes"/>
      <point x="789" y="464"/>
      <point x="774" y="473"/>
      <point x="745" y="473" type="curve" smooth="yes"/>
      <point x="716" y="473"/>
      <point x="701" y="464"/>
      <point x="701" y="445" type="curve"/>
      <point x="643" y="226"/>
      <point x="530" y="68"/>
      <point x="378" y="68" type="curve" smooth="yes"/>
      <point x="244" y="68"/>
      <point x="173" y="179"/>
      <point x="173" y="391" type="curve" smooth="yes"/>
      <point x="173" y="644"/>
      <point x="288" y="805"/>
      <point x="478" y="805" type="curve" smooth="yes"/>
      <point x="561" y="805"/>
      <point x="626" y="784"/>
      <point x="695" y="731" type="curve" smooth="yes"/>
      <point x="720" y="713"/>
      <point x="729" y="701"/>
      <point x="749" y="718" type="curve" smooth="yes"/>
      <point x="778" y="740"/>
      <point x="778" y="759"/>
      <point x="759" y="778" type="curve" smooth="yes"/>
      <point x="684" y="850"/>
      <point x="595" y="890"/>
      <point x="478" y="890" type="curve" smooth="yes"/>
      <point x="236" y="890"/>
      <point x="81" y="694"/>
      <point x="81" y="391" type="curve" smooth="yes"/>
      <point x="81" y="130"/>
      <point x="190" y="-17"/>
    </contour>
  </outline>
</glyph>
<glyph name="H.cur" format="2">
  <advance width="1033"/>
  <anchor x="523" y="0" name="bottom"/>
  <anchor x="573" y="666" name="center"/>
  <anchor x="523" y="838" name="top"/>
  <outline>
    <contour>
      <point x="211" y="-17" type="curve" smooth="yes"/>
      <point x="314" y="-17"/>
      <point x="364" y="56"/>
      <point x="364" y="203" type="curve" smooth="yes"/>
      <point x="364" y="314" type="line"/>
      <point x="465" y="356"/>
      <point x="583" y="411"/>
      <point x="678" y="458" type="curve"/>
      <point x="678" y="160" type="line" smooth="yes"/>
      <point x="678" y="49"/>
      <point x="719" y="-17"/>
      <point x="816" y="-17" type="curve" smooth="yes"/>
      <point x="900" y="-17"/>
      <point x="974" y="66"/>
      <point x="998" y="125" type="curve" smooth="yes"/>
      <point x="1006" y="148"/>
      <point x="998" y="160"/>
      <point x="976" y="169" type="curve" smooth="yes"/>
      <point x="955" y="178"/>
      <point x="938" y="174"/>
      <point x="926" y="154" type="curve" smooth="yes"/>
      <point x="905" y="116"/>
      <point x="860" y="68"/>
      <point x="816" y="68" type="curve" smooth="yes"/>
      <point x="780" y="68"/>
      <point x="765" y="89"/>
      <point x="765" y="165" type="curve" smooth="yes"/>
      <point x="765" y="503" type="line"/>
      <point x="908" y="583"/>
      <point x="959" y="655"/>
      <point x="959" y="741" type="curve" smooth="yes"/>
      <point x="959" y="811"/>
      <point x="916" y="875"/>
      <point x="831" y="875" type="curve" smooth="yes"/>
      <point x="730" y="875"/>
      <point x="678" y="801"/>
      <point x="678" y="655" type="curve" smooth="yes"/>
      <point x="678" y="549" type="line"/>
      <point x="575" y="499"/>
      <point x="470" y="449"/>
      <point x="364" y="405" type="curve"/>
      <point x="364" y="670" type="line" smooth="yes"/>
      <point x="364" y="815"/>
      <point x="321" y="875"/>
      <point x="230" y="875" type="curve" smooth="yes"/>
      <point x="150" y="875"/>
      <point x="94" y="824"/>
      <point x="51" y="720" type="curve" smooth="yes"/>
      <point x="41" y="696"/>
      <point x="50" y="683"/>
      <point x="76" y="674" type="curve" smooth="yes"/>
      <point x="106" y="665"/>
      <point x="115" y="680"/>
      <point x="123" y="694" type="curve" smooth="yes"/>
      <point x="159" y="765"/>
      <point x="186" y="798"/>
      <point x="225" y="798" type="curve" smooth="yes"/>
      <point x="265" y="798"/>
      <point x="276" y="770"/>
      <point x="276" y="670" type="curve" smooth="yes"/>
      <point x="276" y="368" type="line"/>
      <point x="140" y="293"/>
      <point x="84" y="209"/>
      <point x="84" y="119" type="curve" smooth="yes"/>
      <point x="84" y="46"/>
      <point x="130" y="-17"/>
    </contour>
    <contour>
      <point x="211" y="60" type="curve" smooth="yes"/>
      <point x="190" y="60"/>
      <point x="171" y="83"/>
      <point x="171" y="119" type="curve" smooth="yes"/>
      <point x="171" y="181"/>
      <point x="204" y="236"/>
      <point x="276" y="278" type="curve"/>
      <point x="276" y="191" type="line" smooth="yes"/>
      <point x="276" y="89"/>
      <point x="251" y="60"/>
    </contour>
    <contour>
      <point x="765" y="593" type="curve"/>
      <point x="765" y="666" type="line" smooth="yes"/>
      <point x="765" y="769"/>
      <point x="794" y="798"/>
      <point x="831" y="798" type="curve" smooth="yes"/>
      <point x="856" y="798"/>
      <point x="871" y="769"/>
      <point x="871" y="741" type="curve" smooth="yes"/>
      <point x="871" y="676"/>
      <point x="843" y="638"/>
    </contour>
  </outline>
</glyph>
<glyph name="H.dec" format="2">
  <advance width="1081"/>
  <guideline x="489" y="690" angle="90"/>
  <anchor x="611" y="0" name="bottom"/>
  <anchor x="611" y="676" name="center"/>
  <anchor x="611" y="838" name="top"/>
  <outline>
    <contour>
      <point x="358" y="-14" type="curve" smooth="yes"/>
      <point x="386" y="-14"/>
      <point x="401" y="-5"/>
      <point x="401" y="14" type="curve" smooth="yes"/>
      <point x="401" y="863" type="line" smooth="yes"/>
      <point x="401" y="881"/>
      <point x="389" y="890"/>
      <point x="364" y="890" type="curve" smooth="yes"/>
      <point x="348" y="890"/>
      <point x="335" y="885"/>
      <point x="321" y="871" type="curve" smooth="yes"/>
      <point x="311" y="861"/>
      <point x="293" y="851"/>
      <point x="271" y="851" type="curve" smooth="yes"/>
      <point x="236" y="851"/>
      <point x="214" y="880"/>
      <point x="158" y="880" type="curve" smooth="yes"/>
      <point x="94" y="880"/>
      <point x="54" y="839"/>
      <point x="13" y="781" type="curve" smooth="yes"/>
      <point x="0" y="764"/>
      <point x="6" y="746"/>
      <point x="33" y="730" type="curve" smooth="yes"/>
      <point x="50" y="718"/>
      <point x="65" y="720"/>
      <point x="76" y="733" type="curve" smooth="yes"/>
      <point x="109" y="771"/>
      <point x="129" y="796"/>
      <point x="160" y="796" type="curve" smooth="yes"/>
      <point x="194" y="796"/>
      <point x="220" y="768"/>
      <point x="269" y="768" type="curve" smooth="yes"/>
      <point x="288" y="768"/>
      <point x="301" y="773"/>
      <point x="314" y="781" type="curve"/>
      <point x="314" y="14" type="line" smooth="yes"/>
      <point x="314" y="-5"/>
      <point x="329" y="-14"/>
    </contour>
    <contour>
      <point x="821" y="119" type="curve"/>
      <point x="904" y="126" type="line"/>
      <point x="904" y="408"/>
      <point x="789" y="526"/>
      <point x="571" y="526" type="curve" smooth="yes"/>
      <point x="426" y="526"/>
      <point x="338" y="465"/>
      <point x="338" y="371" type="curve" smooth="yes"/>
      <point x="338" y="280"/>
      <point x="411" y="229"/>
      <point x="566" y="229" type="curve" smooth="yes"/>
      <point x="699" y="229"/>
      <point x="860" y="279"/>
      <point x="1044" y="376" type="curve" smooth="yes"/>
      <point x="1060" y="385"/>
      <point x="1063" y="401"/>
      <point x="1050" y="424" type="curve" smooth="yes"/>
      <point x="1039" y="444"/>
      <point x="1025" y="450"/>
      <point x="1008" y="440" type="curve" smooth="yes"/>
      <point x="841" y="348"/>
      <point x="710" y="309"/>
      <point x="564" y="309" type="curve" smooth="yes"/>
      <point x="456" y="309"/>
      <point x="403" y="331"/>
      <point x="403" y="376" type="curve" smooth="yes"/>
      <point x="403" y="420"/>
      <point x="460" y="446"/>
      <point x="554" y="446" type="curve" smooth="yes"/>
      <point x="744" y="446"/>
      <point x="821" y="363"/>
    </contour>
    <contour>
      <point x="865" y="-14" type="curve" smooth="yes"/>
      <point x="894" y="-14"/>
      <point x="909" y="-5"/>
      <point x="909" y="14" type="curve" smooth="yes"/>
      <point x="909" y="863" type="line" smooth="yes"/>
      <point x="909" y="881"/>
      <point x="894" y="890"/>
      <point x="865" y="890" type="curve" smooth="yes"/>
      <point x="836" y="890"/>
      <point x="821" y="881"/>
      <point x="821" y="863" type="curve" smooth="yes"/>
      <point x="821" y="14" type="line" smooth="yes"/>
      <point x="821" y="-5"/>
      <point x="836" y="-14"/>
    </contour>
  </outline>
</glyph>
<glyph name="I.cur.ini" format="2">
  <advance width="985"/>
  <anchor x="669" y="0" name="bottom"/>
  <anchor x="985" y="0" name="cnct"/>
  <anchor x="769" y="-5" name="ogonek"/>
  <anchor x="669" y="838" name="top"/>
  <outline>
    <contour>
      <point x="413" y="-17" type="curve" smooth="yes"/>
      <point x="708" y="-17"/>
      <point x="879" y="335"/>
      <point x="879" y="614" type="curve" smooth="yes"/>
      <point x="879" y="778"/>
      <point x="808" y="890"/>
      <point x="666" y="890" type="curve" smooth="yes"/>
      <point x="538" y="890"/>
      <point x="474" y="786"/>
      <point x="474" y="626" type="curve" smooth="yes"/>
      <point x="474" y="253"/>
      <point x="663" y="-17"/>
      <point x="876" y="-17" type="curve" smooth="yes"/>
      <point x="916" y="-17"/>
      <point x="935" y="58"/>
      <point x="895" y="58" type="curve" smooth="yes"/>
      <point x="724" y="58"/>
      <point x="565" y="297"/>
      <point x="565" y="626" type="curve" smooth="yes"/>
      <point x="565" y="736"/>
      <point x="596" y="808"/>
      <point x="666" y="808" type="curve" smooth="yes"/>
      <point x="749" y="808"/>
      <point x="788" y="720"/>
      <point x="788" y="614" type="curve" smooth="yes"/>
      <point x="788" y="366"/>
      <point x="641" y="65"/>
      <point x="419" y="65" type="curve" smooth="yes"/>
      <point x="316" y="65"/>
      <point x="241" y="118"/>
      <point x="195" y="219" type="curve"/>
      <point x="255" y="210"/>
      <point x="318" y="206"/>
      <point x="393" y="206" type="curve" smooth="yes"/>
      <point x="415" y="206"/>
      <point x="425" y="218"/>
      <point x="425" y="245" type="curve" smooth="yes"/>
      <point x="425" y="270"/>
      <point x="415" y="281"/>
      <point x="393" y="281" type="curve" smooth="yes"/>
      <point x="290" y="281"/>
      <point x="208" y="288"/>
      <point x="134" y="305" type="curve" smooth="yes"/>
      <point x="113" y="309"/>
      <point x="103" y="305"/>
      <point x="91" y="294" type="curve" smooth="yes"/>
      <point x="80" y="283"/>
      <point x="79" y="270"/>
      <point x="86" y="249" type="curve" smooth="yes"/>
      <point x="153" y="73"/>
      <point x="261" y="-17"/>
    </contour>
  </outline>
</glyph>
<glyph name="I.dec" format="2">
  <advance width="518"/>
  <anchor x="285" y="0" name="bottom"/>
  <anchor x="332" y="-5" name="ogonek"/>
  <anchor x="285" y="838" name="top"/>
  <outline>
    <contour>
      <point x="248" y="-19" type="curve" smooth="yes"/>
      <point x="373" y="-19"/>
      <point x="446" y="71"/>
      <point x="446" y="249" type="curve" smooth="yes"/>
      <point x="446" y="863" type="line" smooth="yes"/>
      <point x="446" y="881"/>
      <point x="434" y="890"/>
      <point x="409" y="890" type="curve" smooth="yes"/>
      <point x="393" y="890"/>
      <point x="380" y="885"/>
      <point x="366" y="871" type="curve" smooth="yes"/>
      <point x="356" y="861"/>
      <point x="334" y="851"/>
      <point x="310" y="851" type="curve" smooth="yes"/>
      <point x="273" y="851"/>
      <point x="249" y="880"/>
      <point x="190" y="880" type="curve" smooth="yes"/>
      <point x="124" y="880"/>
      <point x="81" y="840"/>
      <point x="39" y="781" type="curve" smooth="yes"/>
      <point x="26" y="764"/>
      <point x="34" y="748"/>
      <point x="59" y="730" type="curve" smooth="yes"/>
      <point x="76" y="718"/>
      <point x="91" y="720"/>
      <point x="103" y="733" type="curve" smooth="yes"/>
      <point x="136" y="773"/>
      <point x="159" y="796"/>
      <point x="193" y="796" type="curve" smooth="yes"/>
      <point x="229" y="796"/>
      <point x="256" y="768"/>
      <point x="308" y="768" type="curve" smooth="yes"/>
      <point x="329" y="768"/>
      <point x="345" y="773"/>
      <point x="359" y="781" type="curve"/>
      <point x="359" y="260" type="line" smooth="yes"/>
      <point x="359" y="111"/>
      <point x="325" y="66"/>
      <point x="250" y="66" type="curve" smooth="yes"/>
      <point x="194" y="66"/>
      <point x="145" y="95"/>
      <point x="108" y="154" type="curve" smooth="yes"/>
      <point x="95" y="174"/>
      <point x="81" y="179"/>
      <point x="60" y="170" type="curve" smooth="yes"/>
      <point x="39" y="161"/>
      <point x="28" y="148"/>
      <point x="36" y="126" type="curve" smooth="yes"/>
      <point x="66" y="55"/>
      <point x="159" y="-19"/>
    </contour>
  </outline>
</glyph>
<glyph name="IJ.cur" format="2">
  <advance width="788"/>
  <anchor x="263" y="0" name="bottom"/>
  <anchor x="394" y="838" name="top"/>
  <outline>
    <contour>
      <point x="493" y="-394" type="curve" smooth="yes"/>
      <point x="596" y="-394"/>
      <point x="663" y="-294"/>
      <point x="663" y="-142" type="curve" smooth="yes"/>
      <point x="663" y="860" type="line" smooth="yes"/>
      <point x="663" y="879"/>
      <point x="648" y="888"/>
      <point x="619" y="888" type="curve" smooth="yes"/>
      <point x="590" y="888"/>
      <point x="575" y="879"/>
      <point x="575" y="860" type="curve" smooth="yes"/>
      <point x="575" y="485" type="line"/>
      <point x="531" y="278"/>
      <point x="428" y="136"/>
      <point x="318" y="136" type="curve" smooth="yes"/>
      <point x="240" y="136"/>
      <point x="213" y="198"/>
      <point x="213" y="341" type="curve" smooth="yes"/>
      <point x="213" y="860" type="line" smooth="yes"/>
      <point x="213" y="879"/>
      <point x="198" y="888"/>
      <point x="169" y="888" type="curve" smooth="yes"/>
      <point x="140" y="888"/>
      <point x="125" y="880"/>
      <point x="125" y="861" type="curve" smooth="yes"/>
      <point x="125" y="334" type="line" smooth="yes"/>
      <point x="125" y="135"/>
      <point x="179" y="51"/>
      <point x="316" y="51" type="curve" smooth="yes"/>
      <point x="421" y="51"/>
      <point x="520" y="143"/>
      <point x="575" y="281" type="curve"/>
      <point x="575" y="-154" type="line" smooth="yes"/>
      <point x="575" y="-246"/>
      <point x="544" y="-316"/>
      <point x="500" y="-316" type="curve" smooth="yes"/>
      <point x="466" y="-316"/>
      <point x="451" y="-294"/>
      <point x="451" y="-257" type="curve" smooth="yes"/>
      <point x="451" y="-161"/>
      <point x="531" y="-62"/>
      <point x="625" y="21" type="curve" smooth="yes"/>
      <point x="690" y="80"/>
      <point x="761" y="131"/>
      <point x="814" y="170" type="curve" smooth="yes"/>
      <point x="834" y="185"/>
      <point x="836" y="199"/>
      <point x="824" y="219" type="curve" smooth="yes"/>
      <point x="810" y="239"/>
      <point x="796" y="241"/>
      <point x="775" y="226" type="curve" smooth="yes"/>
      <point x="721" y="188"/>
      <point x="654" y="140"/>
      <point x="590" y="85" type="curve" smooth="yes"/>
      <point x="471" y="-17"/>
      <point x="364" y="-141"/>
      <point x="364" y="-266" type="curve" smooth="yes"/>
      <point x="364" y="-344"/>
      <point x="413" y="-394"/>
    </contour>
  </outline>
</glyph>
<glyph name="J.cur" format="2">
  <advance width="761"/>
  <anchor x="390" y="-406" name="bottom"/>
  <anchor x="331" y="838" name="top"/>
  <outline>
    <contour>
      <point x="374" y="-394" type="curve" smooth="yes"/>
      <point x="485" y="-394"/>
      <point x="563" y="-309"/>
      <point x="563" y="-115" type="curve" smooth="yes"/>
      <point x="563" y="42" type="line"/>
      <point x="613" y="78"/>
      <point x="673" y="119"/>
      <point x="743" y="166" type="curve" smooth="yes"/>
      <point x="760" y="178"/>
      <point x="763" y="198"/>
      <point x="748" y="220" type="curve" smooth="yes"/>
      <point x="734" y="240"/>
      <point x="718" y="246"/>
      <point x="700" y="234" type="curve" smooth="yes"/>
      <point x="650" y="200"/>
      <point x="604" y="169"/>
      <point x="563" y="140" type="curve"/>
      <point x="563" y="654" type="line" smooth="yes"/>
      <point x="563" y="815"/>
      <point x="498" y="890"/>
      <point x="358" y="890" type="curve" smooth="yes"/>
      <point x="200" y="890"/>
      <point x="78" y="756"/>
      <point x="78" y="573" type="curve" smooth="yes"/>
      <point x="78" y="389"/>
      <point x="145" y="273"/>
      <point x="335" y="104" type="curve" smooth="yes"/>
      <point x="353" y="89"/>
      <point x="373" y="95"/>
      <point x="391" y="119" type="curve" smooth="yes"/>
      <point x="404" y="136"/>
      <point x="404" y="151"/>
      <point x="390" y="164" type="curve" smooth="yes"/>
      <point x="228" y="305"/>
      <point x="169" y="406"/>
      <point x="169" y="573" type="curve" smooth="yes"/>
      <point x="169" y="715"/>
      <point x="245" y="803"/>
      <point x="358" y="803" type="curve" smooth="yes"/>
      <point x="440" y="803"/>
      <point x="475" y="756"/>
      <point x="475" y="654" type="curve" smooth="yes"/>
      <point x="475" y="75" type="line"/>
      <point x="292" y="-63"/>
      <point x="223" y="-152"/>
      <point x="223" y="-246" type="curve" smooth="yes"/>
      <point x="223" y="-331"/>
      <point x="280" y="-394"/>
    </contour>
    <contour>
      <point x="380" y="-314" type="curve" smooth="yes"/>
      <point x="338" y="-314"/>
      <point x="313" y="-289"/>
      <point x="313" y="-246" type="curve" smooth="yes"/>
      <point x="313" y="-178"/>
      <point x="354" y="-119"/>
      <point x="475" y="-24" type="curve"/>
      <point x="475" y="-117" type="line" smooth="yes"/>
      <point x="475" y="-261"/>
      <point x="436" y="-314"/>
    </contour>
  </outline>
</glyph>
<glyph name="J.dec.ini" format="2">
  <advance width="533"/>
  <anchor x="275" y="-406" name="bottom"/>
  <anchor x="533" y="0" name="cnct"/>
  <anchor x="329" y="838" name="top"/>
  <outline>
    <contour>
      <point x="254" y="-394" type="curve" smooth="yes"/>
      <point x="365" y="-394"/>
      <point x="436" y="-294"/>
      <point x="436" y="-142" type="curve" smooth="yes"/>
      <point x="436" y="863" type="line" smooth="yes"/>
      <point x="436" y="881"/>
      <point x="424" y="890"/>
      <point x="399" y="890" type="curve" smooth="yes"/>
      <point x="383" y="890"/>
      <point x="370" y="885"/>
      <point x="356" y="871" type="curve" smooth="yes"/>
      <point x="346" y="861"/>
      <point x="324" y="851"/>
      <point x="300" y="851" type="curve" smooth="yes"/>
      <point x="263" y="851"/>
      <point x="239" y="880"/>
      <point x="180" y="880" type="curve" smooth="yes"/>
      <point x="114" y="880"/>
      <point x="71" y="840"/>
      <point x="29" y="781" type="curve" smooth="yes"/>
      <point x="16" y="764"/>
      <point x="24" y="748"/>
      <point x="49" y="730" type="curve" smooth="yes"/>
      <point x="66" y="718"/>
      <point x="81" y="720"/>
      <point x="93" y="733" type="curve" smooth="yes"/>
      <point x="128" y="770"/>
      <point x="149" y="796"/>
      <point x="183" y="796" type="curve" smooth="yes"/>
      <point x="219" y="796"/>
      <point x="246" y="768"/>
      <point x="298" y="768" type="curve" smooth="yes"/>
      <point x="319" y="768"/>
      <point x="335" y="773"/>
      <point x="349" y="781" type="curve"/>
      <point x="349" y="-154" type="line" smooth="yes"/>
      <point x="349" y="-246"/>
      <point x="313" y="-316"/>
      <point x="261" y="-316" type="curve" smooth="yes"/>
      <point x="219" y="-316"/>
      <point x="200" y="-294"/>
      <point x="200" y="-257" type="curve" smooth="yes"/>
      <point x="200" y="-207"/>
      <point x="113" y="-216"/>
      <point x="113" y="-266" type="curve" smooth="yes"/>
      <point x="113" y="-344"/>
      <point x="166" y="-394"/>
    </contour>
  </outline>
</glyph>
<glyph name="L.cur" format="2">
  <advance width="776"/>
  <anchor x="500" y="450" name="CAT"/>
  <anchor x="465" y="0" name="bottom"/>
  <anchor x="251" y="450" name="center"/>
  <anchor x="415" y="838" name="top"/>
  <anchor x="600" y="875" name="topright"/>
  <outline>
    <contour>
      <point x="136" y="-21" type="curve" smooth="yes"/>
      <point x="233" y="-21"/>
      <point x="295" y="50"/>
      <point x="295" y="161" type="curve" smooth="yes"/>
      <point x="295" y="644" type="line" smooth="yes"/>
      <point x="295" y="756"/>
      <point x="338" y="806"/>
      <point x="423" y="806" type="curve" smooth="yes"/>
      <point x="485" y="806"/>
      <point x="544" y="770"/>
      <point x="579" y="708" type="curve" smooth="yes"/>
      <point x="590" y="686"/>
      <point x="601" y="673"/>
      <point x="633" y="685" type="curve" smooth="yes"/>
      <point x="658" y="695"/>
      <point x="665" y="713"/>
      <point x="651" y="739" type="curve" smooth="yes"/>
      <point x="596" y="844"/>
      <point x="520" y="890"/>
      <point x="425" y="890" type="curve" smooth="yes"/>
      <point x="283" y="890"/>
      <point x="208" y="805"/>
      <point x="208" y="644" type="curve" smooth="yes"/>
      <point x="208" y="161" type="line" smooth="yes"/>
      <point x="208" y="99"/>
      <point x="179" y="54"/>
      <point x="131" y="54" type="curve" smooth="yes"/>
      <point x="109" y="54"/>
      <point x="89" y="68"/>
      <point x="89" y="88" type="curve" smooth="yes"/>
      <point x="89" y="106"/>
      <point x="100" y="121"/>
      <point x="124" y="121" type="curve" smooth="yes"/>
      <point x="238" y="121"/>
      <point x="315" y="-11"/>
      <point x="519" y="-11" type="curve" smooth="yes"/>
      <point x="646" y="-11"/>
      <point x="720" y="71"/>
      <point x="749" y="196" type="curve" smooth="yes"/>
      <point x="755" y="224"/>
      <point x="749" y="238"/>
      <point x="726" y="243" type="curve" smooth="yes"/>
      <point x="703" y="250"/>
      <point x="685" y="246"/>
      <point x="676" y="220" type="curve" smooth="yes"/>
      <point x="643" y="124"/>
      <point x="610" y="73"/>
      <point x="526" y="73" type="curve" smooth="yes"/>
      <point x="358" y="73"/>
      <point x="265" y="199"/>
      <point x="130" y="199" type="curve" smooth="yes"/>
      <point x="58" y="199"/>
      <point x="8" y="150"/>
      <point x="8" y="81" type="curve" smooth="yes"/>
      <point x="8" y="14"/>
      <point x="60" y="-21"/>
    </contour>
  </outline>
</glyph>
<glyph name="L.dec.ini" format="2">
  <advance width="761"/>
  <anchor x="550" y="413" name="CAT"/>
  <anchor x="494" y="0" name="bottom"/>
  <anchor x="283" y="350" name="center"/>
  <anchor x="761" y="0" name="cnct"/>
  <anchor x="444" y="838" name="top"/>
  <anchor x="650" y="875" name="topright"/>
  <outline>
    <contour>
      <point x="165" y="-21" type="curve" smooth="yes"/>
      <point x="254" y="-21"/>
      <point x="324" y="50"/>
      <point x="324" y="161" type="curve" smooth="yes"/>
      <point x="324" y="499" type="line" smooth="yes"/>
      <point x="324" y="691"/>
      <point x="404" y="806"/>
      <point x="513" y="806" type="curve" smooth="yes"/>
      <point x="563" y="806"/>
      <point x="593" y="783"/>
      <point x="593" y="743" type="curve" smooth="yes"/>
      <point x="593" y="668"/>
      <point x="506" y="613"/>
      <point x="371" y="613" type="curve" smooth="yes"/>
      <point x="278" y="613"/>
      <point x="186" y="638"/>
      <point x="98" y="686" type="curve" smooth="yes"/>
      <point x="79" y="696"/>
      <point x="61" y="688"/>
      <point x="49" y="664" type="curve" smooth="yes"/>
      <point x="36" y="641"/>
      <point x="41" y="625"/>
      <point x="65" y="613" type="curve" smooth="yes"/>
      <point x="176" y="555"/>
      <point x="268" y="530"/>
      <point x="371" y="530" type="curve" smooth="yes"/>
      <point x="560" y="530"/>
      <point x="684" y="621"/>
      <point x="684" y="746" type="curve" smooth="yes"/>
      <point x="684" y="835"/>
      <point x="620" y="890"/>
      <point x="515" y="890" type="curve" smooth="yes"/>
      <point x="354" y="890"/>
      <point x="236" y="741"/>
      <point x="236" y="499" type="curve" smooth="yes"/>
      <point x="236" y="161" type="line" smooth="yes"/>
      <point x="236" y="99"/>
      <point x="209" y="54"/>
      <point x="160" y="54" type="curve" smooth="yes"/>
      <point x="138" y="54"/>
      <point x="118" y="68"/>
      <point x="118" y="88" type="curve" smooth="yes"/>
      <point x="118" y="106"/>
      <point x="135" y="121"/>
      <point x="171" y="121" type="curve" smooth="yes"/>
      <point x="305" y="121"/>
      <point x="510" y="-17"/>
      <point x="653" y="-17" type="curve" smooth="yes"/>
      <point x="703" y="-17"/>
      <point x="721" y="58"/>
      <point x="671" y="58" type="curve" smooth="yes"/>
      <point x="565" y="58"/>
      <point x="340" y="199"/>
      <point x="178" y="199" type="curve" smooth="yes"/>
      <point x="93" y="199"/>
      <point x="36" y="150"/>
      <point x="36" y="81" type="curve" smooth="yes"/>
      <point x="36" y="14"/>
      <point x="89" y="-21"/>
    </contour>
  </outline>
</glyph>
<glyph name="M.cur" format="2">
  <advance width="1301"/>
  <anchor x="651" y="0" name="bottom"/>
  <anchor x="701" y="838" name="top"/>
  <outline>
    <contour>
      <point x="1114" y="-17" type="curve" smooth="yes"/>
      <point x="1175" y="-17"/>
      <point x="1244" y="34"/>
      <point x="1281" y="126" type="curve" smooth="yes"/>
      <point x="1289" y="149"/>
      <point x="1281" y="163"/>
      <point x="1264" y="169" type="curve" smooth="yes"/>
      <point x="1239" y="179"/>
      <point x="1221" y="175"/>
      <point x="1211" y="154" type="curve" smooth="yes"/>
      <point x="1188" y="103"/>
      <point x="1163" y="68"/>
      <point x="1134" y="68" type="curve" smooth="yes"/>
      <point x="1109" y="68"/>
      <point x="1099" y="79"/>
      <point x="1099" y="144" type="curve" smooth="yes"/>
      <point x="1099" y="683" type="line" smooth="yes"/>
      <point x="1099" y="829"/>
      <point x="1043" y="890"/>
      <point x="934" y="890" type="curve" smooth="yes"/>
      <point x="839" y="890"/>
      <point x="755" y="819"/>
      <point x="700" y="703" type="curve"/>
      <point x="699" y="715"/>
      <point x="699" y="726"/>
      <point x="697" y="736" type="curve" smooth="yes"/>
      <point x="684" y="844"/>
      <point x="630" y="890"/>
      <point x="535" y="890" type="curve" smooth="yes"/>
      <point x="440" y="890"/>
      <point x="356" y="819"/>
      <point x="301" y="703" type="curve"/>
      <point x="301" y="713"/>
      <point x="301" y="723"/>
      <point x="301" y="733" type="curve" smooth="yes"/>
      <point x="301" y="840"/>
      <point x="269" y="890"/>
      <point x="198" y="890" type="curve" smooth="yes"/>
      <point x="124" y="890"/>
      <point x="59" y="828"/>
      <point x="14" y="714" type="curve" smooth="yes"/>
      <point x="4" y="689"/>
      <point x="9" y="676"/>
      <point x="30" y="669" type="curve" smooth="yes"/>
      <point x="58" y="659"/>
      <point x="76" y="664"/>
      <point x="85" y="684" type="curve" smooth="yes"/>
      <point x="119" y="764"/>
      <point x="154" y="805"/>
      <point x="180" y="805" type="curve" smooth="yes"/>
      <point x="205" y="805"/>
      <point x="214" y="775"/>
      <point x="214" y="734" type="curve" smooth="yes"/>
      <point x="214" y="13" type="line" smooth="yes"/>
      <point x="214" y="-6"/>
      <point x="229" y="-15"/>
      <point x="258" y="-15" type="curve" smooth="yes"/>
      <point x="286" y="-15"/>
      <point x="301" y="-6"/>
      <point x="301" y="13" type="curve" smooth="yes"/>
      <point x="301" y="520" type="line"/>
      <point x="345" y="699"/>
      <point x="429.006" y="805"/>
      <point x="531" y="805" type="curve" smooth="yes"/>
      <point x="588" y="805"/>
      <point x="613" y="773"/>
      <point x="613" y="675" type="curve" smooth="yes"/>
      <point x="613" y="13" type="line" smooth="yes"/>
      <point x="613" y="-6"/>
      <point x="628" y="-15"/>
      <point x="656" y="-15" type="curve" smooth="yes"/>
      <point x="685" y="-15"/>
      <point x="700" y="-6"/>
      <point x="700" y="13" type="curve" smooth="yes"/>
      <point x="700" y="520" type="line"/>
      <point x="744" y="699"/>
      <point x="827" y="805"/>
      <point x="930" y="805" type="curve" smooth="yes"/>
      <point x="986" y="805"/>
      <point x="1011" y="773"/>
      <point x="1011" y="675" type="curve" smooth="yes"/>
      <point x="1011" y="140" type="line" smooth="yes"/>
      <point x="1011" y="34"/>
      <point x="1031" y="-17"/>
    </contour>
  </outline>
</glyph>
<glyph name="M.cur.ini" format="2">
  <advance width="1258"/>
  <guideline y="656"/>
  <anchor x="651" y="0" name="bottom"/>
  <anchor x="1258" y="0" name="cnct"/>
  <anchor x="701" y="838" name="top"/>
  <outline>
    <contour>
      <point x="1149" y="-17" type="curve" smooth="yes"/>
      <point x="1199" y="-17"/>
      <point x="1218" y="58"/>
      <point x="1168" y="58" type="curve" smooth="yes"/>
      <point x="1118" y="58"/>
      <point x="1099" y="88"/>
      <point x="1099" y="165" type="curve" smooth="yes"/>
      <point x="1099" y="683" type="line" smooth="yes"/>
      <point x="1099" y="829"/>
      <point x="1043" y="890"/>
      <point x="934" y="890" type="curve" smooth="yes"/>
      <point x="791" y="890"/>
      <point x="673" y="730"/>
      <point x="641" y="499" type="curve"/>
      <point x="674" y="369" type="line"/>
      <point x="703" y="638"/>
      <point x="801" y="805"/>
      <point x="930" y="805" type="curve" smooth="yes"/>
      <point x="986" y="805"/>
      <point x="1011" y="773"/>
      <point x="1011" y="675" type="curve" smooth="yes"/>
      <point x="1011" y="165" type="line" smooth="yes"/>
      <point x="1011" y="41"/>
      <point x="1056" y="-17"/>
    </contour>
    <contour>
      <point x="258" y="-15" type="curve" smooth="yes"/>
      <point x="286" y="-15"/>
      <point x="301" y="-6"/>
      <point x="301" y="13" type="curve" smooth="yes"/>
      <point x="301" y="733" type="line" smooth="yes"/>
      <point x="301" y="840"/>
      <point x="269" y="890"/>
      <point x="198" y="890" type="curve" smooth="yes"/>
      <point x="124" y="890"/>
      <point x="59" y="828"/>
      <point x="14" y="714" type="curve" smooth="yes"/>
      <point x="4" y="689"/>
      <point x="9" y="676"/>
      <point x="30" y="669" type="curve" smooth="yes"/>
      <point x="58" y="659"/>
      <point x="76" y="664"/>
      <point x="85" y="684" type="curve" smooth="yes"/>
      <point x="119" y="764"/>
      <point x="154" y="805"/>
      <point x="180" y="805" type="curve" smooth="yes"/>
      <point x="205" y="805"/>
      <point x="214" y="775"/>
      <point x="214" y="734" type="curve" smooth="yes"/>
      <point x="214" y="13" type="line" smooth="yes"/>
      <point x="214" y="-6"/>
      <point x="229" y="-15"/>
    </contour>
    <contour>
      <point x="656" y="-15" type="curve" smooth="yes"/>
      <point x="685" y="-15"/>
      <point x="700" y="-6"/>
      <point x="700" y="13" type="curve" smooth="yes"/>
      <point x="700" y="683" type="line" smooth="yes"/>
      <point x="700" y="829"/>
      <point x="644" y="890"/>
      <point x="535" y="890" type="curve" smooth="yes"/>
      <point x="393" y="890"/>
      <point x="274" y="730"/>
      <point x="243" y="499" type="curve"/>
      <point x="275" y="369" type="line"/>
      <point x="304" y="638"/>
      <point x="403" y="805"/>
      <point x="531" y="805" type="curve" smooth="yes"/>
      <point x="588" y="805"/>
      <point x="613" y="773"/>
      <point x="613" y="675" type="curve" smooth="yes"/>
      <point x="613" y="13" type="line" smooth="yes"/>
      <point x="613" y="-6"/>
      <point x="628" y="-15"/>
    </contour>
  </outline>
</glyph>
<glyph name="N.cur" format="2">
  <advance width="965"/>
  <anchor x="483" y="0" name="bottom"/>
  <anchor x="483" y="838" name="top"/>
  <outline>
    <contour>
      <point x="790" y="-17" type="curve" smooth="yes"/>
      <point x="839" y="-17"/>
      <point x="908" y="34"/>
      <point x="945" y="126" type="curve" smooth="yes"/>
      <point x="953" y="149"/>
      <point x="945" y="163"/>
      <point x="928" y="169" type="curve" smooth="yes"/>
      <point x="903" y="179"/>
      <point x="885" y="175"/>
      <point x="875" y="154" type="curve" smooth="yes"/>
      <point x="851" y="103"/>
      <point x="826" y="68"/>
      <point x="798" y="68" type="curve" smooth="yes"/>
      <point x="773" y="68"/>
      <point x="763" y="86"/>
      <point x="763" y="151" type="curve" smooth="yes"/>
      <point x="763" y="658" type="line" smooth="yes"/>
      <point x="763" y="821"/>
      <point x="703" y="890"/>
      <point x="585" y="890" type="curve" smooth="yes"/>
      <point x="466" y="890"/>
      <point x="361" y="802"/>
      <point x="301" y="661" type="curve"/>
      <point x="301" y="733" type="line" smooth="yes"/>
      <point x="301" y="840"/>
      <point x="269" y="890"/>
      <point x="198" y="890" type="curve" smooth="yes"/>
      <point x="124" y="890"/>
      <point x="59" y="828"/>
      <point x="14" y="714" type="curve" smooth="yes"/>
      <point x="4" y="689"/>
      <point x="9" y="676"/>
      <point x="30" y="669" type="curve" smooth="yes"/>
      <point x="58" y="659"/>
      <point x="76" y="664"/>
      <point x="85" y="684" type="curve" smooth="yes"/>
      <point x="119" y="764"/>
      <point x="154" y="805"/>
      <point x="180" y="805" type="curve" smooth="yes"/>
      <point x="205" y="805"/>
      <point x="214" y="775"/>
      <point x="214" y="734" type="curve" smooth="yes"/>
      <point x="214" y="13" type="line" smooth="yes"/>
      <point x="214" y="-6"/>
      <point x="229" y="-15"/>
      <point x="258" y="-15" type="curve" smooth="yes"/>
      <point x="286" y="-15"/>
      <point x="301" y="-6"/>
      <point x="301" y="13" type="curve" smooth="yes"/>
      <point x="301" y="452" type="line"/>
      <point x="345" y="672"/>
      <point x="450" y="805"/>
      <point x="581" y="805" type="curve" smooth="yes"/>
      <point x="646" y="805"/>
      <point x="675" y="766"/>
      <point x="675" y="650" type="curve" smooth="yes"/>
      <point x="675" y="140" type="line" smooth="yes"/>
      <point x="675" y="34"/>
      <point x="695" y="-17"/>
    </contour>
  </outline>
</glyph>
<glyph name="N.cur.ini" format="2">
  <advance width="921"/>
  <anchor x="483" y="0" name="bottom"/>
  <anchor x="921" y="0" name="cnct"/>
  <anchor x="478" y="838" name="top"/>
  <outline>
    <contour>
      <point x="813" y="-17" type="curve" smooth="yes"/>
      <point x="863" y="-17"/>
      <point x="881" y="58"/>
      <point x="831" y="58" type="curve" smooth="yes"/>
      <point x="781" y="58"/>
      <point x="763" y="88"/>
      <point x="763" y="165" type="curve" smooth="yes"/>
      <point x="763" y="658" type="line" smooth="yes"/>
      <point x="763" y="821"/>
      <point x="703" y="890"/>
      <point x="585" y="890" type="curve" smooth="yes"/>
      <point x="466" y="890"/>
      <point x="361" y="802"/>
      <point x="301" y="661" type="curve"/>
      <point x="301" y="733" type="line" smooth="yes"/>
      <point x="301" y="840"/>
      <point x="269" y="890"/>
      <point x="198" y="890" type="curve" smooth="yes"/>
      <point x="124" y="890"/>
      <point x="59" y="828"/>
      <point x="14" y="714" type="curve" smooth="yes"/>
      <point x="4" y="689"/>
      <point x="9" y="676"/>
      <point x="30" y="669" type="curve" smooth="yes"/>
      <point x="58" y="659"/>
      <point x="76" y="664"/>
      <point x="85" y="684" type="curve" smooth="yes"/>
      <point x="119" y="764"/>
      <point x="154" y="805"/>
      <point x="180" y="805" type="curve" smooth="yes"/>
      <point x="205" y="805"/>
      <point x="214" y="775"/>
      <point x="214" y="734" type="curve" smooth="yes"/>
      <point x="214" y="13" type="line" smooth="yes"/>
      <point x="214" y="-6"/>
      <point x="229" y="-15"/>
      <point x="258" y="-15" type="curve" smooth="yes"/>
      <point x="286" y="-15"/>
      <point x="301" y="-6"/>
      <point x="301" y="13" type="curve" smooth="yes"/>
      <point x="301" y="452" type="line"/>
      <point x="345" y="672"/>
      <point x="450" y="805"/>
      <point x="581" y="805" type="curve" smooth="yes"/>
      <point x="646" y="805"/>
      <point x="675" y="766"/>
      <point x="675" y="650" type="curve" smooth="yes"/>
      <point x="675" y="165" type="line" smooth="yes"/>
      <point x="675" y="41"/>
      <point x="720" y="-17"/>
    </contour>
  </outline>
</glyph>
<glyph name="N.dec" format="2">
  <advance width="1093"/>
  <anchor x="534" y="0" name="bottom"/>
  <anchor x="621" y="838" name="top"/>
  <outline>
    <contour>
      <point x="176" y="-17" type="curve" smooth="yes"/>
      <point x="324" y="-17"/>
      <point x="371" y="148"/>
      <point x="371" y="634" type="curve" smooth="yes"/>
      <point x="371" y="694" type="line"/>
      <point x="746" y="15" type="line" smooth="yes"/>
      <point x="760" y="-10"/>
      <point x="770" y="-14"/>
      <point x="791" y="-14" type="curve" smooth="yes"/>
      <point x="819" y="-14"/>
      <point x="834" y="-5"/>
      <point x="834" y="14" type="curve" smooth="yes"/>
      <point x="834" y="384" type="line" smooth="yes"/>
      <point x="834" y="718"/>
      <point x="856" y="808"/>
      <point x="939" y="808" type="curve" smooth="yes"/>
      <point x="978" y="808"/>
      <point x="1023" y="793"/>
      <point x="1059" y="771" type="curve" smooth="yes"/>
      <point x="1073" y="763"/>
      <point x="1093" y="765"/>
      <point x="1104" y="786" type="curve" smooth="yes"/>
      <point x="1118" y="811"/>
      <point x="1115" y="828"/>
      <point x="1096" y="839" type="curve" smooth="yes"/>
      <point x="1048" y="870"/>
      <point x="989" y="890"/>
      <point x="939" y="890" type="curve" smooth="yes"/>
      <point x="788" y="890"/>
      <point x="746" y="783"/>
      <point x="746" y="384" type="curve" smooth="yes"/>
      <point x="746" y="193" type="line"/>
      <point x="378" y="861" type="line" smooth="yes"/>
      <point x="366" y="881"/>
      <point x="351" y="890"/>
      <point x="328" y="890" type="curve" smooth="yes"/>
      <point x="299" y="890"/>
      <point x="284" y="881"/>
      <point x="284" y="863" type="curve" smooth="yes"/>
      <point x="284" y="635" type="line" smooth="yes"/>
      <point x="284" y="209"/>
      <point x="253" y="65"/>
      <point x="176" y="65" type="curve" smooth="yes"/>
      <point x="130" y="65"/>
      <point x="113" y="109"/>
      <point x="113" y="165" type="curve" smooth="yes"/>
      <point x="113" y="194"/>
      <point x="114" y="224"/>
      <point x="119" y="253" type="curve" smooth="yes"/>
      <point x="121" y="270"/>
      <point x="108" y="281"/>
      <point x="79" y="285" type="curve" smooth="yes"/>
      <point x="55" y="288"/>
      <point x="43" y="280"/>
      <point x="38" y="263" type="curve" smooth="yes"/>
      <point x="28" y="224"/>
      <point x="26" y="190"/>
      <point x="26" y="159" type="curve" smooth="yes"/>
      <point x="26" y="59"/>
      <point x="80" y="-17"/>
    </contour>
  </outline>
</glyph>
<glyph name="O.cur" format="2">
  <advance width="929"/>
  <anchor x="463" y="0" name="bottom"/>
  <anchor x="463" y="438" name="center"/>
  <anchor x="591" y="6" name="ogonek"/>
  <anchor x="463" y="838" name="top"/>
  <anchor x="645" y="875" name="topright"/>
  <outline>
    <contour>
      <point x="459" y="-19" type="curve" smooth="yes"/>
      <point x="695" y="-19"/>
      <point x="858" y="171"/>
      <point x="858" y="448" type="curve" smooth="yes"/>
      <point x="858" y="719"/>
      <point x="740" y="890"/>
      <point x="556" y="890" type="curve" smooth="yes"/>
      <point x="433" y="890"/>
      <point x="328" y="818"/>
      <point x="264" y="673" type="curve" smooth="yes"/>
      <point x="253" y="648"/>
      <point x="258" y="626"/>
      <point x="278" y="618" type="curve" smooth="yes"/>
      <point x="299" y="608"/>
      <point x="318" y="608"/>
      <point x="329" y="630" type="curve" smooth="yes"/>
      <point x="381" y="740"/>
      <point x="443" y="806"/>
      <point x="550" y="806" type="curve" smooth="yes"/>
      <point x="683" y="806"/>
      <point x="765" y="666"/>
      <point x="765" y="445" type="curve" smooth="yes"/>
      <point x="765" y="221"/>
      <point x="640" y="66"/>
      <point x="460" y="66" type="curve" smooth="yes"/>
      <point x="281" y="66"/>
      <point x="163" y="213"/>
      <point x="163" y="444" type="curve" smooth="yes"/>
      <point x="163" y="590"/>
      <point x="204" y="710"/>
      <point x="271" y="780" type="curve" smooth="yes"/>
      <point x="289" y="798"/>
      <point x="291" y="811"/>
      <point x="275" y="831" type="curve" smooth="yes"/>
      <point x="256" y="854"/>
      <point x="240" y="853"/>
      <point x="219" y="834" type="curve" smooth="yes"/>
      <point x="121" y="746"/>
      <point x="70" y="605"/>
      <point x="70" y="444" type="curve" smooth="yes"/>
      <point x="70" y="165"/>
      <point x="225" y="-19"/>
    </contour>
  </outline>
</glyph>
<glyph name="O.dec" format="2">
  <advance width="988"/>
  <anchor x="463" y="0" name="bottom"/>
  <anchor x="463" y="438" name="center"/>
  <anchor x="591" y="6" name="ogonek"/>
  <anchor x="463" y="838" name="top"/>
  <anchor x="615" y="875" name="topright"/>
  <outline>
    <contour>
      <point x="471" y="890" type="curve" smooth="yes"/>
      <point x="329" y="890"/>
      <point x="255" y="795"/>
      <point x="255" y="713" type="curve" smooth="yes"/>
      <point x="255" y="565"/>
      <point x="376" y="475"/>
      <point x="574" y="475" type="curve" smooth="yes"/>
      <point x="708" y="479"/>
      <point x="826" y="516"/>
      <point x="993" y="579" type="curve" smooth="yes"/>
      <point x="1015" y="588"/>
      <point x="1024" y="605"/>
      <point x="1015" y="631" type="curve" smooth="yes"/>
      <point x="1005" y="654"/>
      <point x="989" y="659"/>
      <point x="970" y="651" type="curve" smooth="yes"/>
      <point x="826" y="599"/>
      <point x="698" y="561"/>
      <point x="574" y="558" type="curve" smooth="yes"/>
      <point x="433" y="558"/>
      <point x="346" y="616"/>
      <point x="346" y="713" type="curve" smooth="yes"/>
      <point x="346" y="760"/>
      <point x="373" y="805"/>
      <point x="471" y="805" type="curve" smooth="yes"/>
      <point x="650" y="805"/>
      <point x="769" y="673"/>
      <point x="769" y="448" type="curve" smooth="yes"/>
      <point x="769" y="221"/>
      <point x="640" y="66"/>
      <point x="454" y="66" type="curve" smooth="yes"/>
      <point x="271" y="66"/>
      <point x="160" y="214"/>
      <point x="160" y="436" type="curve" smooth="yes"/>
      <point x="160" y="684"/>
      <point x="263" y="776"/>
      <point x="394" y="820" type="curve" smooth="yes"/>
      <point x="426" y="831"/>
      <point x="439" y="844"/>
      <point x="431" y="865" type="curve" smooth="yes"/>
      <point x="424" y="886"/>
      <point x="413" y="899"/>
      <point x="376" y="890" type="curve" smooth="yes"/>
      <point x="220" y="850"/>
      <point x="69" y="716"/>
      <point x="69" y="436" type="curve" smooth="yes"/>
      <point x="69" y="164"/>
      <point x="218" y="-19"/>
      <point x="454" y="-19" type="curve" smooth="yes"/>
      <point x="695" y="-19"/>
      <point x="860" y="171"/>
      <point x="860" y="448" type="curve" smooth="yes"/>
      <point x="860" y="720"/>
      <point x="709" y="890"/>
    </contour>
  </outline>
</glyph>
<glyph name="OE.cur.ini" format="2">
  <advance width="1328"/>
  <anchor x="1329" y="0" name="cnct"/>
  <anchor x="750" y="838" name="top"/>
  <outline>
    <contour>
      <point x="420" y="-19" type="curve" smooth="yes"/>
      <point x="639" y="-19"/>
      <point x="795" y="171"/>
      <point x="795" y="448" type="curve" smooth="yes"/>
      <point x="795" y="719"/>
      <point x="699" y="890"/>
      <point x="530" y="890" type="curve" smooth="yes"/>
      <point x="418" y="890"/>
      <point x="323" y="818"/>
      <point x="260" y="673" type="curve" smooth="yes"/>
      <point x="249" y="648"/>
      <point x="254" y="626"/>
      <point x="274" y="618" type="curve" smooth="yes"/>
      <point x="295" y="608"/>
      <point x="315" y="608"/>
      <point x="325" y="630" type="curve" smooth="yes"/>
      <point x="376" y="740"/>
      <point x="428" y="806"/>
      <point x="524" y="806" type="curve" smooth="yes"/>
      <point x="641" y="806"/>
      <point x="703" y="666"/>
      <point x="703" y="445" type="curve" smooth="yes"/>
      <point x="703" y="221"/>
      <point x="584" y="66"/>
      <point x="421" y="66" type="curve" smooth="yes"/>
      <point x="263" y="66"/>
      <point x="163" y="213"/>
      <point x="163" y="444" type="curve" smooth="yes"/>
      <point x="163" y="590"/>
      <point x="203" y="710"/>
      <point x="264" y="780" type="curve" smooth="yes"/>
      <point x="280" y="799"/>
      <point x="284" y="811"/>
      <point x="268" y="831" type="curve" smooth="yes"/>
      <point x="249" y="854"/>
      <point x="231" y="854"/>
      <point x="211" y="834" type="curve" smooth="yes"/>
      <point x="120" y="746"/>
      <point x="70" y="605"/>
      <point x="70" y="444" type="curve" smooth="yes"/>
      <point x="70" y="165"/>
      <point x="206" y="-19"/>
    </contour>
    <contour>
      <point x="992" y="-17" type="curve" smooth="yes"/>
      <point x="1032" y="-17"/>
      <point x="1032" y="58"/>
      <point x="992" y="58" type="curve" smooth="yes"/>
      <point x="875" y="58"/>
      <point x="804" y="122"/>
      <point x="804" y="228" type="curve" smooth="yes"/>
      <point x="804" y="358"/>
      <point x="912" y="419"/>
      <point x="1041" y="419" type="curve" smooth="yes"/>
      <point x="1141" y="419" type="line" smooth="yes"/>
      <point x="1161" y="419"/>
      <point x="1169" y="429"/>
      <point x="1169" y="459" type="curve" smooth="yes"/>
      <point x="1169" y="489"/>
      <point x="1161" y="499"/>
      <point x="1141" y="499" type="curve" smooth="yes"/>
      <point x="1038" y="499" type="line" smooth="yes"/>
      <point x="938" y="499"/>
      <point x="890" y="568"/>
      <point x="890" y="659" type="curve" smooth="yes"/>
      <point x="890" y="753"/>
      <point x="948" y="803"/>
      <point x="1040" y="803" type="curve" smooth="yes"/>
      <point x="1108" y="803"/>
      <point x="1163" y="774"/>
      <point x="1199" y="739" type="curve" smooth="yes"/>
      <point x="1219" y="720"/>
      <point x="1234" y="716"/>
      <point x="1253" y="731" type="curve" smooth="yes"/>
      <point x="1276" y="750"/>
      <point x="1278" y="768"/>
      <point x="1253" y="795" type="curve" smooth="yes"/>
      <point x="1200" y="855"/>
      <point x="1125" y="890"/>
      <point x="1043" y="890" type="curve" smooth="yes"/>
      <point x="908" y="890"/>
      <point x="800" y="800"/>
      <point x="800" y="658" type="curve" smooth="yes"/>
      <point x="800" y="568"/>
      <point x="835" y="493"/>
      <point x="930" y="463" type="curve"/>
      <point x="805" y="437"/>
      <point x="713" y="357"/>
      <point x="713" y="224" type="curve" smooth="yes"/>
      <point x="713" y="73"/>
      <point x="818" y="-17"/>
    </contour>
  </outline>
</glyph>
<glyph name="P.cur" format="2">
  <advance width="828"/>
  <guideline x="71"/>
  <outline>
    <contour>
      <point x="408" y="331" type="curve" smooth="yes"/>
      <point x="650" y="343"/>
      <point x="805" y="468"/>
      <point x="805" y="649" type="curve" smooth="yes"/>
      <point x="805" y="804"/>
      <point x="684" y="890"/>
      <point x="476" y="890" type="curve" smooth="yes"/>
      <point x="340" y="890"/>
      <point x="160" y="833"/>
      <point x="76" y="683" type="curve" smooth="yes"/>
      <point x="63" y="658"/>
      <point x="68" y="645"/>
      <point x="88" y="636" type="curve" smooth="yes"/>
      <point x="114" y="625"/>
      <point x="126" y="634"/>
      <point x="140" y="653" type="curve" smooth="yes"/>
      <point x="231" y="774"/>
      <point x="360" y="810"/>
      <point x="476" y="810" type="curve" smooth="yes"/>
      <point x="613" y="810"/>
      <point x="714" y="759"/>
      <point x="714" y="649" type="curve" smooth="yes"/>
      <point x="714" y="508"/>
      <point x="596" y="413"/>
      <point x="401" y="405" type="curve" smooth="yes"/>
      <point x="381" y="404"/>
      <point x="375" y="388"/>
      <point x="375" y="368" type="curve" smooth="yes"/>
      <point x="375" y="348"/>
      <point x="385" y="330"/>
    </contour>
    <contour>
      <point x="198" y="-17" type="curve" smooth="yes"/>
      <point x="294" y="-17"/>
      <point x="339" y="49"/>
      <point x="339" y="160" type="curve" smooth="yes"/>
      <point x="339" y="693" type="line" smooth="yes"/>
      <point x="339" y="711"/>
      <point x="324" y="720"/>
      <point x="295" y="720" type="curve" smooth="yes"/>
      <point x="266" y="720"/>
      <point x="251" y="711"/>
      <point x="251" y="693" type="curve" smooth="yes"/>
      <point x="251" y="165" type="line" smooth="yes"/>
      <point x="251" y="91"/>
      <point x="236" y="68"/>
      <point x="196" y="68" type="curve" smooth="yes"/>
      <point x="159" y="68"/>
      <point x="128" y="86"/>
      <point x="93" y="149" type="curve" smooth="yes"/>
      <point x="81" y="170"/>
      <point x="65" y="179"/>
      <point x="43" y="169" type="curve" smooth="yes"/>
      <point x="11" y="155"/>
      <point x="16" y="135"/>
      <point x="28" y="110" type="curve" smooth="yes"/>
      <point x="51" y="56"/>
      <point x="114" y="-17"/>
    </contour>
  </outline>
</glyph>
<glyph name="Q.cur.ini" format="2">
  <advance width="941"/>
  <anchor x="941" y="0" name="cnct"/>
  <outline>
    <contour>
      <point x="836" y="-17" type="curve" smooth="yes"/>
      <point x="893" y="-17"/>
      <point x="890" y="58"/>
      <point x="853" y="58" type="curve" smooth="yes"/>
      <point x="719" y="58"/>
      <point x="586" y="284"/>
      <point x="383" y="284" type="curve" smooth="yes"/>
      <point x="298" y="284"/>
      <point x="239" y="220"/>
      <point x="241" y="145" type="curve" smooth="yes"/>
      <point x="244" y="48"/>
      <point x="348" y="-19"/>
      <point x="459" y="-19" type="curve" smooth="yes"/>
      <point x="681" y="-19"/>
      <point x="844" y="173"/>
      <point x="844" y="430" type="curve" smooth="yes"/>
      <point x="844" y="709"/>
      <point x="700" y="890"/>
      <point x="460" y="890" type="curve" smooth="yes"/>
      <point x="230" y="890"/>
      <point x="69" y="703"/>
      <point x="69" y="443" type="curve" smooth="yes"/>
      <point x="69" y="351"/>
      <point x="90" y="255"/>
      <point x="131" y="191" type="curve" smooth="yes"/>
      <point x="150" y="161"/>
      <point x="219" y="181"/>
      <point x="198" y="228" type="curve" smooth="yes"/>
      <point x="173" y="283"/>
      <point x="160" y="371"/>
      <point x="160" y="443" type="curve" smooth="yes"/>
      <point x="160" y="653"/>
      <point x="284" y="805"/>
      <point x="460" y="805" type="curve" smooth="yes"/>
      <point x="646" y="805"/>
      <point x="753" y="658"/>
      <point x="753" y="430" type="curve" smooth="yes"/>
      <point x="753" y="203"/>
      <point x="614" y="64"/>
      <point x="460" y="64" type="curve" smooth="yes"/>
      <point x="388" y="64"/>
      <point x="331" y="100"/>
      <point x="330" y="146" type="curve" smooth="yes"/>
      <point x="329" y="178"/>
      <point x="350" y="200"/>
      <point x="385" y="200" type="curve" smooth="yes"/>
      <point x="551" y="200"/>
      <point x="668" y="-17"/>
    </contour>
  </outline>
</glyph>
<glyph name="Q.cur_locl" format="2">
  <advance width="954"/>
  <anchor x="463" y="0" name="bottom"/>
  <anchor x="463" y="438" name="center"/>
  <anchor x="591" y="6" name="ogonek"/>
  <anchor x="463" y="838" name="top"/>
  <anchor x="568" y="875" name="topright"/>
  <outline>
    <contour>
      <point x="766" y="-112" type="curve" smooth="yes"/>
      <point x="839" y="-112"/>
      <point x="899" y="-69"/>
      <point x="945" y="26" type="curve" smooth="yes"/>
      <point x="958" y="53"/>
      <point x="953" y="70"/>
      <point x="929" y="84" type="curve" smooth="yes"/>
      <point x="905" y="95"/>
      <point x="889" y="88"/>
      <point x="878" y="63" type="curve" smooth="yes"/>
      <point x="850" y="0"/>
      <point x="814" y="-30"/>
      <point x="774" y="-30" type="curve" smooth="yes"/>
      <point x="678" y="-30"/>
      <point x="579" y="284"/>
      <point x="420" y="284" type="curve" smooth="yes"/>
      <point x="368" y="284"/>
      <point x="370" y="200"/>
      <point x="423" y="200" type="curve" smooth="yes"/>
      <point x="524" y="200"/>
      <point x="624" y="-112"/>
    </contour>
    <component base="O"/>
  </outline>
</glyph>
<glyph name="Q.cur_locl.ini" format="2">
  <advance width="954"/>
  <anchor x="954" y="0" name="cnct"/>
  <anchor x="463" y="0" name="bottom"/>
  <anchor x="463" y="438" name="center"/>
  <anchor x="591" y="6" name="ogonek"/>
  <anchor x="463" y="838" name="top"/>
  <anchor x="568" y="875" name="topright"/>
  <outline>
    <contour>
      <point x="849" y="-17" type="curve" smooth="yes"/>
      <point x="899" y="-17"/>
      <point x="915" y="58"/>
      <point x="865" y="58" type="curve" smooth="yes"/>
      <point x="753" y="58"/>
      <point x="644" y="284"/>
      <point x="420" y="284" type="curve" smooth="yes"/>
      <point x="368" y="284"/>
      <point x="370" y="200"/>
      <point x="423" y="200" type="curve" smooth="yes"/>
      <point x="613" y="200"/>
      <point x="714" y="-17"/>
    </contour>
    <component base="O"/>
  </outline>
</glyph>
<glyph name="Q.dec.ini" format="2">
  <advance width="948"/>
  <anchor x="948" y="0" name="cnct"/>
  <outline>
    <contour>
      <point x="428" y="-17" type="curve" smooth="yes"/>
      <point x="523" y="-17"/>
      <point x="613" y="21"/>
      <point x="685" y="86" type="curve"/>
      <point x="725" y="30"/>
      <point x="770" y="-17"/>
      <point x="840" y="-17" type="curve" smooth="yes"/>
      <point x="890" y="-17"/>
      <point x="906" y="58"/>
      <point x="856" y="58" type="curve" smooth="yes"/>
      <point x="814" y="58"/>
      <point x="781" y="100"/>
      <point x="746" y="153" type="curve"/>
      <point x="816" y="243"/>
      <point x="860" y="360"/>
      <point x="860" y="488" type="curve" smooth="yes"/>
      <point x="860" y="691"/>
      <point x="749" y="808"/>
      <point x="593" y="808" type="curve" smooth="yes"/>
      <point x="398" y="808"/>
      <point x="323" y="604"/>
      <point x="323" y="456" type="curve" smooth="yes"/>
      <point x="323" y="395"/>
      <point x="328" y="344"/>
      <point x="338" y="290" type="curve"/>
      <point x="319" y="275"/>
      <point x="308" y="255"/>
      <point x="308" y="230" type="curve" smooth="yes"/>
      <point x="308" y="193"/>
      <point x="338" y="171"/>
      <point x="369" y="171" type="curve" smooth="yes"/>
      <point x="403" y="171"/>
      <point x="443" y="200"/>
      <point x="431" y="261" type="curve"/>
      <point x="533" y="298"/>
      <point x="588" y="235"/>
      <point x="636" y="160" type="curve"/>
      <point x="579" y="104"/>
      <point x="505" y="70"/>
      <point x="428" y="70" type="curve" smooth="yes"/>
      <point x="249" y="70"/>
      <point x="160" y="228"/>
      <point x="160" y="411" type="curve" smooth="yes"/>
      <point x="160" y="630"/>
      <point x="275" y="764"/>
      <point x="420" y="815" type="curve" smooth="yes"/>
      <point x="450" y="825"/>
      <point x="458" y="841"/>
      <point x="446" y="870" type="curve" smooth="yes"/>
      <point x="438" y="893"/>
      <point x="420" y="896"/>
      <point x="389" y="885" type="curve" smooth="yes"/>
      <point x="210" y="828"/>
      <point x="69" y="666"/>
      <point x="69" y="411" type="curve" smooth="yes"/>
      <point x="69" y="179"/>
      <point x="193" y="-17"/>
    </contour>
    <contour>
      <point x="593" y="723" type="curve" smooth="yes"/>
      <point x="691" y="723"/>
      <point x="769" y="641"/>
      <point x="769" y="488" type="curve" smooth="yes"/>
      <point x="769" y="391"/>
      <point x="740" y="301"/>
      <point x="694" y="230" type="curve"/>
      <point x="634" y="311"/>
      <point x="556" y="381"/>
      <point x="419" y="334" type="curve"/>
      <point x="413" y="375"/>
      <point x="411" y="415"/>
      <point x="411" y="458" type="curve" smooth="yes"/>
      <point x="411" y="563"/>
      <point x="456" y="723"/>
    </contour>
  </outline>
</glyph>
<glyph name="R.cur.ini" format="2">
  <advance width="889"/>
  <guideline x="68"/>
  <anchor x="504" y="0" name="bottom"/>
  <anchor x="889" y="0" name="cnct"/>
  <anchor x="479" y="838" name="top"/>
  <outline>
    <contour>
      <point x="780" y="-17" type="curve" smooth="yes"/>
      <point x="830" y="-17"/>
      <point x="848" y="58"/>
      <point x="798" y="58" type="curve" smooth="yes"/>
      <point x="735" y="58"/>
      <point x="698" y="109"/>
      <point x="629" y="226" type="curve" smooth="yes"/>
      <point x="596" y="281"/>
      <point x="568" y="336"/>
      <point x="540" y="391" type="curve"/>
      <point x="691" y="436"/>
      <point x="788" y="539"/>
      <point x="788" y="660" type="curve" smooth="yes"/>
      <point x="788" y="804"/>
      <point x="675" y="890"/>
      <point x="474" y="890" type="curve" smooth="yes"/>
      <point x="340" y="890"/>
      <point x="160" y="833"/>
      <point x="76" y="683" type="curve" smooth="yes"/>
      <point x="63" y="658"/>
      <point x="68" y="645"/>
      <point x="88" y="636" type="curve" smooth="yes"/>
      <point x="114" y="625"/>
      <point x="126" y="634"/>
      <point x="140" y="653" type="curve" smooth="yes"/>
      <point x="231" y="774"/>
      <point x="360" y="810"/>
      <point x="474" y="810" type="curve" smooth="yes"/>
      <point x="603" y="810"/>
      <point x="696" y="759"/>
      <point x="696" y="660" type="curve" smooth="yes"/>
      <point x="696" y="570"/>
      <point x="624" y="493"/>
      <point x="506" y="459" type="curve"/>
      <point x="485" y="475"/>
      <point x="464" y="488"/>
      <point x="439" y="488" type="curve" smooth="yes"/>
      <point x="395" y="488"/>
      <point x="379" y="460"/>
      <point x="379" y="434" type="curve" smooth="yes"/>
      <point x="379" y="400"/>
      <point x="411" y="378"/>
      <point x="453" y="376" type="curve"/>
      <point x="488" y="306"/>
      <point x="525" y="235"/>
      <point x="566" y="165" type="curve" smooth="yes"/>
      <point x="645" y="33"/>
      <point x="700" y="-17"/>
    </contour>
    <contour>
      <point x="199" y="-17" type="curve" smooth="yes"/>
      <point x="298" y="-17"/>
      <point x="339" y="49"/>
      <point x="339" y="160" type="curve" smooth="yes"/>
      <point x="339" y="693" type="line" smooth="yes"/>
      <point x="339" y="711"/>
      <point x="324" y="720"/>
      <point x="295" y="720" type="curve" smooth="yes"/>
      <point x="266" y="720"/>
      <point x="251" y="711"/>
      <point x="251" y="693" type="curve" smooth="yes"/>
      <point x="251" y="165" type="line" smooth="yes"/>
      <point x="251" y="89"/>
      <point x="239" y="68"/>
      <point x="201" y="68" type="curve" smooth="yes"/>
      <point x="158" y="68"/>
      <point x="108" y="106"/>
      <point x="76" y="180" type="curve" smooth="yes"/>
      <point x="68" y="201"/>
      <point x="51" y="210"/>
      <point x="29" y="200" type="curve" smooth="yes"/>
      <point x="-2" y="186"/>
      <point x="4" y="166"/>
      <point x="13" y="141" type="curve" smooth="yes"/>
      <point x="43" y="56"/>
      <point x="115" y="-17"/>
    </contour>
  </outline>
</glyph>
<glyph name="S.cur" format="2">
  <advance width="893"/>
  <anchor x="509" y="0" name="bottom"/>
  <anchor x="459" y="875" name="top"/>
  <outline>
    <contour>
      <point x="618" y="-19" type="curve" smooth="yes"/>
      <point x="763" y="-19"/>
      <point x="855" y="75"/>
      <point x="855" y="229" type="curve" smooth="yes"/>
      <point x="855" y="406"/>
      <point x="609" y="583"/>
      <point x="535" y="651" type="curve"/>
      <point x="573" y="745"/>
      <point x="578" y="782"/>
      <point x="578" y="826" type="curve" smooth="yes"/>
      <point x="578" y="906"/>
      <point x="528" y="956"/>
      <point x="455" y="956" type="curve" smooth="yes"/>
      <point x="384" y="956"/>
      <point x="333" y="903"/>
      <point x="333" y="824" type="curve" smooth="yes"/>
      <point x="333" y="756"/>
      <point x="378" y="692"/>
      <point x="438" y="630" type="curve"/>
      <point x="232" y="110"/>
      <point x="176" y="68"/>
      <point x="59" y="68" type="curve" smooth="yes"/>
      <point x="30" y="68"/>
      <point x="19" y="56"/>
      <point x="19" y="28" type="curve" smooth="yes"/>
      <point x="19" y="-1"/>
      <point x="30" y="-12"/>
      <point x="59" y="-12" type="curve" smooth="yes"/>
      <point x="259" y="-12"/>
      <point x="315" y="97"/>
      <point x="502" y="568" type="curve"/>
      <point x="656" y="434"/>
      <point x="766" y="344"/>
      <point x="766" y="228" type="curve" smooth="yes"/>
      <point x="766" y="129"/>
      <point x="706" y="68"/>
      <point x="616" y="68" type="curve" smooth="yes"/>
      <point x="550" y="68"/>
      <point x="494" y="94"/>
      <point x="439" y="143" type="curve" smooth="yes"/>
      <point x="421" y="159"/>
      <point x="406" y="160"/>
      <point x="388" y="141" type="curve" smooth="yes"/>
      <point x="374" y="128"/>
      <point x="366" y="109"/>
      <point x="384" y="86" type="curve" smooth="yes"/>
      <point x="438" y="19"/>
      <point x="515" y="-19"/>
    </contour>
    <contour>
      <point x="471" y="714" type="curve"/>
      <point x="431" y="758"/>
      <point x="414" y="791"/>
      <point x="414" y="829" type="curve" smooth="yes"/>
      <point x="414" y="865"/>
      <point x="429" y="881"/>
      <point x="455" y="881" type="curve" smooth="yes"/>
      <point x="479" y="881"/>
      <point x="495" y="859"/>
      <point x="495" y="824" type="curve" smooth="yes"/>
      <point x="495" y="795"/>
      <point x="487" y="760"/>
    </contour>
  </outline>
</glyph>
<glyph name="S.dec" format="2">
  <advance width="861"/>
  <anchor x="293" y="0" name="bottom"/>
  <anchor x="606" y="875" name="top"/>
  <outline>
    <contour>
      <point x="294" y="-19" type="curve" smooth="yes"/>
      <point x="411" y="-19"/>
      <point x="484" y="61"/>
      <point x="484" y="194" type="curve" smooth="yes"/>
      <point x="484" y="520" type="line" smooth="yes"/>
      <point x="484" y="706"/>
      <point x="545" y="805"/>
      <point x="646" y="805" type="curve" smooth="yes"/>
      <point x="695" y="805"/>
      <point x="730" y="770"/>
      <point x="730" y="723" type="curve" smooth="yes"/>
      <point x="730" y="590"/>
      <point x="586" y="494"/>
      <point x="389" y="494" type="curve" smooth="yes"/>
      <point x="276" y="494"/>
      <point x="165" y="520"/>
      <point x="64" y="563" type="curve" smooth="yes"/>
      <point x="46" y="571"/>
      <point x="29" y="561"/>
      <point x="20" y="538" type="curve" smooth="yes"/>
      <point x="11" y="515"/>
      <point x="18" y="498"/>
      <point x="35" y="489" type="curve" smooth="yes"/>
      <point x="161" y="439"/>
      <point x="263" y="415"/>
      <point x="386" y="415" type="curve" smooth="yes"/>
      <point x="639" y="415"/>
      <point x="821" y="546"/>
      <point x="821" y="726" type="curve" smooth="yes"/>
      <point x="821" y="821"/>
      <point x="749" y="890"/>
      <point x="649" y="890" type="curve" smooth="yes"/>
      <point x="491" y="890"/>
      <point x="396" y="760"/>
      <point x="396" y="520" type="curve" smooth="yes"/>
      <point x="396" y="195" type="line" smooth="yes"/>
      <point x="396" y="110"/>
      <point x="361" y="66"/>
      <point x="293" y="66" type="curve" smooth="yes"/>
      <point x="231" y="66"/>
      <point x="190" y="88"/>
      <point x="144" y="144" type="curve" smooth="yes"/>
      <point x="126" y="165"/>
      <point x="111" y="169"/>
      <point x="91" y="156" type="curve" smooth="yes"/>
      <point x="65" y="140"/>
      <point x="60" y="124"/>
      <point x="75" y="101" type="curve" smooth="yes"/>
      <point x="131" y="19"/>
      <point x="199" y="-19"/>
    </contour>
  </outline>
</glyph>
<glyph name="T.cur" format="2">
  <advance width="721"/>
  <guideline x="1"/>
  <guideline y="91"/>
  <anchor x="361" y="0" name="bottom"/>
  <anchor x="374" y="438" name="center"/>
  <anchor x="386" y="838" name="top"/>
  <outline>
    <contour>
      <point x="446" y="-17" type="curve" smooth="yes"/>
      <point x="519" y="-17"/>
      <point x="599" y="13"/>
      <point x="668" y="134" type="curve" smooth="yes"/>
      <point x="681" y="158"/>
      <point x="681" y="176"/>
      <point x="658" y="190" type="curve" smooth="yes"/>
      <point x="636" y="203"/>
      <point x="621" y="201"/>
      <point x="605" y="175" type="curve" smooth="yes"/>
      <point x="556" y="96"/>
      <point x="514" y="68"/>
      <point x="448" y="68" type="curve" smooth="yes"/>
      <point x="348" y="68"/>
      <point x="284" y="146"/>
      <point x="284" y="279" type="curve" smooth="yes"/>
      <point x="284" y="451"/>
      <point x="378" y="684"/>
      <point x="480" y="795" type="curve"/>
      <point x="694" y="795" type="line" smooth="yes"/>
      <point x="714" y="795"/>
      <point x="721" y="805"/>
      <point x="721" y="835" type="curve" smooth="yes"/>
      <point x="721" y="865"/>
      <point x="714" y="875"/>
      <point x="694" y="875" type="curve" smooth="yes"/>
      <point x="208" y="875" type="line" smooth="yes"/>
      <point x="76" y="875"/>
      <point x="18" y="763"/>
      <point x="1" y="694" type="curve" smooth="yes"/>
      <point x="-5" y="668"/>
      <point x="1" y="655"/>
      <point x="29" y="650" type="curve" smooth="yes"/>
      <point x="54" y="645"/>
      <point x="65" y="655"/>
      <point x="75" y="679" type="curve" smooth="yes"/>
      <point x="96" y="730"/>
      <point x="133" y="795"/>
      <point x="208" y="795" type="curve" smooth="yes"/>
      <point x="384" y="795" type="line"/>
      <point x="278" y="669"/>
      <point x="198" y="453"/>
      <point x="198" y="274" type="curve" smooth="yes"/>
      <point x="198" y="91"/>
      <point x="285" y="-17"/>
    </contour>
  </outline>
</glyph>
<glyph name="T.cur_locl" format="2">
  <advance width="921"/>
  <anchor x="511" y="0" name="bottom"/>
  <anchor x="511" y="438" name="center"/>
  <anchor x="511" y="838" name="top"/>
  <outline>
    <contour>
      <point x="538" y="-17" type="curve" smooth="yes"/>
      <point x="645" y="-17"/>
      <point x="753" y="20"/>
      <point x="843" y="99" type="curve"/>
      <point x="858" y="110"/>
      <point x="859" y="130"/>
      <point x="839" y="153" type="curve" smooth="yes"/>
      <point x="824" y="171"/>
      <point x="805" y="173"/>
      <point x="788" y="158" type="curve" smooth="yes"/>
      <point x="728" y="109"/>
      <point x="640" y="68"/>
      <point x="541" y="68" type="curve" smooth="yes"/>
      <point x="418" y="68"/>
      <point x="329" y="148"/>
      <point x="329" y="279" type="curve" smooth="yes"/>
      <point x="329" y="303"/>
      <point x="331" y="325"/>
      <point x="336" y="346" type="curve"/>
      <point x="570" y="346" type="line" smooth="yes"/>
      <point x="588" y="346"/>
      <point x="595" y="360"/>
      <point x="595" y="386" type="curve" smooth="yes"/>
      <point x="595" y="413"/>
      <point x="588" y="426"/>
      <point x="570" y="426" type="curve" smooth="yes"/>
      <point x="368" y="426" type="line"/>
      <point x="440" y="553"/>
      <point x="609" y="659"/>
      <point x="859" y="814" type="curve" smooth="yes"/>
      <point x="876" y="825"/>
      <point x="874" y="844"/>
      <point x="861" y="861" type="curve" smooth="yes"/>
      <point x="846" y="884"/>
      <point x="833" y="885"/>
      <point x="810" y="873" type="curve" smooth="yes"/>
      <point x="766" y="848"/>
      <point x="704" y="835"/>
      <point x="651" y="835" type="curve" smooth="yes"/>
      <point x="533" y="835"/>
      <point x="491" y="890"/>
      <point x="356" y="890" type="curve" smooth="yes"/>
      <point x="234" y="890"/>
      <point x="141" y="831"/>
      <point x="65" y="734" type="curve" smooth="yes"/>
      <point x="51" y="715"/>
      <point x="55" y="699"/>
      <point x="76" y="683" type="curve" smooth="yes"/>
      <point x="99" y="668"/>
      <point x="116" y="668"/>
      <point x="129" y="685" type="curve" smooth="yes"/>
      <point x="175" y="746"/>
      <point x="253" y="808"/>
      <point x="359" y="808" type="curve" smooth="yes"/>
      <point x="458" y="808"/>
      <point x="515" y="758"/>
      <point x="610" y="758" type="curve" smooth="yes"/>
      <point x="620" y="758"/>
      <point x="631" y="759"/>
      <point x="641" y="760" type="curve"/>
      <point x="456" y="644"/>
      <point x="328" y="545"/>
      <point x="271" y="426" type="curve"/>
      <point x="124" y="426" type="line" smooth="yes"/>
      <point x="106" y="426"/>
      <point x="99" y="413"/>
      <point x="99" y="386" type="curve" smooth="yes"/>
      <point x="99" y="360"/>
      <point x="106" y="346"/>
      <point x="124" y="346" type="curve" smooth="yes"/>
      <point x="245" y="346" type="line"/>
      <point x="241" y="325"/>
      <point x="239" y="303"/>
      <point x="239" y="279" type="curve" smooth="yes"/>
      <point x="239" y="96"/>
      <point x="365" y="-17"/>
    </contour>
  </outline>
</glyph>
<glyph name="T.dec" format="2">
  <advance width="721"/>
  <anchor x="301" y="0" name="bottom"/>
  <anchor x="400" y="438" name="center"/>
  <anchor x="398" y="838" name="top"/>
  <outline>
    <contour>
      <point x="303" y="-17" type="curve" smooth="yes"/>
      <point x="399" y="-17"/>
      <point x="444" y="49"/>
      <point x="444" y="160" type="curve" smooth="yes"/>
      <point x="444" y="795" type="line"/>
      <point x="694" y="795" type="line" smooth="yes"/>
      <point x="714" y="795"/>
      <point x="721" y="805"/>
      <point x="721" y="835" type="curve" smooth="yes"/>
      <point x="721" y="865"/>
      <point x="714" y="875"/>
      <point x="694" y="875" type="curve" smooth="yes"/>
      <point x="208" y="875" type="line" smooth="yes"/>
      <point x="76" y="875"/>
      <point x="18" y="763"/>
      <point x="1" y="694" type="curve" smooth="yes"/>
      <point x="-5" y="668"/>
      <point x="1" y="655"/>
      <point x="29" y="650" type="curve" smooth="yes"/>
      <point x="54" y="645"/>
      <point x="65" y="655"/>
      <point x="75" y="679" type="curve" smooth="yes"/>
      <point x="96" y="730"/>
      <point x="133" y="795"/>
      <point x="208" y="795" type="curve" smooth="yes"/>
      <point x="356" y="795" type="line"/>
      <point x="356" y="165" type="line" smooth="yes"/>
      <point x="356" y="91"/>
      <point x="341" y="68"/>
      <point x="301" y="68" type="curve" smooth="yes"/>
      <point x="264" y="68"/>
      <point x="233" y="86"/>
      <point x="198" y="149" type="curve" smooth="yes"/>
      <point x="186" y="170"/>
      <point x="170" y="179"/>
      <point x="148" y="169" type="curve" smooth="yes"/>
      <point x="116" y="155"/>
      <point x="121" y="135"/>
      <point x="133" y="110" type="curve" smooth="yes"/>
      <point x="156" y="56"/>
      <point x="219" y="-17"/>
    </contour>
  </outline>
</glyph>
<glyph name="U.cur" format="2">
  <advance width="953"/>
  <anchor x="464" y="0" name="bottom"/>
  <anchor x="858" y="13" name="ogonek"/>
  <anchor x="476" y="838" name="top"/>
  <anchor x="706" y="888" name="topright"/>
  <outline>
    <contour>
      <point x="404" y="-17" type="curve" smooth="yes"/>
      <point x="509" y="-17"/>
      <point x="608" y="74"/>
      <point x="663" y="213.996" type="curve"/>
      <point x="663" y="189"/>
      <point x="663" y="165"/>
      <point x="663" y="140" type="curve" smooth="yes"/>
      <point x="663" y="34"/>
      <point x="683" y="-17"/>
      <point x="769" y="-17" type="curve" smooth="yes"/>
      <point x="826" y="-17"/>
      <point x="901" y="33"/>
      <point x="933" y="126" type="curve" smooth="yes"/>
      <point x="940" y="149"/>
      <point x="933" y="163"/>
      <point x="915" y="169" type="curve" smooth="yes"/>
      <point x="890" y="178"/>
      <point x="873" y="175"/>
      <point x="863" y="154" type="curve" smooth="yes"/>
      <point x="839" y="103"/>
      <point x="814" y="68"/>
      <point x="785" y="68" type="curve" smooth="yes"/>
      <point x="760" y="68"/>
      <point x="750" y="86"/>
      <point x="750" y="151" type="curve" smooth="yes"/>
      <point x="750" y="860" type="line" smooth="yes"/>
      <point x="750" y="879"/>
      <point x="735" y="888"/>
      <point x="706" y="888" type="curve" smooth="yes"/>
      <point x="678" y="888"/>
      <point x="663" y="879"/>
      <point x="663" y="860" type="curve" smooth="yes"/>
      <point x="663" y="419" type="line"/>
      <point x="620" y="211"/>
      <point x="516" y="68"/>
      <point x="405" y="68" type="curve" smooth="yes"/>
      <point x="329" y="68"/>
      <point x="301" y="129"/>
      <point x="301" y="273" type="curve" smooth="yes"/>
      <point x="301" y="733" type="line" smooth="yes"/>
      <point x="301" y="840"/>
      <point x="269" y="890"/>
      <point x="198" y="890" type="curve" smooth="yes"/>
      <point x="124" y="890"/>
      <point x="60" y="829"/>
      <point x="14" y="714" type="curve" smooth="yes"/>
      <point x="4" y="689"/>
      <point x="9" y="676"/>
      <point x="30" y="669" type="curve" smooth="yes"/>
      <point x="58" y="659"/>
      <point x="76" y="664"/>
      <point x="85" y="684" type="curve" smooth="yes"/>
      <point x="119" y="764"/>
      <point x="154" y="805"/>
      <point x="180" y="805" type="curve" smooth="yes"/>
      <point x="205" y="805"/>
      <point x="214" y="775"/>
      <point x="214" y="734" type="curve" smooth="yes"/>
      <point x="214" y="265" type="line" smooth="yes"/>
      <point x="214" y="66"/>
      <point x="268" y="-17"/>
    </contour>
  </outline>
</glyph>
<glyph name="U.cur.ini" format="2">
  <advance width="909"/>
  <anchor x="474" y="0" name="bottom"/>
  <anchor x="909" y="0" name="cnct"/>
  <anchor x="858" y="13" name="ogonek"/>
  <anchor x="471" y="838" name="top"/>
  <anchor x="706" y="888" name="topright"/>
  <outline>
    <contour>
      <point x="404" y="-17" type="curve" smooth="yes"/>
      <point x="543" y="-17"/>
      <point x="670" y="141"/>
      <point x="701" y="361" type="curve"/>
      <point x="676" y="500" type="line"/>
      <point x="646" y="249"/>
      <point x="530" y="68"/>
      <point x="405" y="68" type="curve" smooth="yes"/>
      <point x="329" y="68"/>
      <point x="301" y="129"/>
      <point x="301" y="273" type="curve" smooth="yes"/>
      <point x="301" y="733" type="line" smooth="yes"/>
      <point x="301" y="840"/>
      <point x="269" y="890"/>
      <point x="198" y="890" type="curve" smooth="yes"/>
      <point x="124" y="890"/>
      <point x="60" y="829"/>
      <point x="14" y="714" type="curve" smooth="yes"/>
      <point x="4" y="689"/>
      <point x="9" y="676"/>
      <point x="30" y="669" type="curve" smooth="yes"/>
      <point x="58" y="659"/>
      <point x="76" y="664"/>
      <point x="85" y="684" type="curve" smooth="yes"/>
      <point x="119" y="764"/>
      <point x="154" y="805"/>
      <point x="180" y="805" type="curve" smooth="yes"/>
      <point x="205" y="805"/>
      <point x="214" y="775"/>
      <point x="214" y="734" type="curve" smooth="yes"/>
      <point x="214" y="265" type="line" smooth="yes"/>
      <point x="214" y="66"/>
      <point x="268" y="-17"/>
    </contour>
    <contour>
      <point x="800" y="-17" type="curve" smooth="yes"/>
      <point x="850" y="-17"/>
      <point x="869" y="58"/>
      <point x="819" y="58" type="curve" smooth="yes"/>
      <point x="770" y="58"/>
      <point x="750" y="121"/>
      <point x="750" y="214" type="curve" smooth="yes"/>
      <point x="750" y="860" type="line" smooth="yes"/>
      <point x="750" y="879"/>
      <point x="735" y="888"/>
      <point x="706" y="888" type="curve" smooth="yes"/>
      <point x="678" y="888"/>
      <point x="663" y="879"/>
      <point x="663" y="860" type="curve" smooth="yes"/>
      <point x="663" y="215" type="line" smooth="yes"/>
      <point x="663" y="65"/>
      <point x="710" y="-17"/>
    </contour>
  </outline>
</glyph>
<glyph name="W.cur" format="2">
  <advance width="1276"/>
  <guideline x="1004"/>
  <guideline x="501"/>
  <anchor x="576" y="0" name="bottom"/>
  <anchor x="639" y="838" name="top"/>
  <outline>
    <contour>
      <point x="334" y="-19" type="curve" smooth="yes"/>
      <point x="473" y="-19"/>
      <point x="573" y="130"/>
      <point x="618" y="358" type="curve"/>
      <point x="620" y="358" type="line"/>
      <point x="619" y="298"/>
      <point x="621" y="244"/>
      <point x="626" y="196" type="curve" smooth="yes"/>
      <point x="643" y="60"/>
      <point x="688" y="-19"/>
      <point x="769" y="-19" type="curve" smooth="yes"/>
      <point x="905" y="-19"/>
      <point x="1033" y="195"/>
      <point x="1091" y="520" type="curve" smooth="yes"/>
      <point x="1104" y="588"/>
      <point x="1114" y="703"/>
      <point x="1109" y="791" type="curve"/>
      <point x="1129" y="779"/>
      <point x="1175" y="768"/>
      <point x="1215" y="763" type="curve" smooth="yes"/>
      <point x="1238" y="760"/>
      <point x="1251" y="784"/>
      <point x="1251" y="805" type="curve" smooth="yes"/>
      <point x="1251" y="819"/>
      <point x="1245" y="830"/>
      <point x="1231" y="833" type="curve" smooth="yes"/>
      <point x="1178" y="840"/>
      <point x="1111" y="861"/>
      <point x="1091" y="880" type="curve"/>
      <point x="1079" y="906"/>
      <point x="1046" y="926"/>
      <point x="1016" y="926" type="curve" smooth="yes"/>
      <point x="985" y="926"/>
      <point x="966" y="905"/>
      <point x="966" y="879" type="curve" smooth="yes"/>
      <point x="966" y="853"/>
      <point x="984" y="824"/>
      <point x="1025" y="814" type="curve"/>
      <point x="1033" y="733"/>
      <point x="1024" y="614"/>
      <point x="1005" y="516" type="curve" smooth="yes"/>
      <point x="953" y="244"/>
      <point x="866" y="65"/>
      <point x="785" y="65" type="curve" smooth="yes"/>
      <point x="744" y="65"/>
      <point x="715" y="113"/>
      <point x="699" y="236" type="curve" smooth="yes"/>
      <point x="689" y="319"/>
      <point x="681" y="436"/>
      <point x="685" y="598" type="curve"/>
      <point x="688" y="616"/>
      <point x="696" y="643"/>
      <point x="696" y="660" type="curve" smooth="yes"/>
      <point x="696" y="701"/>
      <point x="676" y="725"/>
      <point x="644" y="725" type="curve" smooth="yes"/>
      <point x="609" y="725"/>
      <point x="588" y="701"/>
      <point x="588" y="654" type="curve" smooth="yes"/>
      <point x="588" y="635"/>
      <point x="594" y="616"/>
      <point x="594" y="598" type="curve"/>
      <point x="554" y="299"/>
      <point x="465" y="65"/>
      <point x="348" y="65" type="curve" smooth="yes"/>
      <point x="293" y="65"/>
      <point x="274" y="129"/>
      <point x="274" y="226" type="curve" smooth="yes"/>
      <point x="274" y="395"/>
      <point x="274" y="565"/>
      <point x="274" y="734" type="curve" smooth="yes"/>
      <point x="274" y="836"/>
      <point x="244" y="891"/>
      <point x="179" y="891" type="curve" smooth="yes"/>
      <point x="119" y="891"/>
      <point x="66" y="854"/>
      <point x="14" y="714" type="curve" smooth="yes"/>
      <point x="5" y="689"/>
      <point x="8" y="676"/>
      <point x="30" y="669" type="curve" smooth="yes"/>
      <point x="58" y="660"/>
      <point x="76" y="664"/>
      <point x="85" y="684" type="curve" smooth="yes"/>
      <point x="120" y="764"/>
      <point x="139" y="805"/>
      <point x="163" y="805" type="curve" smooth="yes"/>
      <point x="184" y="805"/>
      <point x="186" y="788"/>
      <point x="186" y="735" type="curve" smooth="yes"/>
      <point x="186" y="565"/>
      <point x="186" y="396"/>
      <point x="186" y="226" type="curve" smooth="yes"/>
      <point x="186" y="78"/>
      <point x="233" y="-19"/>
    </contour>
  </outline>
</glyph>
<glyph name="X.cur" format="2">
  <advance width="829"/>
  <guideline x="658"/>
  <outline>
    <contour>
      <point x="681" y="-17" type="curve" smooth="yes"/>
      <point x="755" y="-17"/>
      <point x="800" y="33"/>
      <point x="836" y="118" type="curve" smooth="yes"/>
      <point x="845" y="138"/>
      <point x="845" y="155"/>
      <point x="825" y="165" type="curve" smooth="yes"/>
      <point x="800" y="178"/>
      <point x="781" y="173"/>
      <point x="773" y="154" type="curve" smooth="yes"/>
      <point x="741" y="90"/>
      <point x="718" y="60"/>
      <point x="688" y="60" type="curve" smooth="yes"/>
      <point x="651" y="60"/>
      <point x="624" y="93"/>
      <point x="581" y="175" type="curve" smooth="yes"/>
      <point x="444" y="444" type="line"/>
      <point x="678" y="829" type="line" smooth="yes"/>
      <point x="694" y="855"/>
      <point x="689" y="874"/>
      <point x="665" y="888" type="curve" smooth="yes"/>
      <point x="641" y="904"/>
      <point x="623" y="899"/>
      <point x="606" y="873" type="curve" smooth="yes"/>
      <point x="399" y="533" type="line"/>
      <point x="296" y="736" type="line" smooth="yes"/>
      <point x="246" y="836"/>
      <point x="203" y="890"/>
      <point x="118" y="890" type="curve" smooth="yes"/>
      <point x="86" y="890"/>
      <point x="53" y="881"/>
      <point x="19" y="861" type="curve" smooth="yes"/>
      <point x="-2" y="849"/>
      <point x="-7" y="831"/>
      <point x="3" y="810" type="curve" smooth="yes"/>
      <point x="13" y="790"/>
      <point x="28" y="783"/>
      <point x="45" y="790" type="curve" smooth="yes"/>
      <point x="65" y="800"/>
      <point x="90" y="809"/>
      <point x="111" y="809" type="curve" smooth="yes"/>
      <point x="146" y="809"/>
      <point x="171" y="791"/>
      <point x="203" y="730" type="curve" smooth="yes"/>
      <point x="341" y="454" type="line"/>
      <point x="94" y="49" type="line" smooth="yes"/>
      <point x="79" y="24"/>
      <point x="78" y="6"/>
      <point x="103" y="-10" type="curve" smooth="yes"/>
      <point x="129" y="-26"/>
      <point x="146" y="-26"/>
      <point x="159" y="-6" type="curve" smooth="yes"/>
      <point x="386" y="366" type="line"/>
      <point x="501" y="143" type="line" smooth="yes"/>
      <point x="553" y="43"/>
      <point x="595" y="-17"/>
    </contour>
  </outline>
</glyph>
<glyph name="X.dec.ini" format="2">
  <advance width="863"/>
  <anchor x="863" y="0" name="cnct"/>
  <outline>
    <contour>
      <point x="269" y="-17" type="curve" smooth="yes"/>
      <point x="348" y="-17"/>
      <point x="420" y="51"/>
      <point x="463" y="174" type="curve"/>
      <point x="494" y="41"/>
      <point x="559" y="-17"/>
      <point x="668" y="-17" type="curve" smooth="yes"/>
      <point x="718" y="-17"/>
      <point x="718" y="58"/>
      <point x="668" y="58" type="curve" smooth="yes"/>
      <point x="556" y="58"/>
      <point x="513" y="166"/>
      <point x="513" y="436" type="curve" smooth="yes"/>
      <point x="513" y="641"/>
      <point x="580" y="808"/>
      <point x="671" y="808" type="curve" smooth="yes"/>
      <point x="714" y="808"/>
      <point x="748" y="785"/>
      <point x="780" y="738" type="curve" smooth="yes"/>
      <point x="794" y="716"/>
      <point x="809" y="711"/>
      <point x="831" y="725" type="curve" smooth="yes"/>
      <point x="855" y="739"/>
      <point x="860" y="756"/>
      <point x="848" y="778" type="curve" smooth="yes"/>
      <point x="809" y="840"/>
      <point x="755" y="890"/>
      <point x="671" y="890" type="curve" smooth="yes"/>
      <point x="585" y="890"/>
      <point x="513" y="809"/>
      <point x="473" y="680" type="curve"/>
      <point x="435" y="814"/>
      <point x="363" y="890"/>
      <point x="265" y="890" type="curve" smooth="yes"/>
      <point x="184" y="890"/>
      <point x="128" y="839"/>
      <point x="93" y="776" type="curve" smooth="yes"/>
      <point x="80" y="756"/>
      <point x="86" y="740"/>
      <point x="109" y="728" type="curve" smooth="yes"/>
      <point x="133" y="714"/>
      <point x="149" y="716"/>
      <point x="161" y="736" type="curve" smooth="yes"/>
      <point x="191" y="784"/>
      <point x="226" y="808"/>
      <point x="264" y="808" type="curve" smooth="yes"/>
      <point x="369" y="808"/>
      <point x="425" y="641"/>
      <point x="425" y="436" type="curve" smooth="yes"/>
      <point x="425" y="221"/>
      <point x="356" y="65"/>
      <point x="261" y="65" type="curve" smooth="yes"/>
      <point x="218" y="65"/>
      <point x="179" y="99"/>
      <point x="139" y="166" type="curve" smooth="yes"/>
      <point x="128" y="185"/>
      <point x="111" y="188"/>
      <point x="89" y="178" type="curve" smooth="yes"/>
      <point x="64" y="165"/>
      <point x="56" y="149"/>
      <point x="69" y="128" type="curve" smooth="yes"/>
      <point x="105" y="55"/>
      <point x="179" y="-17"/>
    </contour>
  </outline>
</glyph>
<glyph name="X.dec_locl" format="2">
  <advance width="1009"/>
  <outline>
    <contour>
      <point x="695" y="-17" type="curve" smooth="yes"/>
      <point x="789" y="-17"/>
      <point x="869" y="56"/>
      <point x="906" y="129" type="curve" smooth="yes"/>
      <point x="918" y="150"/>
      <point x="911" y="166"/>
      <point x="886" y="178" type="curve" smooth="yes"/>
      <point x="863" y="188"/>
      <point x="846" y="183"/>
      <point x="836" y="165" type="curve" smooth="yes"/>
      <point x="799" y="99"/>
      <point x="756" y="65"/>
      <point x="703" y="65" type="curve" smooth="yes"/>
      <point x="614" y="65"/>
      <point x="549" y="221"/>
      <point x="549" y="436" type="curve" smooth="yes"/>
      <point x="549" y="619"/>
      <point x="624" y="808"/>
      <point x="749" y="808" type="curve" smooth="yes"/>
      <point x="805" y="808"/>
      <point x="839" y="774"/>
      <point x="839" y="719" type="curve" smooth="yes"/>
      <point x="839" y="419"/>
      <point x="83" y="555"/>
      <point x="83" y="166" type="curve" smooth="yes"/>
      <point x="83" y="56"/>
      <point x="153" y="-17"/>
      <point x="266" y="-17" type="curve" smooth="yes"/>
      <point x="421" y="-17"/>
      <point x="538" y="154"/>
      <point x="538" y="436" type="curve" smooth="yes"/>
      <point x="538" y="719"/>
      <point x="445" y="890"/>
      <point x="296" y="890" type="curve" smooth="yes"/>
      <point x="213" y="890"/>
      <point x="154" y="839"/>
      <point x="119" y="776" type="curve" smooth="yes"/>
      <point x="108" y="756"/>
      <point x="113" y="740"/>
      <point x="135" y="728" type="curve" smooth="yes"/>
      <point x="160" y="714"/>
      <point x="175" y="716"/>
      <point x="188" y="736" type="curve" smooth="yes"/>
      <point x="218" y="785"/>
      <point x="256" y="808"/>
      <point x="295" y="808" type="curve" smooth="yes"/>
      <point x="404" y="808"/>
      <point x="461" y="641"/>
      <point x="461" y="436" type="curve" smooth="yes"/>
      <point x="461" y="245"/>
      <point x="375" y="65"/>
      <point x="264" y="65" type="curve" smooth="yes"/>
      <point x="208" y="65"/>
      <point x="174" y="105"/>
      <point x="174" y="170" type="curve" smooth="yes"/>
      <point x="174" y="480"/>
      <point x="930" y="338"/>
      <point x="930" y="723" type="curve" smooth="yes"/>
      <point x="930" y="820"/>
      <point x="860" y="890"/>
      <point x="749" y="890" type="curve" smooth="yes"/>
      <point x="580" y="890"/>
      <point x="475" y="700"/>
      <point x="475" y="436" type="curve" smooth="yes"/>
      <point x="475" y="154"/>
      <point x="556" y="-17"/>
    </contour>
  </outline>
</glyph>
<glyph name="X.dec_locl.ini" format="2">
  <advance width="946"/>
  <anchor x="946" y="0" name="cnct"/>
  <outline>
    <contour>
      <point x="716" y="-17" type="curve" smooth="yes"/>
      <point x="766" y="-17"/>
      <point x="771" y="58"/>
      <point x="721" y="58" type="curve" smooth="yes"/>
      <point x="614" y="58"/>
      <point x="549" y="189"/>
      <point x="549" y="436" type="curve" smooth="yes"/>
      <point x="549" y="619"/>
      <point x="624" y="808"/>
      <point x="749" y="808" type="curve" smooth="yes"/>
      <point x="805" y="808"/>
      <point x="839" y="774"/>
      <point x="839" y="719" type="curve" smooth="yes"/>
      <point x="839" y="419"/>
      <point x="83" y="555"/>
      <point x="83" y="166" type="curve" smooth="yes"/>
      <point x="83" y="56"/>
      <point x="153" y="-17"/>
      <point x="266" y="-17" type="curve" smooth="yes"/>
      <point x="421" y="-17"/>
      <point x="538" y="154"/>
      <point x="538" y="436" type="curve" smooth="yes"/>
      <point x="538" y="719"/>
      <point x="445" y="890"/>
      <point x="296" y="890" type="curve" smooth="yes"/>
      <point x="213" y="890"/>
      <point x="154" y="839"/>
      <point x="119" y="776" type="curve" smooth="yes"/>
      <point x="108" y="756"/>
      <point x="113" y="740"/>
      <point x="135" y="728" type="curve" smooth="yes"/>
      <point x="160" y="714"/>
      <point x="175" y="716"/>
      <point x="188" y="736" type="curve" smooth="yes"/>
      <point x="218" y="785"/>
      <point x="256" y="808"/>
      <point x="295" y="808" type="curve" smooth="yes"/>
      <point x="404" y="808"/>
      <point x="461" y="641"/>
      <point x="461" y="436" type="curve" smooth="yes"/>
      <point x="461" y="245"/>
      <point x="375" y="65"/>
      <point x="264" y="65" type="curve" smooth="yes"/>
      <point x="208" y="65"/>
      <point x="174" y="105"/>
      <point x="174" y="170" type="curve" smooth="yes"/>
      <point x="174" y="480"/>
      <point x="930" y="338"/>
      <point x="930" y="723" type="curve" smooth="yes"/>
      <point x="930" y="820"/>
      <point x="860" y="890"/>
      <point x="749" y="890" type="curve" smooth="yes"/>
      <point x="580" y="890"/>
      <point x="475" y="700"/>
      <point x="475" y="436" type="curve" smooth="yes"/>
      <point x="475" y="154"/>
      <point x="551" y="-17"/>
    </contour>
  </outline>
</glyph>
<glyph name="X.dec_ro" format="2">
  <advance width="925"/>
  <outline>
    <contour>
      <point x="272" y="410" type="curve" smooth="yes"/>
      <point x="668" y="410" type="line" smooth="yes"/>
      <point x="685" y="410"/>
      <point x="693" y="424"/>
      <point x="693" y="450" type="curve" smooth="yes"/>
      <point x="693" y="476"/>
      <point x="685" y="490"/>
      <point x="668" y="490" type="curve" smooth="yes"/>
      <point x="272" y="490" type="line" smooth="yes"/>
      <point x="254" y="490"/>
      <point x="247" y="476"/>
      <point x="247" y="450" type="curve" smooth="yes"/>
      <point x="247" y="424"/>
      <point x="254" y="410"/>
    </contour>
    <component base="X.dec"/>
  </outline>
</glyph>
<glyph name="X.dec_ro.ini" format="2">
  <advance width="863"/>
  <anchor x="863" y="0" name="cnct"/>
  <outline>
    <contour>
      <point x="272" y="410" type="curve" smooth="yes"/>
      <point x="668" y="410" type="line" smooth="yes"/>
      <point x="685" y="410"/>
      <point x="693" y="424"/>
      <point x="693" y="450" type="curve" smooth="yes"/>
      <point x="693" y="476"/>
      <point x="685" y="490"/>
      <point x="668" y="490" type="curve" smooth="yes"/>
      <point x="272" y="490" type="line" smooth="yes"/>
      <point x="254" y="490"/>
      <point x="247" y="476"/>
      <point x="247" y="450" type="curve" smooth="yes"/>
      <point x="247" y="424"/>
      <point x="254" y="410"/>
    </contour>
    <component base="X.dec.ini"/>
  </outline>
</glyph>
<glyph name="Y.cur.ini" format="2">
  <advance width="846"/>
  <anchor x="850" y="0" name="bottom"/>
  <anchor x="846" y="0" name="cnct"/>
  <anchor x="450" y="838" name="top"/>
  <outline>
    <contour>
      <point x="404" y="51" type="curve" smooth="yes"/>
      <point x="509" y="51"/>
      <point x="607" y="143"/>
      <point x="662" y="281" type="curve"/>
      <point x="662" y="-154" type="line" smooth="yes"/>
      <point x="662" y="-246"/>
      <point x="626" y="-316"/>
      <point x="575" y="-316" type="curve" smooth="yes"/>
      <point x="532" y="-316"/>
      <point x="514" y="-294"/>
      <point x="514" y="-257" type="curve" smooth="yes"/>
      <point x="514" y="-207"/>
      <point x="426" y="-216"/>
      <point x="426" y="-266" type="curve" smooth="yes"/>
      <point x="426" y="-344"/>
      <point x="480" y="-394"/>
      <point x="567" y="-394" type="curve" smooth="yes"/>
      <point x="679" y="-394"/>
      <point x="750" y="-294"/>
      <point x="750" y="-142" type="curve" smooth="yes"/>
      <point x="750" y="860" type="line" smooth="yes"/>
      <point x="750" y="879"/>
      <point x="735" y="888"/>
      <point x="706" y="888" type="curve" smooth="yes"/>
      <point x="677" y="888"/>
      <point x="662" y="879"/>
      <point x="662" y="860" type="curve" smooth="yes"/>
      <point x="662" y="485" type="line"/>
      <point x="619" y="278"/>
      <point x="515" y="136"/>
      <point x="405" y="136" type="curve" smooth="yes"/>
      <point x="329" y="136"/>
      <point x="301" y="198"/>
      <point x="301" y="341" type="curve" smooth="yes"/>
      <point x="301" y="733" type="line" smooth="yes"/>
      <point x="301" y="840"/>
      <point x="269" y="890"/>
      <point x="197" y="890" type="curve" smooth="yes"/>
      <point x="124" y="890"/>
      <point x="60" y="829"/>
      <point x="14" y="714" type="curve" smooth="yes"/>
      <point x="4" y="689"/>
      <point x="9" y="676"/>
      <point x="30" y="669" type="curve" smooth="yes"/>
      <point x="57" y="659"/>
      <point x="76" y="664"/>
      <point x="85" y="684" type="curve" smooth="yes"/>
      <point x="119" y="764"/>
      <point x="154" y="805"/>
      <point x="180" y="805" type="curve" smooth="yes"/>
      <point x="205" y="805"/>
      <point x="214" y="775"/>
      <point x="214" y="734" type="curve" smooth="yes"/>
      <point x="214" y="334" type="line" smooth="yes"/>
      <point x="214" y="135"/>
      <point x="267" y="51"/>
    </contour>
  </outline>
</glyph>
<glyph name="Z.cur.ini" format="2">
  <advance width="725"/>
  <anchor x="403" y="0" name="bottom"/>
  <anchor x="403" y="438" name="center"/>
  <anchor x="725" y="0" name="cnct"/>
  <anchor x="403" y="838" name="top"/>
  <outline>
    <contour>
      <point x="455" y="-394" type="curve" smooth="yes"/>
      <point x="584" y="-394"/>
      <point x="663" y="-297"/>
      <point x="663" y="-139" type="curve" smooth="yes"/>
      <point x="663" y="55"/>
      <point x="600" y="220"/>
      <point x="369" y="234" type="curve"/>
      <point x="369" y="235" type="line"/>
      <point x="581" y="350"/>
      <point x="689" y="494"/>
      <point x="689" y="659" type="curve" smooth="yes"/>
      <point x="689" y="803"/>
      <point x="591" y="890"/>
      <point x="433" y="890" type="curve" smooth="yes"/>
      <point x="301" y="890"/>
      <point x="191" y="848"/>
      <point x="60" y="730" type="curve" smooth="yes"/>
      <point x="44" y="715"/>
      <point x="45" y="696"/>
      <point x="66" y="674" type="curve" smooth="yes"/>
      <point x="85" y="654"/>
      <point x="101" y="651"/>
      <point x="120" y="669" type="curve" smooth="yes"/>
      <point x="210" y="753"/>
      <point x="306" y="805"/>
      <point x="430" y="805" type="curve" smooth="yes"/>
      <point x="533" y="805"/>
      <point x="595" y="749"/>
      <point x="595" y="658" type="curve" smooth="yes"/>
      <point x="595" y="509"/>
      <point x="474" y="374"/>
      <point x="271" y="265" type="curve" smooth="yes"/>
      <point x="235" y="245"/>
      <point x="253" y="180"/>
      <point x="290" y="180" type="curve" smooth="yes"/>
      <point x="541" y="176"/>
      <point x="573" y="24"/>
      <point x="573" y="-141" type="curve" smooth="yes"/>
      <point x="573" y="-245"/>
      <point x="530" y="-309"/>
      <point x="459" y="-309" type="curve" smooth="yes"/>
      <point x="420" y="-309"/>
      <point x="393" y="-287"/>
      <point x="393" y="-257" type="curve" smooth="yes"/>
      <point x="393" y="-207"/>
      <point x="305" y="-216"/>
      <point x="305" y="-266" type="curve" smooth="yes"/>
      <point x="305" y="-340"/>
      <point x="368" y="-394"/>
    </contour>
  </outline>
</glyph>
<glyph name="a.mod.ini" format="2">
  <advance width="623"/>
  <anchor x="284" y="0" name="bottom"/>
  <anchor x="623" y="0" name="cnct"/>
  <anchor x="533" y="0" name="ogonek"/>
  <anchor x="301" y="500" name="top"/>
  <outline>
    <contour>
      <point x="227" y="-17" type="curve" smooth="yes"/>
      <point x="343" y="-17"/>
      <point x="438" y="128"/>
      <point x="442" y="364" type="curve"/>
      <point x="421" y="441" type="line"/>
      <point x="401" y="215"/>
      <point x="324" y="63"/>
      <point x="242" y="63" type="curve" smooth="yes"/>
      <point x="174" y="63"/>
      <point x="152" y="131"/>
      <point x="152" y="224" type="curve" smooth="yes"/>
      <point x="152" y="364"/>
      <point x="206" y="441"/>
      <point x="303" y="441" type="curve" smooth="yes"/>
      <point x="342" y="441"/>
      <point x="394" y="429"/>
      <point x="449" y="386" type="curve"/>
      <point x="449" y="466" type="line"/>
      <point x="394" y="504"/>
      <point x="348" y="519"/>
      <point x="289" y="519" type="curve" smooth="yes"/>
      <point x="143" y="519"/>
      <point x="63" y="398"/>
      <point x="63" y="223" type="curve" smooth="yes"/>
      <point x="63" y="71"/>
      <point x="126" y="-17"/>
    </contour>
    <contour>
      <point x="514" y="-17" type="curve" smooth="yes"/>
      <point x="571" y="-17"/>
      <point x="571" y="58"/>
      <point x="533" y="58" type="curve" smooth="yes"/>
      <point x="507" y="58"/>
      <point x="498" y="76"/>
      <point x="498" y="131" type="curve" smooth="yes"/>
      <point x="498" y="489" type="line" smooth="yes"/>
      <point x="498" y="506"/>
      <point x="483" y="515"/>
      <point x="454" y="515" type="curve" smooth="yes"/>
      <point x="426" y="515"/>
      <point x="412" y="506"/>
      <point x="412" y="489" type="curve" smooth="yes"/>
      <point x="412" y="119" type="line" smooth="yes"/>
      <point x="412" y="8"/>
      <point x="464" y="-17"/>
    </contour>
  </outline>
</glyph>
<glyph name="ae.ful" format="2">
  <advance width="776"/>
  <anchor x="413" y="500" name="top"/>
  <outline>
    <contour>
      <point x="231" y="-17" type="curve" smooth="yes"/>
      <point x="297" y="-17"/>
      <point x="356" y="21"/>
      <point x="424" y="156" type="curve"/>
      <point x="394" y="251" type="line"/>
      <point x="326" y="103"/>
      <point x="282" y="63"/>
      <point x="238" y="63" type="curve" smooth="yes"/>
      <point x="178" y="63"/>
      <point x="152" y="126"/>
      <point x="152" y="218" type="curve" smooth="yes"/>
      <point x="152" y="345"/>
      <point x="208" y="439"/>
      <point x="323" y="439" type="curve" smooth="yes"/>
      <point x="366" y="439"/>
      <point x="402" y="433"/>
      <point x="438" y="419" type="curve"/>
      <point x="502" y="486" type="line"/>
      <point x="447" y="503"/>
      <point x="389" y="519"/>
      <point x="316" y="519" type="curve" smooth="yes"/>
      <point x="142" y="519"/>
      <point x="63" y="376"/>
      <point x="63" y="214" type="curve" smooth="yes"/>
      <point x="63" y="70"/>
      <point x="129" y="-17"/>
    </contour>
    <contour>
      <point x="619" y="-19" type="curve" smooth="yes"/>
      <point x="699" y="-19"/>
      <point x="776" y="20"/>
      <point x="833" y="106" type="curve" smooth="yes"/>
      <point x="844" y="124"/>
      <point x="839" y="136"/>
      <point x="821" y="151" type="curve" smooth="yes"/>
      <point x="802" y="166"/>
      <point x="784" y="170"/>
      <point x="769" y="150" type="curve" smooth="yes"/>
      <point x="736" y="105"/>
      <point x="696" y="61"/>
      <point x="631" y="61" type="curve" smooth="yes"/>
      <point x="522" y="61"/>
      <point x="469" y="193"/>
      <point x="469" y="296" type="curve" smooth="yes"/>
      <point x="469" y="403"/>
      <point x="517" y="440"/>
      <point x="552" y="440" type="curve" smooth="yes"/>
      <point x="582" y="440"/>
      <point x="598" y="429"/>
      <point x="598" y="391" type="curve" smooth="yes"/>
      <point x="598" y="301"/>
      <point x="508" y="255"/>
      <point x="422" y="258" type="curve"/>
      <point x="438" y="186" type="line"/>
      <point x="548" y="193"/>
      <point x="686" y="261"/>
      <point x="686" y="400" type="curve" smooth="yes"/>
      <point x="686" y="466"/>
      <point x="638" y="519"/>
      <point x="564" y="519" type="curve" smooth="yes"/>
      <point x="451" y="519"/>
      <point x="381" y="411"/>
      <point x="381" y="289" type="curve" smooth="yes"/>
      <point x="381" y="180"/>
      <point x="439" y="-19"/>
    </contour>
  </outline>
</glyph>
<glyph name="ae.ful.ini" format="2">
  <advance width="776"/>
  <anchor x="775" y="0" name="cnct"/>
  <anchor x="413" y="500" name="top"/>
  <outline>
    <contour>
      <point x="231" y="-17" type="curve" smooth="yes"/>
      <point x="297" y="-17"/>
      <point x="356" y="21"/>
      <point x="424" y="156" type="curve"/>
      <point x="394" y="251" type="line"/>
      <point x="326" y="103"/>
      <point x="282" y="63"/>
      <point x="238" y="63" type="curve" smooth="yes"/>
      <point x="178" y="63"/>
      <point x="152" y="126"/>
      <point x="152" y="218" type="curve" smooth="yes"/>
      <point x="152" y="345"/>
      <point x="208" y="439"/>
      <point x="323" y="439" type="curve" smooth="yes"/>
      <point x="366" y="439"/>
      <point x="402" y="433"/>
      <point x="438" y="419" type="curve"/>
      <point x="502" y="486" type="line"/>
      <point x="447" y="503"/>
      <point x="389" y="519"/>
      <point x="316" y="519" type="curve" smooth="yes"/>
      <point x="142" y="519"/>
      <point x="63" y="376"/>
      <point x="63" y="214" type="curve" smooth="yes"/>
      <point x="63" y="70"/>
      <point x="129" y="-17"/>
    </contour>
    <contour>
      <point x="563" y="519" type="curve" smooth="yes"/>
      <point x="513" y="519"/>
      <point x="509" y="440"/>
      <point x="559" y="440" type="curve" smooth="yes"/>
      <point x="583" y="440"/>
      <point x="598" y="425"/>
      <point x="598" y="399" type="curve" smooth="yes"/>
      <point x="598" y="333"/>
      <point x="541" y="254"/>
      <point x="422" y="258" type="curve"/>
      <point x="438" y="186" type="line"/>
      <point x="582" y="195"/>
      <point x="686" y="286"/>
      <point x="686" y="403" type="curve" smooth="yes"/>
      <point x="686" y="470"/>
      <point x="634" y="519"/>
    </contour>
  </outline>
</glyph>
<glyph name="ae.mod.ini" format="2">
  <advance width="891"/>
  <anchor x="890" y="0" name="cnct"/>
  <anchor x="507" y="500" name="top"/>
  <outline>
    <contour>
      <point x="854" y="391" type="curve" smooth="yes"/>
      <point x="854" y="478"/>
      <point x="786" y="519"/>
      <point x="704" y="519" type="curve" smooth="yes"/>
      <point x="641" y="519"/>
      <point x="567" y="499"/>
      <point x="511" y="463" type="curve"/>
      <point x="530" y="384" type="line"/>
      <point x="576" y="423"/>
      <point x="629" y="440"/>
      <point x="689" y="440" type="curve" smooth="yes"/>
      <point x="730" y="440"/>
      <point x="764" y="424"/>
      <point x="764" y="381" type="curve" smooth="yes"/>
      <point x="764" y="300"/>
      <point x="630" y="249"/>
      <point x="489" y="219" type="curve"/>
      <point x="489" y="150" type="line"/>
      <point x="689" y="184"/>
      <point x="854" y="265"/>
    </contour>
    <contour>
      <point x="695" y="-17" type="curve" smooth="yes"/>
      <point x="735" y="-17"/>
      <point x="732" y="58"/>
      <point x="695" y="58" type="curve" smooth="yes"/>
      <point x="600" y="58"/>
      <point x="534" y="128"/>
      <point x="534" y="244" type="curve" smooth="yes"/>
      <point x="534" y="318"/>
      <point x="552" y="391"/>
      <point x="587" y="466" type="curve"/>
      <point x="507" y="496"/>
      <point x="436" y="519"/>
      <point x="340" y="519" type="curve" smooth="yes"/>
      <point x="155" y="519"/>
      <point x="76" y="376"/>
      <point x="76" y="214" type="curve" smooth="yes"/>
      <point x="76" y="70"/>
      <point x="142" y="-17"/>
      <point x="244" y="-17" type="curve" smooth="yes"/>
      <point x="342" y="-17"/>
      <point x="422" y="66"/>
      <point x="546" y="423" type="curve"/>
      <point x="485" y="438" type="line"/>
      <point x="367" y="133"/>
      <point x="309" y="63"/>
      <point x="251" y="63" type="curve" smooth="yes"/>
      <point x="191" y="63"/>
      <point x="165" y="126"/>
      <point x="165" y="218" type="curve" smooth="yes"/>
      <point x="165" y="345"/>
      <point x="220" y="439"/>
      <point x="336" y="439" type="curve" smooth="yes"/>
      <point x="405" y="439"/>
      <point x="456" y="420"/>
      <point x="517" y="393" type="curve"/>
      <point x="495" y="461" type="line"/>
      <point x="471" y="406"/>
      <point x="445" y="330"/>
      <point x="445" y="229" type="curve" smooth="yes"/>
      <point x="445" y="81"/>
      <point x="545" y="-17"/>
    </contour>
  </outline>
</glyph>
<glyph name="b.ful.fin" format="2">
  <advance width="604"/>
  <anchor x="344" y="0" name="bottom"/>
  <anchor x="344" y="250" name="center"/>
  <anchor x="344" y="500" name="top"/>
  <outline>
    <contour>
      <point x="283" y="-19" type="curve" smooth="yes"/>
      <point x="438" y="-19"/>
      <point x="525" y="173"/>
      <point x="525" y="321" type="curve" smooth="yes"/>
      <point x="525" y="376"/>
      <point x="513" y="420"/>
      <point x="481" y="475" type="curve" smooth="yes"/>
      <point x="468" y="499"/>
      <point x="454" y="520"/>
      <point x="433" y="520" type="curve" smooth="yes"/>
      <point x="395" y="520"/>
      <point x="370" y="493"/>
      <point x="394" y="456" type="curve" smooth="yes"/>
      <point x="425" y="409"/>
      <point x="436" y="363"/>
      <point x="436" y="309" type="curve" smooth="yes"/>
      <point x="436" y="200"/>
      <point x="371" y="61"/>
      <point x="294" y="61" type="curve" smooth="yes"/>
      <point x="241" y="61"/>
      <point x="218" y="101"/>
      <point x="218" y="189" type="curve" smooth="yes"/>
      <point x="218" y="865" type="line" smooth="yes"/>
      <point x="218" y="880"/>
      <point x="206" y="891"/>
      <point x="174" y="891" type="curve" smooth="yes"/>
      <point x="143" y="891"/>
      <point x="131" y="880"/>
      <point x="131" y="865" type="curve" smooth="yes"/>
      <point x="131" y="189" type="line" smooth="yes"/>
      <point x="131" y="46"/>
      <point x="188" y="-19"/>
    </contour>
  </outline>
</glyph>
<glyph name="b.ful" format="2">
  <advance width="573"/>
  <guideline x="333" y="376" angle="190.12"/>
  <guideline x="379" y="256" angle="188.13"/>
  <guideline x="199" y="12" angle="261.57"/>
  <guideline x="-31" y="151" angle="0"/>
  <anchor x="313" y="0" name="bottom"/>
  <anchor x="313" y="250" name="center"/>
  <anchor x="313" y="500" name="top"/>
  <outline>
    <contour>
      <point x="252" y="-19" type="curve" smooth="yes"/>
      <point x="407" y="-19"/>
      <point x="494" y="173"/>
      <point x="494" y="321" type="curve" smooth="yes"/>
      <point x="494" y="376"/>
      <point x="482" y="420"/>
      <point x="450" y="475" type="curve" smooth="yes"/>
      <point x="437" y="499"/>
      <point x="423" y="520"/>
      <point x="402" y="520" type="curve" smooth="yes"/>
      <point x="364" y="520"/>
      <point x="339" y="493"/>
      <point x="363" y="456" type="curve" smooth="yes"/>
      <point x="394" y="409"/>
      <point x="405" y="363"/>
      <point x="405" y="309" type="curve" smooth="yes"/>
      <point x="405" y="200"/>
      <point x="340" y="61"/>
      <point x="263" y="61" type="curve" smooth="yes"/>
      <point x="210" y="61"/>
      <point x="187" y="101"/>
      <point x="187" y="189" type="curve" smooth="yes"/>
      <point x="187" y="865" type="line" smooth="yes"/>
      <point x="187" y="880"/>
      <point x="175" y="891"/>
      <point x="143" y="891" type="curve" smooth="yes"/>
      <point x="112" y="891"/>
      <point x="100" y="880"/>
      <point x="100" y="865" type="curve" smooth="yes"/>
      <point x="100" y="189" type="line" smooth="yes"/>
      <point x="100" y="46"/>
      <point x="157" y="-19"/>
    </contour>
  </outline>
</glyph>
<glyph name="b.ful.ini" format="2">
  <advance width="573"/>
  <guideline x="-31" y="247" angle="0"/>
  <anchor x="313" y="0" name="bottom"/>
  <anchor x="313" y="250" name="center"/>
  <anchor x="573" y="0" name="cnct"/>
  <anchor x="313" y="500" name="top"/>
  <outline>
    <contour>
      <point x="252" y="-19" type="curve" smooth="yes"/>
      <point x="407" y="-19"/>
      <point x="494" y="173"/>
      <point x="494" y="321" type="curve" smooth="yes"/>
      <point x="494" y="446"/>
      <point x="433" y="519"/>
      <point x="384" y="519" type="curve" smooth="yes"/>
      <point x="363" y="519"/>
      <point x="342" y="505"/>
      <point x="342" y="475" type="curve" smooth="yes"/>
      <point x="342" y="450"/>
      <point x="358" y="423"/>
      <point x="400" y="399" type="curve"/>
      <point x="409" y="370"/>
      <point x="410" y="341"/>
      <point x="410" y="309" type="curve" smooth="yes"/>
      <point x="410" y="200"/>
      <point x="340" y="61"/>
      <point x="263" y="61" type="curve" smooth="yes"/>
      <point x="210" y="61"/>
      <point x="187" y="101"/>
      <point x="187" y="189" type="curve" smooth="yes"/>
      <point x="187" y="865" type="line" smooth="yes"/>
      <point x="187" y="880"/>
      <point x="175" y="891"/>
      <point x="143" y="891" type="curve" smooth="yes"/>
      <point x="112" y="891"/>
      <point x="100" y="880"/>
      <point x="100" y="865" type="curve" smooth="yes"/>
      <point x="100" y="189" type="line" smooth="yes"/>
      <point x="100" y="46"/>
      <point x="157" y="-19"/>
    </contour>
  </outline>
</glyph>
<glyph name="b.jmc_dk.fin" format="2">
  <advance width="623"/>
  <anchor x="333" y="0" name="bottom"/>
  <anchor x="365" y="250" name="center"/>
  <anchor x="485" y="500" name="top"/>
  <outline>
    <contour>
      <point x="165" y="-15" type="curve" smooth="yes"/>
      <point x="194" y="-15"/>
      <point x="209" y="-6"/>
      <point x="209" y="11" type="curve" smooth="yes"/>
      <point x="209" y="706" type="line" smooth="yes"/>
      <point x="209" y="789"/>
      <point x="223" y="814"/>
      <point x="250" y="814" type="curve" smooth="yes"/>
      <point x="276" y="814"/>
      <point x="289" y="779"/>
      <point x="289" y="744" type="curve" smooth="yes"/>
      <point x="289" y="640"/>
      <point x="230" y="525"/>
      <point x="150" y="406" type="curve"/>
      <point x="158" y="348" type="line"/>
      <point x="284" y="489"/>
      <point x="375" y="624"/>
      <point x="375" y="744" type="curve" smooth="yes"/>
      <point x="375" y="845"/>
      <point x="334" y="894"/>
      <point x="250" y="894" type="curve" smooth="yes"/>
      <point x="163" y="894"/>
      <point x="123" y="834"/>
      <point x="123" y="706" type="curve" smooth="yes"/>
      <point x="123" y="11" type="line" smooth="yes"/>
      <point x="123" y="-6"/>
      <point x="136" y="-15"/>
    </contour>
    <contour>
      <point x="185" y="26" type="curve" smooth="yes"/>
      <point x="246" y="-9"/>
      <point x="288" y="-17"/>
      <point x="327" y="-17" type="curve" smooth="yes"/>
      <point x="478" y="-17"/>
      <point x="558" y="104"/>
      <point x="558" y="279" type="curve" smooth="yes"/>
      <point x="558" y="430"/>
      <point x="496" y="519"/>
      <point x="395" y="519" type="curve" smooth="yes"/>
      <point x="318" y="519"/>
      <point x="261" y="471"/>
      <point x="209" y="356" type="curve"/>
      <point x="209" y="150" type="line"/>
      <point x="237" y="365"/>
      <point x="307" y="439"/>
      <point x="377" y="439" type="curve" smooth="yes"/>
      <point x="447" y="439"/>
      <point x="469" y="363"/>
      <point x="469" y="278" type="curve" smooth="yes"/>
      <point x="469" y="138"/>
      <point x="414" y="58"/>
      <point x="319" y="58" type="curve" smooth="yes"/>
      <point x="289" y="58"/>
      <point x="251" y="66"/>
      <point x="209" y="90" type="curve" smooth="yes"/>
      <point x="174" y="110"/>
      <point x="149" y="46"/>
    </contour>
  </outline>
</glyph>
<glyph name="b.jmc_dk" format="2">
  <advance width="664"/>
  <anchor x="313" y="0" name="bottom"/>
  <anchor x="385" y="250" name="center"/>
  <anchor x="485" y="500" name="top"/>
  <outline>
    <contour>
      <point x="-100" y="-17" type="curve" smooth="yes"/>
      <point x="-6" y="-17"/>
      <point x="58" y="74"/>
      <point x="176" y="361" type="curve" smooth="yes"/>
      <point x="185" y="383"/>
      <point x="145" y="415"/>
      <point x="131" y="386" type="curve" smooth="yes"/>
      <point x="21" y="140"/>
      <point x="-42" y="58"/>
      <point x="-100" y="58" type="curve" smooth="yes"/>
      <point x="-150" y="58"/>
      <point x="-150" y="-17"/>
    </contour>
    <component base="b.jmc_dk.fin"/>
  </outline>
</glyph>
<glyph name="b.jmc_dk.med" format="2">
  <advance width="623"/>
  <anchor x="623" y="0" name="cnct"/>
  <anchor x="333" y="0" name="bottom"/>
  <anchor x="365" y="250" name="center"/>
  <anchor x="485" y="500" name="top"/>
  <outline>
    <contour>
      <point x="514" y="-17" type="curve" smooth="yes"/>
      <point x="539" y="-17"/>
      <point x="558" y="58"/>
      <point x="533" y="58" type="curve" smooth="yes"/>
      <point x="504" y="58"/>
      <point x="421" y="37"/>
      <point x="355" y="20" type="curve"/>
      <point x="352" y="-16" type="line"/>
      <point x="423" y="6"/>
      <point x="470" y="-17"/>
    </contour>
    <component base="b.jmc_dk.fin"/>
  </outline>
</glyph>
<glyph name="b.lop" format="2">
  <advance width="614"/>
  <anchor x="335" y="0" name="bottom"/>
  <anchor x="335" y="250" name="center"/>
  <anchor x="335" y="500" name="top"/>
  <outline>
    <contour>
      <point x="-102" y="-17" type="curve" smooth="yes"/>
      <point x="100" y="-17"/>
      <point x="375" y="486"/>
      <point x="375" y="754" type="curve" smooth="yes"/>
      <point x="375" y="791"/>
      <point x="289" y="791"/>
      <point x="289" y="754" type="curve" smooth="yes"/>
      <point x="289" y="445"/>
      <point x="51" y="58"/>
      <point x="-102" y="58" type="curve" smooth="yes"/>
      <point x="-152" y="58"/>
      <point x="-152" y="-17"/>
    </contour>
    <component base="b.lop.fin"/>
  </outline>
</glyph>
<glyph name="b.lop.med" format="2">
  <advance width="614"/>
  <anchor x="335" y="0" name="bottom"/>
  <anchor x="335" y="250" name="center"/>
  <anchor x="614" y="0" name="cnct"/>
  <anchor x="335" y="500" name="top"/>
  <outline>
    <contour>
      <point x="283" y="-19" type="curve" smooth="yes"/>
      <point x="444" y="-19"/>
      <point x="535" y="173"/>
      <point x="535" y="321" type="curve" smooth="yes"/>
      <point x="535" y="446"/>
      <point x="474" y="519"/>
      <point x="425" y="519" type="curve" smooth="yes"/>
      <point x="404" y="519"/>
      <point x="383" y="505"/>
      <point x="383" y="475" type="curve" smooth="yes"/>
      <point x="383" y="450"/>
      <point x="399" y="423"/>
      <point x="441" y="399" type="curve"/>
      <point x="450" y="370"/>
      <point x="451" y="341"/>
      <point x="451" y="309" type="curve" smooth="yes"/>
      <point x="451" y="200"/>
      <point x="376" y="61"/>
      <point x="294" y="61" type="curve" smooth="yes"/>
      <point x="235" y="61"/>
      <point x="209" y="101"/>
      <point x="209" y="189" type="curve" smooth="yes"/>
      <point x="209" y="645" type="line" smooth="yes"/>
      <point x="209" y="771"/>
      <point x="220" y="814"/>
      <point x="255" y="814" type="curve" smooth="yes"/>
      <point x="278" y="814"/>
      <point x="289" y="795"/>
      <point x="289" y="754" type="curve" smooth="yes"/>
      <point x="289" y="704"/>
      <point x="375" y="704"/>
      <point x="375" y="754" type="curve" smooth="yes"/>
      <point x="375" y="839"/>
      <point x="330" y="894"/>
      <point x="261" y="894" type="curve" smooth="yes"/>
      <point x="170" y="894"/>
      <point x="123" y="825"/>
      <point x="123" y="669" type="curve" smooth="yes"/>
      <point x="123" y="189" type="line" smooth="yes"/>
      <point x="123" y="46"/>
      <point x="183" y="-19"/>
    </contour>
  </outline>
</glyph>
<glyph name="b.mlp.fin" format="2">
  <advance width="689"/>
  <guideline y="382"/>
  <anchor x="360" y="0" name="bottom"/>
  <anchor x="360" y="250" name="center"/>
  <anchor x="360" y="500" name="top"/>
  <outline>
    <contour>
      <point x="305" y="-19" type="curve" smooth="yes"/>
      <point x="483" y="-19"/>
      <point x="610" y="184"/>
      <point x="610" y="359" type="curve" smooth="yes"/>
      <point x="610" y="460"/>
      <point x="554" y="536"/>
      <point x="455" y="536" type="curve" smooth="yes"/>
      <point x="396" y="536"/>
      <point x="359" y="494"/>
      <point x="359" y="443" type="curve" smooth="yes"/>
      <point x="359" y="373"/>
      <point x="409" y="324"/>
      <point x="535" y="324" type="curve" smooth="yes"/>
      <point x="580" y="324"/>
      <point x="640" y="336"/>
      <point x="723" y="399" type="curve" smooth="yes"/>
      <point x="746" y="416"/>
      <point x="719" y="479"/>
      <point x="688" y="458" type="curve" smooth="yes"/>
      <point x="610" y="403"/>
      <point x="564" y="390"/>
      <point x="535" y="390" type="curve" smooth="yes"/>
      <point x="450" y="390"/>
      <point x="420" y="409"/>
      <point x="420" y="441" type="curve" smooth="yes"/>
      <point x="420" y="465"/>
      <point x="434" y="478"/>
      <point x="458" y="478" type="curve" smooth="yes"/>
      <point x="494" y="478"/>
      <point x="530" y="433"/>
      <point x="530" y="359" type="curve" smooth="yes"/>
      <point x="530" y="200"/>
      <point x="414" y="61"/>
      <point x="306" y="61" type="curve" smooth="yes"/>
      <point x="223" y="61"/>
      <point x="209" y="126"/>
      <point x="209" y="251" type="curve" smooth="yes"/>
      <point x="209" y="645" type="line" smooth="yes"/>
      <point x="209" y="771"/>
      <point x="220" y="814"/>
      <point x="255" y="814" type="curve" smooth="yes"/>
      <point x="278" y="814"/>
      <point x="289" y="795"/>
      <point x="289" y="754" type="curve" smooth="yes"/>
      <point x="289" y="704"/>
      <point x="375" y="704"/>
      <point x="375" y="754" type="curve" smooth="yes"/>
      <point x="375" y="839"/>
      <point x="330" y="894"/>
      <point x="261" y="894" type="curve" smooth="yes"/>
      <point x="170" y="894"/>
      <point x="123" y="825"/>
      <point x="123" y="669" type="curve" smooth="yes"/>
      <point x="123" y="251" type="line" smooth="yes"/>
      <point x="123" y="64"/>
      <point x="178" y="-19"/>
    </contour>
  </outline>
</glyph>
